<svg xmlns="http://www.w3.org/2000/svg" xmlns:xlink="http://www.w3.org/1999/xlink" width="50" zoomAndPan="magnify" viewBox="0 0 37.5 37.499999" height="50" preserveAspectRatio="xMidYMid meet" version="1.0"><defs><clipPath id="ffce27071c"><path d="M 15 10.605469 L 30 10.605469 L 30 18 L 15 18 Z M 15 10.605469 " clip-rule="nonzero"/></clipPath><clipPath id="2a8a715382"><path d="M 1.09375 10.605469 L 16 10.605469 L 16 26.148438 L 1.09375 26.148438 Z M 1.09375 10.605469 " clip-rule="nonzero"/></clipPath><clipPath id="3cb83eccc4"><path d="M 8 13 L 35.878906 13 L 35.878906 25 L 8 25 Z M 8 13 " clip-rule="nonzero"/></clipPath><clipPath id="e3a0d9661c"><path d="M 1.09375 12 L 16 12 L 16 26 L 1.09375 26 Z M 1.09375 12 " clip-rule="nonzero"/></clipPath></defs><g clip-path="url(#ffce27071c)"><path fill="#ff914d" d="M 16.652344 10.605469 L 28.5 10.605469 C 28.710938 10.605469 28.890625 10.679688 29.042969 10.828125 C 29.191406 10.976562 29.265625 11.15625 29.265625 11.367188 L 29.265625 16.335938 C 29.265625 16.546875 29.191406 16.726562 29.042969 16.878906 C 28.890625 17.027344 28.710938 17.101562 28.5 17.101562 L 16.652344 17.101562 C 16.441406 17.101562 16.261719 17.027344 16.113281 16.878906 C 15.964844 16.726562 15.886719 16.546875 15.886719 16.335938 L 15.886719 11.367188 C 15.886719 11.15625 15.964844 10.976562 16.113281 10.828125 C 16.261719 10.679688 16.441406 10.605469 16.652344 10.605469 Z M 16.652344 10.605469 " fill-opacity="1" fill-rule="nonzero"/></g><path fill="#000000" d="M 19.570312 12.582031 L 18.949219 12.582031 L 18.835938 12.898438 L 18.640625 12.898438 L 19.152344 11.488281 L 19.367188 11.488281 L 19.878906 12.898438 L 19.683594 12.898438 Z M 19.515625 12.429688 L 19.261719 11.714844 L 19.003906 12.429688 Z M 20.644531 11.761719 C 20.78125 11.761719 20.890625 11.804688 20.972656 11.886719 C 21.058594 11.96875 21.101562 12.085938 21.101562 12.238281 L 21.101562 12.898438 L 20.917969 12.898438 L 20.917969 12.265625 C 20.917969 12.15625 20.890625 12.070312 20.832031 12.011719 C 20.777344 11.953125 20.703125 11.921875 20.605469 11.921875 C 20.507812 11.921875 20.429688 11.953125 20.371094 12.015625 C 20.316406 12.074219 20.285156 12.164062 20.285156 12.28125 L 20.285156 12.898438 L 20.101562 12.898438 L 20.101562 11.78125 L 20.285156 11.78125 L 20.285156 11.941406 C 20.324219 11.882812 20.371094 11.839844 20.433594 11.808594 C 20.5 11.777344 20.570312 11.761719 20.644531 11.761719 Z M 21.332031 12.335938 C 21.332031 12.222656 21.355469 12.121094 21.402344 12.035156 C 21.449219 11.949219 21.511719 11.882812 21.589844 11.835938 C 21.671875 11.789062 21.761719 11.765625 21.863281 11.765625 C 21.949219 11.765625 22.03125 11.785156 22.105469 11.824219 C 22.179688 11.863281 22.238281 11.917969 22.277344 11.980469 L 22.277344 11.390625 L 22.464844 11.390625 L 22.464844 12.898438 L 22.277344 12.898438 L 22.277344 12.6875 C 22.238281 12.753906 22.1875 12.808594 22.113281 12.851562 C 22.042969 12.894531 21.957031 12.914062 21.863281 12.914062 C 21.761719 12.914062 21.671875 12.890625 21.589844 12.84375 C 21.511719 12.792969 21.449219 12.726562 21.402344 12.636719 C 21.355469 12.546875 21.332031 12.449219 21.332031 12.335938 Z M 22.277344 12.335938 C 22.277344 12.253906 22.257812 12.179688 22.226562 12.117188 C 22.191406 12.054688 22.144531 12.007812 22.085938 11.976562 C 22.03125 11.941406 21.96875 11.925781 21.898438 11.925781 C 21.828125 11.925781 21.765625 11.941406 21.710938 11.972656 C 21.652344 12.007812 21.605469 12.054688 21.574219 12.117188 C 21.539062 12.179688 21.523438 12.25 21.523438 12.335938 C 21.523438 12.421875 21.539062 12.496094 21.574219 12.558594 C 21.605469 12.621094 21.652344 12.671875 21.710938 12.703125 C 21.765625 12.738281 21.828125 12.753906 21.898438 12.753906 C 21.96875 12.753906 22.03125 12.738281 22.085938 12.703125 C 22.144531 12.671875 22.191406 12.621094 22.226562 12.558594 C 22.257812 12.496094 22.277344 12.421875 22.277344 12.335938 Z M 22.960938 11.964844 C 22.992188 11.898438 23.039062 11.851562 23.101562 11.816406 C 23.160156 11.78125 23.234375 11.761719 23.320312 11.761719 L 23.320312 11.953125 L 23.273438 11.953125 C 23.066406 11.953125 22.960938 12.066406 22.960938 12.292969 L 22.960938 12.898438 L 22.777344 12.898438 L 22.777344 11.78125 L 22.960938 11.78125 Z M 24.019531 12.914062 C 23.917969 12.914062 23.820312 12.890625 23.734375 12.84375 C 23.652344 12.796875 23.585938 12.730469 23.535156 12.644531 C 23.488281 12.554688 23.464844 12.453125 23.464844 12.335938 C 23.464844 12.222656 23.488281 12.125 23.539062 12.035156 C 23.589844 11.949219 23.65625 11.882812 23.742188 11.835938 C 23.828125 11.789062 23.921875 11.765625 24.027344 11.765625 C 24.136719 11.765625 24.230469 11.789062 24.316406 11.835938 C 24.402344 11.882812 24.46875 11.949219 24.515625 12.035156 C 24.566406 12.121094 24.59375 12.222656 24.59375 12.335938 C 24.59375 12.453125 24.566406 12.554688 24.515625 12.644531 C 24.464844 12.730469 24.394531 12.796875 24.308594 12.84375 C 24.222656 12.890625 24.125 12.914062 24.019531 12.914062 Z M 24.019531 12.753906 C 24.085938 12.753906 24.148438 12.738281 24.207031 12.707031 C 24.265625 12.675781 24.3125 12.628906 24.347656 12.566406 C 24.386719 12.503906 24.402344 12.425781 24.402344 12.335938 C 24.402344 12.25 24.386719 12.171875 24.351562 12.109375 C 24.316406 12.046875 24.269531 12 24.210938 11.972656 C 24.15625 11.941406 24.09375 11.925781 24.027344 11.925781 C 23.960938 11.925781 23.898438 11.941406 23.839844 11.972656 C 23.785156 12 23.738281 12.046875 23.707031 12.109375 C 23.671875 12.171875 23.65625 12.25 23.65625 12.335938 C 23.65625 12.429688 23.671875 12.503906 23.703125 12.566406 C 23.738281 12.628906 23.78125 12.675781 23.839844 12.707031 C 23.894531 12.738281 23.953125 12.753906 24.019531 12.753906 Z M 24.929688 11.601562 C 24.894531 11.601562 24.867188 11.589844 24.839844 11.566406 C 24.816406 11.539062 24.804688 11.511719 24.804688 11.476562 C 24.804688 11.441406 24.816406 11.410156 24.839844 11.386719 C 24.867188 11.363281 24.894531 11.347656 24.929688 11.347656 C 24.964844 11.347656 24.992188 11.363281 25.015625 11.386719 C 25.042969 11.410156 25.054688 11.441406 25.054688 11.476562 C 25.054688 11.511719 25.042969 11.539062 25.015625 11.566406 C 24.992188 11.589844 24.964844 11.601562 24.929688 11.601562 Z M 25.019531 11.78125 L 25.019531 12.898438 L 24.835938 12.898438 L 24.835938 11.78125 Z M 25.265625 12.335938 C 25.265625 12.222656 25.289062 12.121094 25.335938 12.035156 C 25.382812 11.949219 25.445312 11.882812 25.523438 11.835938 C 25.605469 11.789062 25.699219 11.765625 25.796875 11.765625 C 25.882812 11.765625 25.964844 11.785156 26.039062 11.824219 C 26.113281 11.863281 26.171875 11.917969 26.210938 11.980469 L 26.210938 11.390625 L 26.398438 11.390625 L 26.398438 12.898438 L 26.210938 12.898438 L 26.210938 12.6875 C 26.175781 12.753906 26.121094 12.808594 26.046875 12.851562 C 25.976562 12.894531 25.890625 12.914062 25.796875 12.914062 C 25.695312 12.914062 25.605469 12.890625 25.523438 12.84375 C 25.445312 12.792969 25.382812 12.726562 25.335938 12.636719 C 25.289062 12.546875 25.265625 12.449219 25.265625 12.335938 Z M 26.210938 12.335938 C 26.210938 12.253906 26.195312 12.179688 26.160156 12.117188 C 26.125 12.054688 26.078125 12.007812 26.019531 11.976562 C 25.964844 11.941406 25.902344 11.925781 25.832031 11.925781 C 25.761719 11.925781 25.699219 11.941406 25.644531 11.972656 C 25.585938 12.007812 25.539062 12.054688 25.507812 12.117188 C 25.472656 12.179688 25.457031 12.25 25.457031 12.335938 C 25.457031 12.421875 25.472656 12.496094 25.507812 12.558594 C 25.539062 12.621094 25.585938 12.671875 25.644531 12.703125 C 25.699219 12.738281 25.761719 12.753906 25.832031 12.753906 C 25.902344 12.753906 25.964844 12.738281 26.019531 12.703125 C 26.078125 12.671875 26.125 12.621094 26.160156 12.558594 C 26.195312 12.496094 26.210938 12.421875 26.210938 12.335938 Z M 26.210938 12.335938 " fill-opacity="1" fill-rule="nonzero"/><g clip-path="url(#2a8a715382)"><path stroke-linecap="butt" transform="matrix(0.0254793, 0, 0, 0.0254793, 1.125649, 10.603855)" fill="none" stroke-linejoin="miter" d="M 500.993447 511.967313 C 463.892291 554.74096 414.83291 585.249762 360.254349 599.814266 C 305.675788 614.225459 247.877706 611.9258 194.525629 593.221912 C 141.173553 574.364712 94.720452 539.869835 61.298749 494.336598 C 27.877046 448.80336 8.866536 394.224799 6.720188 337.653201 C 4.727151 281.234913 19.751586 225.429868 49.953767 177.596972 C 80.155948 129.764076 123.849459 92.049677 175.82174 69.513024 C 227.640711 46.976371 284.978862 40.537327 340.630597 51.115756 C 396.129021 61.540875 447.181439 88.523534 487.195497 128.537591 " stroke="#000000" stroke-width="11.375" stroke-opacity="1" stroke-miterlimit="4"/></g><g clip-path="url(#3cb83eccc4)"><path fill="#000000" d="M 8.089844 13.472656 L 30.425781 13.472656 C 33.449219 13.472656 35.898438 15.925781 35.898438 18.949219 C 35.898438 21.972656 33.449219 24.421875 30.425781 24.421875 L 8.089844 24.421875 Z M 8.089844 13.472656 " fill-opacity="1" fill-rule="nonzero"/></g><g clip-path="url(#e3a0d9661c)"><path fill="#000000" d="M 15.003906 18.953125 C 15.003906 19.382812 14.960938 19.804688 14.878906 20.226562 C 14.792969 20.648438 14.667969 21.054688 14.503906 21.453125 C 14.339844 21.847656 14.140625 22.226562 13.902344 22.582031 C 13.664062 22.941406 13.390625 23.269531 13.089844 23.574219 C 12.785156 23.875 12.453125 24.148438 12.097656 24.386719 C 11.742188 24.625 11.363281 24.824219 10.96875 24.988281 C 10.570312 25.152344 10.164062 25.277344 9.742188 25.363281 C 9.320312 25.445312 8.894531 25.488281 8.46875 25.488281 C 8.039062 25.488281 7.613281 25.445312 7.191406 25.363281 C 6.769531 25.277344 6.363281 25.152344 5.964844 24.988281 C 5.570312 24.824219 5.191406 24.625 4.835938 24.386719 C 4.480469 24.148438 4.148438 23.875 3.847656 23.574219 C 3.542969 23.269531 3.273438 22.941406 3.035156 22.582031 C 2.792969 22.226562 2.59375 21.847656 2.429688 21.453125 C 2.265625 21.054688 2.140625 20.648438 2.058594 20.226562 C 1.972656 19.804688 1.933594 19.382812 1.933594 18.953125 C 1.933594 18.523438 1.972656 18.097656 2.058594 17.675781 C 2.140625 17.257812 2.265625 16.847656 2.429688 16.449219 C 2.59375 16.054688 2.792969 15.679688 3.035156 15.320312 C 3.273438 14.964844 3.542969 14.632812 3.847656 14.332031 C 4.148438 14.027344 4.480469 13.757812 4.835938 13.519531 C 5.191406 13.28125 5.570312 13.078125 5.964844 12.914062 C 6.363281 12.75 6.769531 12.625 7.191406 12.542969 C 7.613281 12.457031 8.039062 12.417969 8.46875 12.417969 C 8.894531 12.417969 9.320312 12.457031 9.742188 12.542969 C 10.164062 12.625 10.570312 12.75 10.96875 12.914062 C 11.363281 13.078125 11.742188 13.28125 12.097656 13.519531 C 12.453125 13.757812 12.785156 14.027344 13.089844 14.332031 C 13.390625 14.632812 13.664062 14.964844 13.902344 15.320312 C 14.140625 15.679688 14.339844 16.054688 14.503906 16.449219 C 14.667969 16.847656 14.792969 17.257812 14.878906 17.675781 C 14.960938 18.097656 15.003906 18.523438 15.003906 18.953125 Z M 15.003906 18.953125 " fill-opacity="1" fill-rule="nonzero"/></g><path fill="#ff914d" d="M 6.972656 15.039062 L 9.953125 15.039062 C 10.09375 15.039062 10.210938 15.085938 10.3125 15.1875 C 10.410156 15.285156 10.460938 15.40625 10.460938 15.546875 L 10.460938 22.375 C 10.460938 22.515625 10.410156 22.636719 10.3125 22.734375 C 10.210938 22.835938 10.09375 22.886719 9.953125 22.886719 L 6.972656 22.886719 C 6.832031 22.886719 6.710938 22.835938 6.609375 22.734375 C 6.511719 22.636719 6.460938 22.515625 6.460938 22.375 L 6.460938 15.546875 C 6.460938 15.40625 6.511719 15.285156 6.609375 15.1875 C 6.710938 15.085938 6.832031 15.039062 6.972656 15.039062 Z M 6.972656 15.039062 " fill-opacity="1" fill-rule="nonzero"/><path fill="#000000" d="M 7.199219 15.34375 L 9.722656 15.34375 C 9.863281 15.34375 9.984375 15.394531 10.082031 15.492188 C 10.183594 15.589844 10.230469 15.710938 10.230469 15.851562 L 10.230469 22.09375 C 10.230469 22.234375 10.183594 22.355469 10.082031 22.457031 C 9.984375 22.554688 9.863281 22.605469 9.722656 22.605469 L 7.199219 22.605469 C 7.058594 22.605469 6.9375 22.554688 6.839844 22.457031 C 6.742188 22.355469 6.691406 22.234375 6.691406 22.09375 L 6.691406 15.851562 C 6.691406 15.710938 6.742188 15.589844 6.839844 15.492188 C 6.9375 15.394531 7.058594 15.34375 7.199219 15.34375 Z M 7.199219 15.34375 " fill-opacity="1" fill-rule="nonzero"/><path fill="#ff914d" d="M 15.085938 16.269531 C 15.238281 16.269531 15.375 16.300781 15.484375 16.355469 C 15.597656 16.414062 15.6875 16.496094 15.746094 16.601562 C 15.808594 16.710938 15.835938 16.835938 15.835938 16.980469 C 15.835938 17.125 15.808594 17.253906 15.746094 17.359375 C 15.6875 17.464844 15.597656 17.546875 15.484375 17.605469 C 15.375 17.660156 15.238281 17.6875 15.085938 17.6875 L 14.644531 17.6875 L 14.644531 16.269531 Z M 15.085938 17.535156 C 15.269531 17.535156 15.40625 17.488281 15.503906 17.390625 C 15.601562 17.292969 15.648438 17.15625 15.648438 16.980469 C 15.648438 16.804688 15.597656 16.667969 15.5 16.570312 C 15.40625 16.46875 15.265625 16.421875 15.085938 16.421875 L 14.828125 16.421875 L 14.828125 17.535156 Z M 16.566406 17.707031 C 16.464844 17.707031 16.367188 17.683594 16.28125 17.632812 C 16.199219 17.585938 16.132812 17.519531 16.082031 17.433594 C 16.035156 17.34375 16.011719 17.242188 16.011719 17.128906 C 16.011719 17.015625 16.035156 16.914062 16.085938 16.828125 C 16.136719 16.738281 16.203125 16.671875 16.289062 16.625 C 16.375 16.578125 16.46875 16.554688 16.574219 16.554688 C 16.679688 16.554688 16.777344 16.578125 16.863281 16.625 C 16.949219 16.671875 17.015625 16.738281 17.0625 16.824219 C 17.113281 16.910156 17.140625 17.011719 17.140625 17.128906 C 17.140625 17.242188 17.113281 17.34375 17.0625 17.433594 C 17.011719 17.519531 16.941406 17.585938 16.855469 17.632812 C 16.769531 17.683594 16.671875 17.707031 16.566406 17.707031 Z M 16.566406 17.542969 C 16.632812 17.542969 16.695312 17.527344 16.753906 17.496094 C 16.8125 17.464844 16.859375 17.417969 16.894531 17.355469 C 16.929688 17.292969 16.949219 17.21875 16.949219 17.128906 C 16.949219 17.039062 16.933594 16.960938 16.898438 16.898438 C 16.863281 16.835938 16.816406 16.792969 16.757812 16.761719 C 16.703125 16.730469 16.640625 16.714844 16.574219 16.714844 C 16.503906 16.714844 16.445312 16.730469 16.386719 16.761719 C 16.332031 16.792969 16.285156 16.835938 16.253906 16.898438 C 16.21875 16.960938 16.203125 17.039062 16.203125 17.128906 C 16.203125 17.21875 16.21875 17.296875 16.25 17.359375 C 16.285156 17.421875 16.328125 17.46875 16.382812 17.496094 C 16.441406 17.527344 16.5 17.542969 16.566406 17.542969 Z M 18.867188 16.574219 L 18.519531 17.6875 L 18.328125 17.6875 L 18.058594 16.800781 L 17.789062 17.6875 L 17.601562 17.6875 L 17.25 16.574219 L 17.4375 16.574219 L 17.695312 17.507812 L 17.972656 16.574219 L 18.160156 16.574219 L 18.429688 17.511719 L 18.683594 16.574219 Z M 19.59375 16.550781 C 19.730469 16.550781 19.839844 16.59375 19.921875 16.675781 C 20.007812 16.757812 20.046875 16.875 20.046875 17.03125 L 20.046875 17.6875 L 19.867188 17.6875 L 19.867188 17.058594 C 19.867188 16.945312 19.839844 16.859375 19.78125 16.800781 C 19.726562 16.742188 19.652344 16.714844 19.554688 16.714844 C 19.457031 16.714844 19.378906 16.742188 19.320312 16.804688 C 19.265625 16.867188 19.234375 16.953125 19.234375 17.070312 L 19.234375 17.6875 L 19.050781 17.6875 L 19.050781 16.574219 L 19.234375 16.574219 L 19.234375 16.730469 C 19.273438 16.675781 19.320312 16.628906 19.382812 16.597656 C 19.449219 16.566406 19.515625 16.550781 19.59375 16.550781 Z M 20.535156 16.183594 L 20.535156 17.6875 L 20.351562 17.6875 L 20.351562 16.183594 Z M 21.335938 17.707031 C 21.234375 17.707031 21.136719 17.683594 21.054688 17.632812 C 20.96875 17.585938 20.902344 17.519531 20.851562 17.433594 C 20.804688 17.34375 20.78125 17.242188 20.78125 17.128906 C 20.78125 17.015625 20.808594 16.914062 20.855469 16.828125 C 20.90625 16.738281 20.972656 16.671875 21.058594 16.625 C 21.144531 16.578125 21.238281 16.554688 21.34375 16.554688 C 21.453125 16.554688 21.546875 16.578125 21.632812 16.625 C 21.71875 16.671875 21.785156 16.738281 21.832031 16.824219 C 21.882812 16.910156 21.910156 17.011719 21.910156 17.128906 C 21.910156 17.242188 21.882812 17.34375 21.832031 17.433594 C 21.78125 17.519531 21.714844 17.585938 21.625 17.632812 C 21.539062 17.683594 21.441406 17.707031 21.335938 17.707031 Z M 21.335938 17.542969 C 21.402344 17.542969 21.464844 17.527344 21.523438 17.496094 C 21.582031 17.464844 21.628906 17.417969 21.664062 17.355469 C 21.703125 17.292969 21.71875 17.21875 21.71875 17.128906 C 21.71875 17.039062 21.703125 16.960938 21.667969 16.898438 C 21.632812 16.835938 21.585938 16.792969 21.527344 16.761719 C 21.472656 16.730469 21.410156 16.714844 21.34375 16.714844 C 21.277344 16.714844 21.214844 16.730469 21.15625 16.761719 C 21.101562 16.792969 21.054688 16.835938 21.023438 16.898438 C 20.988281 16.960938 20.972656 17.039062 20.972656 17.128906 C 20.972656 17.21875 20.988281 17.296875 21.019531 17.359375 C 21.054688 17.421875 21.097656 17.46875 21.15625 17.496094 C 21.210938 17.527344 21.269531 17.542969 21.335938 17.542969 Z M 22.082031 17.125 C 22.082031 17.011719 22.105469 16.914062 22.152344 16.828125 C 22.199219 16.738281 22.261719 16.671875 22.339844 16.625 C 22.421875 16.578125 22.511719 16.554688 22.613281 16.554688 C 22.710938 16.554688 22.792969 16.574219 22.867188 16.617188 C 22.9375 16.660156 22.992188 16.710938 23.027344 16.777344 L 23.027344 16.574219 L 23.214844 16.574219 L 23.214844 17.6875 L 23.027344 17.6875 L 23.027344 17.480469 C 22.988281 17.542969 22.933594 17.597656 22.863281 17.640625 C 22.789062 17.683594 22.707031 17.707031 22.609375 17.707031 C 22.511719 17.707031 22.421875 17.679688 22.339844 17.632812 C 22.261719 17.582031 22.199219 17.515625 22.152344 17.425781 C 22.105469 17.339844 22.082031 17.238281 22.082031 17.125 Z M 23.027344 17.128906 C 23.027344 17.042969 23.007812 16.96875 22.976562 16.910156 C 22.941406 16.847656 22.894531 16.796875 22.835938 16.765625 C 22.78125 16.730469 22.71875 16.714844 22.648438 16.714844 C 22.578125 16.714844 22.515625 16.730469 22.460938 16.765625 C 22.402344 16.796875 22.355469 16.84375 22.324219 16.90625 C 22.289062 16.96875 22.273438 17.042969 22.273438 17.125 C 22.273438 17.210938 22.289062 17.285156 22.324219 17.347656 C 22.355469 17.410156 22.402344 17.460938 22.460938 17.492188 C 22.515625 17.527344 22.578125 17.542969 22.648438 17.542969 C 22.71875 17.542969 22.78125 17.527344 22.835938 17.492188 C 22.894531 17.460938 22.941406 17.410156 22.976562 17.347656 C 23.007812 17.285156 23.027344 17.210938 23.027344 17.128906 Z M 23.457031 17.125 C 23.457031 17.011719 23.480469 16.914062 23.527344 16.828125 C 23.574219 16.738281 23.636719 16.671875 23.714844 16.625 C 23.796875 16.578125 23.886719 16.554688 23.988281 16.554688 C 24.074219 16.554688 24.15625 16.574219 24.230469 16.617188 C 24.304688 16.65625 24.363281 16.707031 24.402344 16.773438 L 24.402344 16.183594 L 24.585938 16.183594 L 24.585938 17.6875 L 24.402344 17.6875 L 24.402344 17.476562 C 24.363281 17.542969 24.308594 17.597656 24.238281 17.640625 C 24.167969 17.683594 24.082031 17.707031 23.984375 17.707031 C 23.886719 17.707031 23.796875 17.679688 23.714844 17.632812 C 23.636719 17.582031 23.574219 17.515625 23.527344 17.425781 C 23.480469 17.339844 23.457031 17.238281 23.457031 17.125 Z M 24.402344 17.128906 C 24.402344 17.042969 24.382812 16.96875 24.351562 16.910156 C 24.316406 16.847656 24.269531 16.796875 24.210938 16.765625 C 24.15625 16.730469 24.089844 16.714844 24.023438 16.714844 C 23.953125 16.714844 23.890625 16.730469 23.832031 16.765625 C 23.777344 16.796875 23.730469 16.84375 23.695312 16.90625 C 23.664062 16.96875 23.644531 17.042969 23.644531 17.125 C 23.644531 17.210938 23.664062 17.285156 23.695312 17.347656 C 23.730469 17.410156 23.777344 17.460938 23.832031 17.492188 C 23.890625 17.527344 23.953125 17.542969 24.023438 17.542969 C 24.089844 17.542969 24.15625 17.527344 24.210938 17.492188 C 24.269531 17.460938 24.316406 17.410156 24.351562 17.347656 C 24.382812 17.285156 24.402344 17.210938 24.402344 17.128906 Z M 25.667969 16.726562 L 25.667969 17.382812 C 25.667969 17.4375 25.679688 17.476562 25.703125 17.496094 C 25.726562 17.519531 25.765625 17.53125 25.824219 17.53125 L 25.960938 17.53125 L 25.960938 17.6875 L 25.792969 17.6875 C 25.6875 17.6875 25.613281 17.664062 25.5625 17.617188 C 25.507812 17.570312 25.484375 17.492188 25.484375 17.382812 L 25.484375 16.726562 L 25.339844 16.726562 L 25.339844 16.574219 L 25.484375 16.574219 L 25.484375 16.292969 L 25.667969 16.292969 L 25.667969 16.574219 L 25.960938 16.574219 L 25.960938 16.726562 Z M 26.738281 16.550781 C 26.820312 16.550781 26.894531 16.570312 26.964844 16.605469 C 27.03125 16.644531 27.085938 16.695312 27.121094 16.769531 C 27.164062 16.839844 27.183594 16.925781 27.183594 17.03125 L 27.183594 17.6875 L 27 17.6875 L 27 17.058594 C 27 16.945312 26.972656 16.859375 26.914062 16.800781 C 26.859375 16.742188 26.785156 16.714844 26.6875 16.714844 C 26.589844 16.714844 26.511719 16.742188 26.453125 16.804688 C 26.398438 16.867188 26.367188 16.953125 26.367188 17.070312 L 26.367188 17.6875 L 26.183594 17.6875 L 26.183594 16.183594 L 26.367188 16.183594 L 26.367188 16.730469 C 26.40625 16.675781 26.457031 16.628906 26.519531 16.597656 C 26.582031 16.566406 26.65625 16.550781 26.738281 16.550781 Z M 28.5 17.085938 C 28.5 17.121094 28.5 17.160156 28.496094 17.199219 L 27.605469 17.199219 C 27.609375 17.308594 27.648438 17.394531 27.714844 17.457031 C 27.785156 17.519531 27.867188 17.550781 27.964844 17.550781 C 28.046875 17.550781 28.113281 17.53125 28.164062 17.492188 C 28.21875 17.457031 28.257812 17.40625 28.277344 17.34375 L 28.476562 17.34375 C 28.449219 17.449219 28.390625 17.539062 28.300781 17.605469 C 28.210938 17.671875 28.097656 17.707031 27.964844 17.707031 C 27.859375 17.707031 27.765625 17.683594 27.679688 17.632812 C 27.597656 17.585938 27.535156 17.519531 27.484375 17.433594 C 27.4375 17.34375 27.414062 17.242188 27.414062 17.128906 C 27.414062 17.011719 27.4375 16.910156 27.484375 16.824219 C 27.53125 16.738281 27.59375 16.671875 27.675781 16.625 C 27.761719 16.578125 27.859375 16.554688 27.964844 16.554688 C 28.070312 16.554688 28.164062 16.578125 28.246094 16.625 C 28.328125 16.667969 28.390625 16.734375 28.433594 16.816406 C 28.476562 16.894531 28.5 16.984375 28.5 17.085938 Z M 28.308594 17.046875 C 28.308594 16.976562 28.292969 16.917969 28.261719 16.867188 C 28.230469 16.816406 28.1875 16.777344 28.132812 16.75 C 28.082031 16.722656 28.023438 16.710938 27.957031 16.710938 C 27.863281 16.710938 27.785156 16.742188 27.71875 16.800781 C 27.652344 16.859375 27.617188 16.941406 27.605469 17.046875 Z M 28.308594 17.046875 " fill-opacity="1" fill-rule="nonzero"/><path fill="#ff914d" d="M 16.160156 20.808594 L 15.179688 20.808594 L 15.019531 21.277344 L 14.503906 21.277344 L 15.386719 18.816406 L 15.957031 18.816406 L 16.839844 21.277344 L 16.320312 21.277344 Z M 16.023438 20.414062 L 15.667969 19.386719 L 15.316406 20.414062 Z M 17.664062 19.609375 C 17.726562 19.519531 17.8125 19.445312 17.921875 19.386719 C 18.035156 19.328125 18.164062 19.296875 18.308594 19.296875 C 18.472656 19.296875 18.625 19.335938 18.757812 19.417969 C 18.894531 19.5 19 19.617188 19.078125 19.769531 C 19.15625 19.921875 19.195312 20.097656 19.195312 20.296875 C 19.195312 20.496094 19.15625 20.671875 19.078125 20.828125 C 19 20.980469 18.894531 21.097656 18.757812 21.179688 C 18.625 21.265625 18.472656 21.308594 18.308594 21.308594 C 18.164062 21.308594 18.039062 21.277344 17.925781 21.21875 C 17.820312 21.160156 17.730469 21.085938 17.664062 21 L 17.664062 22.203125 L 17.171875 22.203125 L 17.171875 19.328125 L 17.664062 19.328125 Z M 18.695312 20.296875 C 18.695312 20.179688 18.667969 20.078125 18.621094 19.992188 C 18.574219 19.90625 18.507812 19.839844 18.429688 19.796875 C 18.351562 19.75 18.269531 19.730469 18.175781 19.730469 C 18.085938 19.730469 18.003906 19.753906 17.921875 19.800781 C 17.847656 19.84375 17.78125 19.910156 17.734375 19.996094 C 17.6875 20.082031 17.664062 20.183594 17.664062 20.300781 C 17.664062 20.417969 17.6875 20.523438 17.734375 20.609375 C 17.78125 20.695312 17.847656 20.761719 17.921875 20.808594 C 18.003906 20.851562 18.085938 20.875 18.175781 20.875 C 18.269531 20.875 18.351562 20.851562 18.429688 20.804688 C 18.507812 20.757812 18.574219 20.691406 18.621094 20.605469 C 18.667969 20.519531 18.695312 20.414062 18.695312 20.296875 Z M 20.046875 19.609375 C 20.109375 19.519531 20.195312 19.445312 20.308594 19.386719 C 20.417969 19.328125 20.546875 19.296875 20.691406 19.296875 C 20.855469 19.296875 21.007812 19.335938 21.140625 19.417969 C 21.277344 19.5 21.382812 19.617188 21.460938 19.769531 C 21.539062 19.921875 21.578125 20.097656 21.578125 20.296875 C 21.578125 20.496094 21.539062 20.671875 21.460938 20.828125 C 21.382812 20.980469 21.277344 21.097656 21.140625 21.179688 C 21.007812 21.265625 20.855469 21.308594 20.691406 21.308594 C 20.546875 21.308594 20.421875 21.277344 20.308594 21.21875 C 20.203125 21.160156 20.113281 21.085938 20.046875 21 L 20.046875 22.203125 L 19.554688 22.203125 L 19.554688 19.328125 L 20.046875 19.328125 Z M 21.078125 20.296875 C 21.078125 20.179688 21.050781 20.078125 21.003906 19.992188 C 20.957031 19.90625 20.894531 19.839844 20.8125 19.796875 C 20.734375 19.75 20.652344 19.730469 20.558594 19.730469 C 20.472656 19.730469 20.386719 19.753906 20.308594 19.800781 C 20.230469 19.84375 20.167969 19.910156 20.117188 19.996094 C 20.070312 20.082031 20.046875 20.183594 20.046875 20.300781 C 20.046875 20.417969 20.070312 20.523438 20.117188 20.609375 C 20.167969 20.695312 20.230469 20.761719 20.308594 20.808594 C 20.386719 20.851562 20.472656 20.875 20.558594 20.875 C 20.652344 20.875 20.734375 20.851562 20.8125 20.804688 C 20.894531 20.757812 20.957031 20.691406 21.003906 20.605469 C 21.050781 20.519531 21.078125 20.414062 21.078125 20.296875 Z M 24.875 21.277344 L 24.382812 21.277344 L 23.269531 19.59375 L 23.269531 21.277344 L 22.777344 21.277344 L 22.777344 18.816406 L 23.269531 18.816406 L 24.382812 20.507812 L 24.382812 18.816406 L 24.875 18.816406 Z M 26.226562 21.308594 C 26.039062 21.308594 25.871094 21.265625 25.71875 21.183594 C 25.570312 21.101562 25.453125 20.980469 25.367188 20.828125 C 25.28125 20.675781 25.238281 20.5 25.238281 20.300781 C 25.238281 20.101562 25.28125 19.925781 25.367188 19.773438 C 25.457031 19.621094 25.578125 19.503906 25.730469 19.421875 C 25.882812 19.339844 26.054688 19.296875 26.242188 19.296875 C 26.429688 19.296875 26.597656 19.339844 26.75 19.421875 C 26.902344 19.503906 27.023438 19.621094 27.109375 19.773438 C 27.199219 19.925781 27.242188 20.101562 27.242188 20.300781 C 27.242188 20.5 27.199219 20.675781 27.105469 20.828125 C 27.015625 20.980469 26.894531 21.101562 26.742188 21.183594 C 26.589844 21.265625 26.417969 21.308594 26.226562 21.308594 Z M 26.226562 20.878906 C 26.316406 20.878906 26.398438 20.859375 26.476562 20.816406 C 26.554688 20.769531 26.621094 20.707031 26.667969 20.617188 C 26.714844 20.53125 26.738281 20.425781 26.738281 20.300781 C 26.738281 20.117188 26.6875 19.976562 26.589844 19.875 C 26.492188 19.777344 26.375 19.726562 26.234375 19.726562 C 26.09375 19.726562 25.976562 19.777344 25.878906 19.875 C 25.785156 19.976562 25.738281 20.117188 25.738281 20.300781 C 25.738281 20.488281 25.785156 20.628906 25.875 20.730469 C 25.96875 20.828125 26.085938 20.878906 26.226562 20.878906 Z M 30.304688 19.328125 L 29.734375 21.277344 L 29.203125 21.277344 L 28.847656 19.914062 L 28.496094 21.277344 L 27.960938 21.277344 L 27.386719 19.328125 L 27.886719 19.328125 L 28.230469 20.8125 L 28.601562 19.328125 L 29.125 19.328125 L 29.488281 20.808594 L 29.832031 19.328125 Z M 30.304688 19.328125 " fill-opacity="1" fill-rule="nonzero"/></svg>