<svg xmlns="http://www.w3.org/2000/svg" xmlns:xlink="http://www.w3.org/1999/xlink" width="50" zoomAndPan="magnify" viewBox="0 0 37.5 37.499999" height="50" preserveAspectRatio="xMidYMid meet" version="1.0"><defs><g/><clipPath id="2843a3b293"><path d="M 7.925781 1.183594 L 25 1.183594 L 25 14 L 7.925781 14 Z M 7.925781 1.183594 " clip-rule="nonzero"/></clipPath><clipPath id="ac7e5193a7"><path d="M 12 11 L 29.386719 11 L 29.386719 24.128906 L 12 24.128906 Z M 12 11 " clip-rule="nonzero"/></clipPath></defs><g clip-path="url(#2843a3b293)"><path fill="#000000" d="M 19.554688 10.773438 C 22.253906 10.773438 24.453125 8.625 24.453125 5.980469 C 24.453125 3.339844 22.253906 1.191406 19.554688 1.191406 L 12.824219 1.191406 C 10.121094 1.191406 7.925781 3.339844 7.925781 5.980469 C 7.925781 7.992188 9.191406 9.757812 11.078125 10.457031 L 11.078125 12.890625 C 11.078125 13.171875 11.25 13.429688 11.511719 13.542969 C 11.609375 13.585938 11.707031 13.605469 11.808594 13.605469 C 11.988281 13.605469 12.160156 13.542969 12.296875 13.417969 L 15.292969 10.765625 L 19.554688 10.765625 Z M 19.785156 5.097656 C 20.316406 5.097656 20.75 5.515625 20.75 6.039062 C 20.75 6.5625 20.320312 6.980469 19.785156 6.980469 C 19.257812 6.980469 18.824219 6.5625 18.824219 6.039062 C 18.824219 5.515625 19.257812 5.097656 19.785156 5.097656 Z M 12.667969 6.972656 C 12.136719 6.972656 11.707031 6.554688 11.707031 6.035156 C 11.707031 5.511719 12.132812 5.09375 12.667969 5.09375 C 13.203125 5.09375 13.628906 5.511719 13.628906 6.035156 C 13.628906 6.554688 13.203125 6.972656 12.667969 6.972656 Z M 16.230469 5.097656 C 16.757812 5.097656 17.191406 5.515625 17.191406 6.039062 C 17.191406 6.5625 16.765625 6.980469 16.230469 6.980469 C 15.695312 6.980469 15.265625 6.5625 15.265625 6.039062 C 15.265625 5.515625 15.699219 5.097656 16.230469 5.097656 Z M 16.230469 5.097656 " fill-opacity="1" fill-rule="nonzero"/></g><g clip-path="url(#ac7e5193a7)"><path fill="#000000" d="M 24.484375 11.703125 L 17.753906 11.703125 C 15.054688 11.703125 12.855469 13.851562 12.855469 16.492188 C 12.855469 19.136719 15.054688 21.285156 17.753906 21.285156 L 22.023438 21.285156 L 25.015625 23.9375 C 25.152344 24.054688 25.324219 24.121094 25.503906 24.121094 C 25.609375 24.121094 25.703125 24.101562 25.800781 24.058594 C 26.066406 23.945312 26.234375 23.691406 26.234375 23.410156 L 26.234375 20.976562 C 28.117188 20.277344 29.386719 18.507812 29.386719 16.5 C 29.382812 13.851562 27.183594 11.703125 24.484375 11.703125 Z M 17.523438 17.488281 C 16.992188 17.488281 16.558594 17.070312 16.558594 16.546875 C 16.558594 16.027344 16.988281 15.605469 17.523438 15.605469 C 18.054688 15.605469 18.484375 16.023438 18.484375 16.546875 C 18.480469 17.0625 18.050781 17.488281 17.523438 17.488281 Z M 21.078125 17.488281 C 20.550781 17.488281 20.117188 17.070312 20.117188 16.546875 C 20.117188 16.027344 20.542969 15.605469 21.078125 15.605469 C 21.613281 15.605469 22.042969 16.023438 22.042969 16.546875 C 22.035156 17.0625 21.609375 17.488281 21.078125 17.488281 Z M 24.636719 17.488281 C 24.105469 17.488281 23.675781 17.070312 23.675781 16.546875 C 23.675781 16.027344 24.101562 15.605469 24.636719 15.605469 C 25.171875 15.605469 25.597656 16.023438 25.597656 16.546875 C 25.597656 17.0625 25.164062 17.488281 24.636719 17.488281 Z M 24.636719 17.488281 " fill-opacity="1" fill-rule="nonzero"/></g><g fill="#000000" fill-opacity="1"><g transform="translate(6.759455, 34.293604)"><g><path d="M 4.109375 -1.0625 C 4.503906 -1.0625 4.847656 -1.128906 5.140625 -1.265625 C 5.429688 -1.398438 5.734375 -1.613281 6.046875 -1.90625 L 6.796875 -1.140625 C 6.066406 -0.328125 5.179688 0.078125 4.140625 0.078125 C 3.097656 0.078125 2.234375 -0.253906 1.546875 -0.921875 C 0.859375 -1.597656 0.515625 -2.445312 0.515625 -3.46875 C 0.515625 -4.5 0.863281 -5.359375 1.5625 -6.046875 C 2.257812 -6.734375 3.144531 -7.078125 4.21875 -7.078125 C 5.289062 -7.078125 6.1875 -6.679688 6.90625 -5.890625 L 6.15625 -5.078125 C 5.832031 -5.390625 5.523438 -5.609375 5.234375 -5.734375 C 4.941406 -5.859375 4.597656 -5.921875 4.203125 -5.921875 C 3.503906 -5.921875 2.914062 -5.695312 2.4375 -5.25 C 1.96875 -4.800781 1.734375 -4.222656 1.734375 -3.515625 C 1.734375 -2.816406 1.96875 -2.234375 2.4375 -1.765625 C 2.90625 -1.296875 3.460938 -1.0625 4.109375 -1.0625 Z M 4.109375 -1.0625 "/></g></g></g><g fill="#000000" fill-opacity="1"><g transform="translate(14.019748, 34.293604)"><g><path d="M 1.90625 -2.84375 L 1.90625 0 L 0.796875 0 L 0.796875 -7.3125 L 1.90625 -7.3125 L 1.90625 -4.296875 C 2.0625 -4.617188 2.296875 -4.867188 2.609375 -5.046875 C 2.929688 -5.234375 3.28125 -5.328125 3.65625 -5.328125 C 4.25 -5.328125 4.726562 -5.144531 5.09375 -4.78125 C 5.457031 -4.425781 5.640625 -3.90625 5.640625 -3.21875 L 5.640625 0 L 4.53125 0 L 4.53125 -2.890625 C 4.53125 -3.847656 4.128906 -4.328125 3.328125 -4.328125 C 2.941406 -4.328125 2.609375 -4.203125 2.328125 -3.953125 C 2.046875 -3.703125 1.90625 -3.332031 1.90625 -2.84375 Z M 1.90625 -2.84375 "/></g></g></g><g fill="#000000" fill-opacity="1"><g transform="translate(20.392236, 34.293604)"><g><path d="M 5.0625 0 L 4.046875 0 L 4.046875 -0.703125 C 3.609375 -0.179688 3.023438 0.078125 2.296875 0.078125 C 1.753906 0.078125 1.300781 -0.0703125 0.9375 -0.375 C 0.582031 -0.6875 0.40625 -1.101562 0.40625 -1.625 C 0.40625 -2.144531 0.59375 -2.53125 0.96875 -2.78125 C 1.351562 -3.039062 1.875 -3.171875 2.53125 -3.171875 L 3.953125 -3.171875 L 3.953125 -3.375 C 3.953125 -4.070312 3.566406 -4.421875 2.796875 -4.421875 C 2.304688 -4.421875 1.800781 -4.238281 1.28125 -3.875 L 0.78125 -4.578125 C 1.414062 -5.078125 2.140625 -5.328125 2.953125 -5.328125 C 3.566406 -5.328125 4.070312 -5.171875 4.46875 -4.859375 C 4.863281 -4.546875 5.0625 -4.054688 5.0625 -3.390625 Z M 3.953125 -1.953125 L 3.953125 -2.40625 L 2.703125 -2.40625 C 1.910156 -2.40625 1.515625 -2.15625 1.515625 -1.65625 C 1.515625 -1.394531 1.613281 -1.195312 1.8125 -1.0625 C 2.007812 -0.925781 2.28125 -0.859375 2.625 -0.859375 C 2.976562 -0.859375 3.285156 -0.957031 3.546875 -1.15625 C 3.816406 -1.351562 3.953125 -1.617188 3.953125 -1.953125 Z M 3.953125 -1.953125 "/></g></g></g><g fill="#000000" fill-opacity="1"><g transform="translate(26.123478, 34.293604)"><g><path d="M 2.15625 -4.359375 L 2.15625 -1.703125 C 2.15625 -1.453125 2.222656 -1.25 2.359375 -1.09375 C 2.492188 -0.945312 2.675781 -0.875 2.90625 -0.875 C 3.144531 -0.875 3.375 -0.988281 3.59375 -1.21875 L 4.046875 -0.4375 C 3.660156 -0.09375 3.226562 0.078125 2.75 0.078125 C 2.28125 0.078125 1.878906 -0.0820312 1.546875 -0.40625 C 1.222656 -0.738281 1.0625 -1.179688 1.0625 -1.734375 L 1.0625 -4.359375 L 0.390625 -4.359375 L 0.390625 -5.25 L 1.0625 -5.25 L 1.0625 -6.90625 L 2.15625 -6.90625 L 2.15625 -5.25 L 3.546875 -5.25 L 3.546875 -4.359375 Z M 2.15625 -4.359375 "/></g></g></g></svg>