<svg xmlns="http://www.w3.org/2000/svg" xmlns:xlink="http://www.w3.org/1999/xlink" width="50" zoomAndPan="magnify" viewBox="0 0 37.5 37.499999" height="50" preserveAspectRatio="xMidYMid meet" version="1.0"><defs><clipPath id="e3ef18a42b"><path d="M 3.894531 2.535156 L 27 2.535156 L 27 20 L 3.894531 20 Z M 3.894531 2.535156 " clip-rule="nonzero"/></clipPath><clipPath id="81b8eb30a5"><path d="M 10 17 L 32.757812 17 L 32.757812 34.363281 L 10 34.363281 Z M 10 17 " clip-rule="nonzero"/></clipPath></defs><g clip-path="url(#e3ef18a42b)"><path fill="#000000" d="M 19.53125 15.835938 C 23.164062 15.835938 26.121094 12.855469 26.121094 9.191406 C 26.121094 5.527344 23.164062 2.546875 19.53125 2.546875 L 10.480469 2.546875 C 6.847656 2.546875 3.894531 5.527344 3.894531 9.191406 C 3.894531 11.980469 5.601562 14.433594 8.136719 15.402344 L 8.136719 18.777344 C 8.136719 19.164062 8.363281 19.519531 8.71875 19.679688 C 8.847656 19.738281 8.976562 19.765625 9.117188 19.765625 C 9.355469 19.765625 9.59375 19.679688 9.777344 19.507812 L 13.800781 15.828125 L 19.53125 15.828125 Z M 19.847656 7.964844 C 20.558594 7.964844 21.140625 8.546875 21.140625 9.269531 C 21.140625 9.996094 20.566406 10.574219 19.847656 10.574219 C 19.132812 10.574219 18.550781 9.996094 18.550781 9.269531 C 18.550781 8.546875 19.132812 7.964844 19.847656 7.964844 Z M 10.273438 10.570312 C 9.558594 10.570312 8.976562 9.988281 8.976562 9.265625 C 8.976562 8.539062 9.554688 7.957031 10.273438 7.957031 C 10.992188 7.957031 11.566406 8.539062 11.566406 9.265625 C 11.566406 9.988281 10.992188 10.570312 10.273438 10.570312 Z M 15.0625 7.964844 C 15.773438 7.964844 16.355469 8.546875 16.355469 9.269531 C 16.355469 9.996094 15.78125 10.574219 15.0625 10.574219 C 14.34375 10.574219 13.769531 9.996094 13.769531 9.269531 C 13.769531 8.546875 14.351562 7.964844 15.0625 7.964844 Z M 15.0625 7.964844 " fill-opacity="1" fill-rule="nonzero"/></g><g clip-path="url(#81b8eb30a5)"><path fill="#000000" d="M 26.164062 17.128906 L 17.113281 17.128906 C 13.480469 17.128906 10.527344 20.109375 10.527344 23.773438 C 10.527344 27.4375 13.480469 30.417969 17.113281 30.417969 L 22.851562 30.417969 L 26.878906 34.097656 C 27.0625 34.261719 27.296875 34.351562 27.539062 34.351562 C 27.675781 34.351562 27.804688 34.328125 27.9375 34.265625 C 28.289062 34.109375 28.519531 33.753906 28.519531 33.363281 L 28.519531 29.988281 C 31.046875 29.019531 32.757812 26.566406 32.757812 23.78125 C 32.753906 20.109375 29.792969 17.128906 26.164062 17.128906 Z M 16.800781 25.152344 C 16.089844 25.152344 15.507812 24.570312 15.507812 23.84375 C 15.507812 23.125 16.082031 22.539062 16.800781 22.539062 C 17.519531 22.539062 18.09375 23.121094 18.09375 23.84375 C 18.089844 24.5625 17.511719 25.152344 16.800781 25.152344 Z M 21.585938 25.152344 C 20.871094 25.152344 20.289062 24.570312 20.289062 23.84375 C 20.289062 23.125 20.867188 22.539062 21.585938 22.539062 C 22.304688 22.539062 22.878906 23.121094 22.878906 23.84375 C 22.871094 24.5625 22.296875 25.152344 21.585938 25.152344 Z M 26.367188 25.152344 C 25.65625 25.152344 25.074219 24.570312 25.074219 23.84375 C 25.074219 23.125 25.648438 22.539062 26.367188 22.539062 C 27.085938 22.539062 27.660156 23.121094 27.660156 23.84375 C 27.660156 24.5625 27.082031 25.152344 26.367188 25.152344 Z M 26.367188 25.152344 " fill-opacity="1" fill-rule="nonzero"/></g></svg>