<svg xmlns="http://www.w3.org/2000/svg" xmlns:xlink="http://www.w3.org/1999/xlink" width="50" zoomAndPan="magnify" viewBox="0 0 37.5 37.499999" height="50" preserveAspectRatio="xMidYMid meet" version="1.0"><defs><g/><clipPath id="fc47dfda7c"><path d="M 5.328125 1.363281 L 31.972656 1.363281 L 31.972656 28.011719 L 5.328125 28.011719 Z M 5.328125 1.363281 " clip-rule="nonzero"/></clipPath></defs><g clip-path="url(#fc47dfda7c)"><path fill="#000000" d="M 28.070312 5.265625 C 25.554688 2.75 22.210938 1.363281 18.652344 1.363281 C 15.09375 1.363281 11.746094 2.75 9.230469 5.265625 C 6.714844 7.785156 5.328125 11.128906 5.328125 14.6875 C 5.328125 18.246094 6.714844 21.589844 9.230469 24.109375 C 11.746094 26.625 15.09375 28.011719 18.652344 28.011719 C 22.210938 28.011719 25.554688 26.625 28.070312 24.109375 C 30.589844 21.589844 31.972656 18.246094 31.972656 14.6875 C 31.972656 11.128906 30.585938 7.785156 28.070312 5.265625 Z M 26.621094 23.476562 L 26.621094 23.214844 C 26.621094 20.898438 24.742188 19.023438 22.429688 19.023438 L 15.164062 19.023438 C 12.847656 19.023438 10.972656 20.898438 10.972656 23.214844 L 10.972656 23.730469 C 8.410156 21.550781 6.78125 18.304688 6.78125 14.6875 C 6.78125 8.144531 12.105469 2.820312 18.652344 2.820312 C 25.195312 2.820312 30.519531 8.144531 30.519531 14.6875 C 30.519531 18.167969 29.015625 21.304688 26.621094 23.476562 Z M 26.621094 23.476562 " fill-opacity="1" fill-rule="nonzero"/></g><path fill="#000000" d="M 23.472656 13.066406 C 23.472656 13.382812 23.441406 13.699219 23.378906 14.007812 C 23.316406 14.320312 23.222656 14.625 23.101562 14.917969 C 22.980469 15.210938 22.832031 15.492188 22.65625 15.757812 C 22.476562 16.019531 22.277344 16.265625 22.050781 16.488281 C 21.828125 16.714844 21.582031 16.914062 21.320312 17.09375 C 21.054688 17.269531 20.773438 17.417969 20.480469 17.539062 C 20.1875 17.660156 19.882812 17.753906 19.570312 17.816406 C 19.261719 17.878906 18.945312 17.910156 18.628906 17.910156 C 18.308594 17.910156 17.992188 17.878906 17.683594 17.816406 C 17.371094 17.753906 17.066406 17.660156 16.773438 17.539062 C 16.480469 17.417969 16.199219 17.269531 15.9375 17.09375 C 15.671875 16.914062 15.425781 16.714844 15.203125 16.488281 C 14.976562 16.265625 14.777344 16.019531 14.597656 15.757812 C 14.421875 15.492188 14.273438 15.210938 14.152344 14.917969 C 14.03125 14.625 13.9375 14.320312 13.875 14.007812 C 13.8125 13.699219 13.78125 13.382812 13.78125 13.066406 C 13.78125 12.746094 13.8125 12.429688 13.875 12.121094 C 13.9375 11.808594 14.03125 11.503906 14.152344 11.210938 C 14.273438 10.917969 14.421875 10.636719 14.597656 10.375 C 14.777344 10.109375 14.976562 9.863281 15.203125 9.640625 C 15.425781 9.414062 15.671875 9.214844 15.9375 9.035156 C 16.199219 8.859375 16.480469 8.710938 16.773438 8.589844 C 17.066406 8.46875 17.371094 8.375 17.683594 8.3125 C 17.992188 8.25 18.308594 8.21875 18.628906 8.21875 C 18.945312 8.21875 19.261719 8.25 19.570312 8.3125 C 19.882812 8.375 20.1875 8.46875 20.480469 8.589844 C 20.773438 8.710938 21.054688 8.859375 21.320312 9.035156 C 21.582031 9.214844 21.828125 9.414062 22.050781 9.640625 C 22.277344 9.863281 22.476562 10.109375 22.65625 10.375 C 22.832031 10.636719 22.980469 10.917969 23.101562 11.210938 C 23.222656 11.503906 23.316406 11.808594 23.378906 12.121094 C 23.441406 12.429688 23.472656 12.746094 23.472656 13.066406 Z M 23.472656 13.066406 " fill-opacity="1" fill-rule="nonzero"/><g fill="#000000" fill-opacity="1"><g transform="translate(6.04374, 33.223679)"><g><path d="M 1.84375 0 L 1.25 0 L 1.25 -1.359375 L -0.046875 -3.453125 L 0.59375 -3.453125 L 1.546875 -1.875 L 2.484375 -3.453125 L 3.125 -3.453125 L 1.84375 -1.359375 Z M 1.84375 0 "/></g></g></g><g fill="#000000" fill-opacity="1"><g transform="translate(8.826657, 33.223679)"><g><path d="M 1.015625 -0.6875 C 1.171875 -0.53125 1.367188 -0.453125 1.609375 -0.453125 C 1.847656 -0.453125 2.046875 -0.53125 2.203125 -0.6875 C 2.359375 -0.851562 2.4375 -1.0625 2.4375 -1.3125 C 2.4375 -1.5625 2.359375 -1.765625 2.203125 -1.921875 C 2.046875 -2.085938 1.847656 -2.171875 1.609375 -2.171875 C 1.367188 -2.171875 1.171875 -2.085938 1.015625 -1.921875 C 0.859375 -1.765625 0.78125 -1.5625 0.78125 -1.3125 C 0.78125 -1.0625 0.859375 -0.851562 1.015625 -0.6875 Z M 2.59375 -0.34375 C 2.332031 -0.0820312 2.003906 0.046875 1.609375 0.046875 C 1.210938 0.046875 0.882812 -0.0820312 0.625 -0.34375 C 0.363281 -0.613281 0.234375 -0.9375 0.234375 -1.3125 C 0.234375 -1.6875 0.363281 -2.003906 0.625 -2.265625 C 0.882812 -2.535156 1.210938 -2.671875 1.609375 -2.671875 C 2.003906 -2.671875 2.332031 -2.535156 2.59375 -2.265625 C 2.851562 -2.003906 2.984375 -1.6875 2.984375 -1.3125 C 2.984375 -0.9375 2.851562 -0.613281 2.59375 -0.34375 Z M 2.59375 -0.34375 "/></g></g></g><g fill="#000000" fill-opacity="1"><g transform="translate(12.043784, 33.223679)"><g><path d="M 2.234375 -1.203125 L 2.234375 -2.625 L 2.796875 -2.625 L 2.796875 0 L 2.234375 0 L 2.234375 -0.484375 C 2.148438 -0.316406 2.03125 -0.1875 1.875 -0.09375 C 1.71875 0 1.546875 0.046875 1.359375 0.046875 C 1.066406 0.046875 0.828125 -0.0390625 0.640625 -0.21875 C 0.460938 -0.40625 0.375 -0.671875 0.375 -1.015625 L 0.375 -2.625 L 0.921875 -2.625 L 0.921875 -1.1875 C 0.921875 -0.695312 1.125 -0.453125 1.53125 -0.453125 C 1.71875 -0.453125 1.878906 -0.515625 2.015625 -0.640625 C 2.160156 -0.773438 2.234375 -0.960938 2.234375 -1.203125 Z M 2.234375 -1.203125 "/></g></g></g><g fill="#000000" fill-opacity="1"><g transform="translate(15.23131, 33.223679)"><g><path d="M 1.78125 -2.109375 C 1.507812 -2.109375 1.300781 -2.019531 1.15625 -1.84375 C 1.019531 -1.664062 0.953125 -1.425781 0.953125 -1.125 L 0.953125 0 L 0.40625 0 L 0.40625 -2.625 L 0.953125 -2.625 L 0.953125 -2.09375 C 1.046875 -2.257812 1.164062 -2.394531 1.3125 -2.5 C 1.46875 -2.601562 1.628906 -2.660156 1.796875 -2.671875 L 1.8125 -2.109375 C 1.800781 -2.109375 1.789062 -2.109375 1.78125 -2.109375 Z M 1.78125 -2.109375 "/></g></g></g><g fill="#000000" fill-opacity="1"><g transform="translate(17.190208, 33.223679)"><g/></g></g><g fill="#000000" fill-opacity="1"><g transform="translate(18.542192, 33.223679)"><g><path d="M 0.484375 0 L 0.484375 -3.453125 L 1.0625 -3.453125 L 1.0625 -0.546875 L 2.640625 -0.546875 L 2.640625 0 Z M 0.484375 0 "/></g></g></g><g fill="#000000" fill-opacity="1"><g transform="translate(21.29057, 33.223679)"><g><path d="M 1.015625 -0.6875 C 1.171875 -0.53125 1.367188 -0.453125 1.609375 -0.453125 C 1.847656 -0.453125 2.046875 -0.53125 2.203125 -0.6875 C 2.359375 -0.851562 2.4375 -1.0625 2.4375 -1.3125 C 2.4375 -1.5625 2.359375 -1.765625 2.203125 -1.921875 C 2.046875 -2.085938 1.847656 -2.171875 1.609375 -2.171875 C 1.367188 -2.171875 1.171875 -2.085938 1.015625 -1.921875 C 0.859375 -1.765625 0.78125 -1.5625 0.78125 -1.3125 C 0.78125 -1.0625 0.859375 -0.851562 1.015625 -0.6875 Z M 2.59375 -0.34375 C 2.332031 -0.0820312 2.003906 0.046875 1.609375 0.046875 C 1.210938 0.046875 0.882812 -0.0820312 0.625 -0.34375 C 0.363281 -0.613281 0.234375 -0.9375 0.234375 -1.3125 C 0.234375 -1.6875 0.363281 -2.003906 0.625 -2.265625 C 0.882812 -2.535156 1.210938 -2.671875 1.609375 -2.671875 C 2.003906 -2.671875 2.332031 -2.535156 2.59375 -2.265625 C 2.851562 -2.003906 2.984375 -1.6875 2.984375 -1.3125 C 2.984375 -0.9375 2.851562 -0.613281 2.59375 -0.34375 Z M 2.59375 -0.34375 "/></g></g></g><g fill="#000000" fill-opacity="1"><g transform="translate(24.507697, 33.223679)"><g><path d="M 2.828125 -2.625 L 2.828125 -0.328125 C 2.828125 0.128906 2.703125 0.472656 2.453125 0.703125 C 2.203125 0.941406 1.878906 1.0625 1.484375 1.0625 C 1.085938 1.0625 0.726562 0.9375 0.40625 0.6875 L 0.671875 0.265625 C 0.929688 0.460938 1.191406 0.5625 1.453125 0.5625 C 1.710938 0.5625 1.914062 0.492188 2.0625 0.359375 C 2.21875 0.222656 2.296875 0.00390625 2.296875 -0.296875 L 2.296875 -0.625 C 2.210938 -0.46875 2.09375 -0.34375 1.9375 -0.25 C 1.789062 -0.164062 1.625 -0.125 1.4375 -0.125 C 1.082031 -0.125 0.789062 -0.242188 0.5625 -0.484375 C 0.34375 -0.722656 0.234375 -1.023438 0.234375 -1.390625 C 0.234375 -1.753906 0.34375 -2.054688 0.5625 -2.296875 C 0.789062 -2.546875 1.078125 -2.671875 1.421875 -2.671875 C 1.773438 -2.671875 2.0625 -2.523438 2.28125 -2.234375 L 2.28125 -2.625 Z M 0.78125 -1.40625 C 0.78125 -1.195312 0.847656 -1.015625 0.984375 -0.859375 C 1.117188 -0.703125 1.296875 -0.625 1.515625 -0.625 C 1.742188 -0.625 1.925781 -0.695312 2.0625 -0.84375 C 2.207031 -1 2.28125 -1.1875 2.28125 -1.40625 C 2.28125 -1.632812 2.207031 -1.828125 2.0625 -1.984375 C 1.914062 -2.140625 1.734375 -2.21875 1.515625 -2.21875 C 1.296875 -2.21875 1.117188 -2.132812 0.984375 -1.96875 C 0.847656 -1.8125 0.78125 -1.625 0.78125 -1.40625 Z M 0.78125 -1.40625 "/></g></g></g><g fill="#000000" fill-opacity="1"><g transform="translate(27.734694, 33.223679)"><g><path d="M 1.015625 -0.6875 C 1.171875 -0.53125 1.367188 -0.453125 1.609375 -0.453125 C 1.847656 -0.453125 2.046875 -0.53125 2.203125 -0.6875 C 2.359375 -0.851562 2.4375 -1.0625 2.4375 -1.3125 C 2.4375 -1.5625 2.359375 -1.765625 2.203125 -1.921875 C 2.046875 -2.085938 1.847656 -2.171875 1.609375 -2.171875 C 1.367188 -2.171875 1.171875 -2.085938 1.015625 -1.921875 C 0.859375 -1.765625 0.78125 -1.5625 0.78125 -1.3125 C 0.78125 -1.0625 0.859375 -0.851562 1.015625 -0.6875 Z M 2.59375 -0.34375 C 2.332031 -0.0820312 2.003906 0.046875 1.609375 0.046875 C 1.210938 0.046875 0.882812 -0.0820312 0.625 -0.34375 C 0.363281 -0.613281 0.234375 -0.9375 0.234375 -1.3125 C 0.234375 -1.6875 0.363281 -2.003906 0.625 -2.265625 C 0.882812 -2.535156 1.210938 -2.671875 1.609375 -2.671875 C 2.003906 -2.671875 2.332031 -2.535156 2.59375 -2.265625 C 2.851562 -2.003906 2.984375 -1.6875 2.984375 -1.3125 C 2.984375 -0.9375 2.851562 -0.613281 2.59375 -0.34375 Z M 2.59375 -0.34375 "/></g></g></g></svg>