<svg xmlns="http://www.w3.org/2000/svg" xmlns:xlink="http://www.w3.org/1999/xlink" width="50" zoomAndPan="magnify" viewBox="0 0 37.5 37.499999" height="50" preserveAspectRatio="xMidYMid meet" version="1.0"><defs><clipPath id="b7fac51e98"><path d="M 8.078125 5.097656 L 28.804688 5.097656 L 28.804688 31.742188 L 8.078125 31.742188 Z M 8.078125 5.097656 " clip-rule="nonzero"/></clipPath></defs><g clip-path="url(#b7fac51e98)"><path fill="#000000" d="M 19.359375 9.539062 L 19.636719 5.359375 C 19.640625 5.285156 19.621094 5.230469 19.570312 5.175781 C 19.519531 5.121094 19.464844 5.097656 19.394531 5.097656 L 17.488281 5.097656 C 17.414062 5.097656 17.359375 5.121094 17.308594 5.175781 C 17.261719 5.230469 17.238281 5.285156 17.246094 5.359375 L 17.523438 9.539062 C 17.535156 9.734375 17.390625 9.898438 17.199219 9.914062 C 17.007812 9.925781 16.839844 9.78125 16.824219 9.585938 L 16.609375 6.351562 C 14.136719 7.105469 12.371094 9.296875 12.167969 11.875 L 14.605469 11.875 L 14.605469 8.585938 C 14.605469 8.394531 14.761719 8.238281 14.953125 8.238281 C 15.144531 8.238281 15.300781 8.394531 15.300781 8.585938 L 15.300781 11.875 L 21.582031 11.875 L 21.582031 8.585938 C 21.582031 8.394531 21.738281 8.238281 21.929688 8.238281 C 22.121094 8.238281 22.277344 8.394531 22.277344 8.585938 L 22.277344 11.875 L 24.714844 11.875 C 24.511719 9.296875 22.746094 7.105469 20.269531 6.351562 L 20.054688 9.585938 C 20.042969 9.773438 19.890625 9.914062 19.707031 9.914062 C 19.699219 9.914062 19.691406 9.914062 19.683594 9.914062 C 19.492188 9.898438 19.347656 9.734375 19.359375 9.539062 Z M 22.652344 29.480469 L 14.230469 29.480469 L 14.230469 31.742188 L 22.652344 31.742188 Z M 25.394531 23 L 25.394531 31.742188 L 28.792969 31.742188 L 28.300781 26.34375 C 28.148438 24.675781 26.957031 23.359375 25.394531 23 Z M 11.488281 31.742188 L 11.488281 23 C 9.925781 23.359375 8.734375 24.675781 8.582031 26.34375 L 8.089844 31.742188 Z M 16.628906 27.667969 L 20.253906 27.667969 C 22.019531 27.667969 23.453125 26.234375 23.453125 24.46875 L 23.453125 22.898438 L 24.527344 22.898438 C 24.582031 22.898438 24.640625 22.902344 24.695312 22.902344 L 24.695312 31.742188 L 23.351562 31.742188 L 23.351562 29.132812 C 23.351562 28.9375 23.195312 28.78125 23.003906 28.78125 L 13.878906 28.78125 C 13.6875 28.78125 13.53125 28.9375 13.53125 29.132812 L 13.53125 31.742188 L 12.1875 31.742188 L 12.1875 22.902344 C 12.242188 22.902344 12.300781 22.898438 12.355469 22.898438 L 13.429688 22.898438 L 13.429688 24.46875 C 13.429688 26.234375 14.863281 27.667969 16.628906 27.667969 Z M 18.082031 24.484375 C 16.894531 24.484375 15.792969 23.875 15.15625 22.878906 C 15.054688 22.890625 14.953125 22.898438 14.847656 22.898438 L 14.125 22.898438 L 14.125 24.46875 C 14.125 25.847656 15.25 26.972656 16.628906 26.972656 L 20.253906 26.972656 C 21.632812 26.972656 22.753906 25.847656 22.753906 24.46875 L 22.753906 22.898438 L 22.035156 22.898438 C 21.945312 22.898438 21.859375 22.894531 21.773438 22.886719 C 21.132812 23.878906 20.035156 24.484375 18.847656 24.484375 Z M 20.992188 22.652344 C 20.09375 22.203125 19.78125 21.5625 19.667969 20.972656 C 19.273438 21.074219 18.863281 21.128906 18.441406 21.128906 C 18.019531 21.128906 17.605469 21.074219 17.214844 20.972656 C 17.097656 21.5625 16.789062 22.203125 15.890625 22.652344 C 15.878906 22.660156 15.867188 22.664062 15.859375 22.667969 C 16.378906 23.367188 17.203125 23.789062 18.082031 23.789062 L 18.847656 23.789062 C 19.722656 23.789062 20.535156 23.375 21.058594 22.683594 C 21.035156 22.675781 21.015625 22.664062 20.992188 22.652344 Z M 23.320312 14.488281 L 23.320312 15.546875 L 23.328125 15.546875 C 23.742188 15.546875 24.078125 15.210938 24.078125 14.800781 C 24.078125 14.691406 24.050781 14.585938 24.007812 14.488281 Z M 14.261719 14.488281 L 14.261719 16.25 C 14.261719 18.554688 16.136719 20.429688 18.441406 20.429688 C 20.746094 20.429688 22.621094 18.554688 22.621094 16.25 L 22.621094 14.488281 Z M 13.5625 15.546875 L 13.5625 14.488281 L 12.875 14.488281 C 12.828125 14.585938 12.804688 14.691406 12.804688 14.800781 C 12.804688 15.210938 13.140625 15.546875 13.554688 15.546875 Z M 25.085938 12.570312 L 11.796875 12.570312 C 11.675781 12.570312 11.574219 12.675781 11.574219 12.796875 L 11.574219 13.566406 C 11.574219 13.6875 11.675781 13.792969 11.796875 13.792969 L 25.085938 13.792969 C 25.207031 13.792969 25.308594 13.6875 25.308594 13.566406 L 25.308594 12.796875 C 25.308594 12.675781 25.207031 12.570312 25.085938 12.570312 Z M 25.085938 12.570312 " fill-opacity="1" fill-rule="evenodd"/></g></svg>