<svg xmlns="http://www.w3.org/2000/svg" xmlns:xlink="http://www.w3.org/1999/xlink" width="50" zoomAndPan="magnify" viewBox="0 0 37.5 37.499999" height="50" preserveAspectRatio="xMidYMid meet" version="1.0"><defs><g/><clipPath id="af9b4f5e63"><path d="M 9.472656 2.433594 L 27.238281 2.433594 L 27.238281 25.375 L 9.472656 25.375 Z M 9.472656 2.433594 " clip-rule="nonzero"/></clipPath></defs><g clip-path="url(#af9b4f5e63)"><path fill="#000000" d="M 19.140625 6.257812 L 19.378906 2.65625 C 19.386719 2.59375 19.367188 2.546875 19.324219 2.5 C 19.28125 2.453125 19.234375 2.433594 19.171875 2.433594 L 17.539062 2.433594 C 17.476562 2.433594 17.429688 2.453125 17.386719 2.5 C 17.34375 2.546875 17.324219 2.59375 17.328125 2.65625 L 17.566406 6.257812 C 17.578125 6.425781 17.453125 6.566406 17.289062 6.578125 C 17.125 6.589844 16.980469 6.464844 16.96875 6.300781 L 16.785156 3.515625 C 14.664062 4.164062 13.152344 6.050781 12.976562 8.265625 L 15.066406 8.265625 L 15.066406 5.4375 C 15.066406 5.269531 15.199219 5.136719 15.363281 5.136719 C 15.53125 5.136719 15.664062 5.269531 15.664062 5.4375 L 15.664062 8.265625 L 21.046875 8.265625 L 21.046875 5.4375 C 21.046875 5.269531 21.179688 5.136719 21.34375 5.136719 C 21.511719 5.136719 21.644531 5.269531 21.644531 5.4375 L 21.644531 8.265625 L 23.734375 8.265625 C 23.558594 6.050781 22.042969 4.164062 19.921875 3.515625 L 19.738281 6.300781 C 19.730469 6.457031 19.597656 6.578125 19.441406 6.578125 C 19.433594 6.578125 19.425781 6.578125 19.421875 6.578125 C 19.257812 6.566406 19.132812 6.425781 19.140625 6.257812 Z M 21.964844 23.429688 L 14.746094 23.429688 L 14.746094 25.375 L 21.964844 25.375 Z M 24.3125 17.847656 L 24.3125 25.375 L 27.230469 25.375 L 26.804688 20.726562 C 26.675781 19.292969 25.652344 18.15625 24.3125 17.847656 Z M 12.394531 25.375 L 12.394531 17.847656 C 11.054688 18.15625 10.035156 19.292969 9.902344 20.726562 L 9.480469 25.375 Z M 16.800781 21.871094 L 19.90625 21.871094 C 21.421875 21.871094 22.652344 20.632812 22.652344 19.113281 L 22.652344 17.761719 L 23.570312 17.761719 C 23.617188 17.761719 23.667969 17.761719 23.714844 17.765625 L 23.714844 25.375 L 22.5625 25.375 L 22.5625 23.128906 C 22.5625 22.964844 22.429688 22.828125 22.265625 22.828125 L 14.445312 22.828125 C 14.28125 22.828125 14.144531 22.964844 14.144531 23.128906 L 14.144531 25.375 L 12.996094 25.375 L 12.996094 17.765625 C 13.042969 17.761719 13.089844 17.761719 13.140625 17.761719 L 14.058594 17.761719 L 14.058594 19.113281 C 14.058594 20.632812 15.289062 21.871094 16.800781 21.871094 Z M 18.046875 19.128906 C 17.027344 19.128906 16.085938 18.605469 15.539062 17.746094 C 15.453125 17.757812 15.367188 17.761719 15.277344 17.761719 L 14.65625 17.761719 L 14.65625 19.113281 C 14.65625 20.300781 15.617188 21.269531 16.800781 21.269531 L 19.90625 21.269531 C 21.089844 21.269531 22.054688 20.300781 22.054688 19.113281 L 22.054688 17.761719 L 21.433594 17.761719 C 21.359375 17.761719 21.285156 17.757812 21.210938 17.75 C 20.664062 18.605469 19.71875 19.128906 18.703125 19.128906 Z M 20.539062 17.550781 C 19.769531 17.164062 19.503906 16.609375 19.40625 16.101562 C 19.070312 16.191406 18.71875 16.238281 18.355469 16.238281 C 17.992188 16.238281 17.640625 16.191406 17.304688 16.101562 C 17.203125 16.609375 16.9375 17.164062 16.167969 17.550781 C 16.160156 17.554688 16.148438 17.558594 16.140625 17.5625 C 16.589844 18.164062 17.292969 18.527344 18.046875 18.527344 L 18.703125 18.527344 C 19.453125 18.527344 20.152344 18.171875 20.601562 17.578125 C 20.582031 17.570312 20.558594 17.558594 20.539062 17.550781 Z M 22.535156 10.519531 L 22.535156 11.429688 L 22.542969 11.429688 C 22.898438 11.429688 23.183594 11.140625 23.183594 10.789062 C 23.183594 10.695312 23.164062 10.605469 23.125 10.519531 Z M 14.773438 10.519531 L 14.773438 12.039062 C 14.773438 14.019531 16.378906 15.636719 18.355469 15.636719 C 20.332031 15.636719 21.9375 14.019531 21.9375 12.039062 L 21.9375 10.519531 Z M 14.171875 11.429688 L 14.171875 10.519531 L 13.582031 10.519531 C 13.546875 10.605469 13.523438 10.695312 13.523438 10.789062 C 13.523438 11.140625 13.8125 11.429688 14.164062 11.429688 Z M 24.050781 8.867188 L 12.660156 8.867188 C 12.554688 8.867188 12.46875 8.957031 12.46875 9.0625 L 12.46875 9.726562 C 12.46875 9.832031 12.554688 9.917969 12.660156 9.917969 L 24.050781 9.917969 C 24.152344 9.917969 24.242188 9.832031 24.242188 9.726562 L 24.242188 9.0625 C 24.242188 8.957031 24.152344 8.867188 24.050781 8.867188 Z M 24.050781 8.867188 " fill-opacity="1" fill-rule="evenodd"/></g><g fill="#000000" fill-opacity="1"><g transform="translate(7.971475, 32.113857)"><g><path d="M 3.28125 -0.84375 C 3.601562 -0.84375 3.878906 -0.894531 4.109375 -1 C 4.347656 -1.113281 4.59375 -1.289062 4.84375 -1.53125 L 5.453125 -0.90625 C 4.859375 -0.257812 4.144531 0.0625 3.3125 0.0625 C 2.476562 0.0625 1.785156 -0.203125 1.234375 -0.734375 C 0.679688 -1.273438 0.40625 -1.957031 0.40625 -2.78125 C 0.40625 -3.601562 0.6875 -4.285156 1.25 -4.828125 C 1.8125 -5.378906 2.519531 -5.65625 3.375 -5.65625 C 4.238281 -5.65625 4.957031 -5.34375 5.53125 -4.71875 L 4.9375 -4.0625 C 4.664062 -4.3125 4.410156 -4.488281 4.171875 -4.59375 C 3.941406 -4.695312 3.671875 -4.75 3.359375 -4.75 C 2.796875 -4.75 2.328125 -4.566406 1.953125 -4.203125 C 1.578125 -3.835938 1.390625 -3.375 1.390625 -2.8125 C 1.390625 -2.25 1.578125 -1.78125 1.953125 -1.40625 C 2.328125 -1.03125 2.769531 -0.84375 3.28125 -0.84375 Z M 3.28125 -0.84375 "/></g></g></g><g fill="#000000" fill-opacity="1"><g transform="translate(13.78827, 32.113857)"><g><path d="M 2.84375 -3.375 C 2.40625 -3.375 2.078125 -3.226562 1.859375 -2.9375 C 1.640625 -2.65625 1.53125 -2.273438 1.53125 -1.796875 L 1.53125 0 L 0.640625 0 L 0.640625 -4.203125 L 1.53125 -4.203125 L 1.53125 -3.359375 C 1.664062 -3.617188 1.851562 -3.832031 2.09375 -4 C 2.34375 -4.175781 2.609375 -4.265625 2.890625 -4.265625 L 2.890625 -3.375 C 2.878906 -3.375 2.863281 -3.375 2.84375 -3.375 Z M 2.84375 -3.375 "/></g></g></g><g fill="#000000" fill-opacity="1"><g transform="translate(16.925865, 32.113857)"><g><path d="M 4.546875 -1.71875 L 1.25 -1.71875 C 1.269531 -1.40625 1.410156 -1.15625 1.671875 -0.96875 C 1.929688 -0.789062 2.226562 -0.703125 2.5625 -0.703125 C 3.09375 -0.703125 3.492188 -0.863281 3.765625 -1.1875 L 4.265625 -0.640625 C 3.816406 -0.171875 3.226562 0.0625 2.5 0.0625 C 1.90625 0.0625 1.398438 -0.128906 0.984375 -0.515625 C 0.578125 -0.910156 0.375 -1.4375 0.375 -2.09375 C 0.375 -2.757812 0.582031 -3.285156 1 -3.671875 C 1.425781 -4.066406 1.925781 -4.265625 2.5 -4.265625 C 3.070312 -4.265625 3.554688 -4.09375 3.953125 -3.75 C 4.347656 -3.40625 4.546875 -2.929688 4.546875 -2.328125 Z M 1.25 -2.40625 L 3.671875 -2.40625 C 3.671875 -2.757812 3.554688 -3.03125 3.328125 -3.21875 C 3.109375 -3.414062 2.835938 -3.515625 2.515625 -3.515625 C 2.191406 -3.515625 1.898438 -3.414062 1.640625 -3.21875 C 1.378906 -3.019531 1.25 -2.75 1.25 -2.40625 Z M 1.25 -2.40625 "/></g></g></g><g fill="#000000" fill-opacity="1"><g transform="translate(21.810072, 32.113857)"><g><path d="M 2.609375 0 L 1.59375 0 L 0.140625 -4.203125 L 1.0625 -4.203125 L 2.109375 -1.03125 L 3.140625 -4.203125 L 4.0625 -4.203125 L 5.109375 -1.03125 L 6.15625 -4.203125 L 7.0625 -4.203125 L 5.609375 0 L 4.59375 0 L 3.609375 -2.875 Z M 2.609375 0 "/></g></g></g></svg>