<svg xmlns="http://www.w3.org/2000/svg" xmlns:xlink="http://www.w3.org/1999/xlink" width="50" zoomAndPan="magnify" viewBox="0 0 37.5 37.499999" height="50" preserveAspectRatio="xMidYMid meet" version="1.0"><defs><clipPath id="b30265442f"><path d="M 15 10.710938 L 30 10.710938 L 30 18 L 15 18 Z M 15 10.710938 " clip-rule="nonzero"/></clipPath><clipPath id="73f3b68483"><path d="M 1.375 10.710938 L 16 10.710938 L 16 26.253906 L 1.375 26.253906 Z M 1.375 10.710938 " clip-rule="nonzero"/></clipPath><clipPath id="f7abeb2f47"><path d="M 8 13 L 35.421875 13 L 35.421875 25 L 8 25 Z M 8 13 " clip-rule="nonzero"/></clipPath></defs><g clip-path="url(#b30265442f)"><path fill="#ff914d" d="M 16.683594 10.710938 L 28.328125 10.710938 C 28.539062 10.710938 28.714844 10.78125 28.859375 10.929688 C 29.007812 11.078125 29.082031 11.253906 29.082031 11.460938 L 29.082031 16.34375 C 29.082031 16.550781 29.007812 16.730469 28.859375 16.875 C 28.714844 17.023438 28.539062 17.097656 28.328125 17.097656 L 16.683594 17.097656 C 16.476562 17.097656 16.300781 17.023438 16.152344 16.875 C 16.007812 16.730469 15.933594 16.550781 15.933594 16.34375 L 15.933594 11.460938 C 15.933594 11.253906 16.007812 11.078125 16.152344 10.929688 C 16.300781 10.78125 16.476562 10.710938 16.683594 10.710938 Z M 16.683594 10.710938 " fill-opacity="1" fill-rule="nonzero"/></g><g clip-path="url(#73f3b68483)"><path stroke-linecap="butt" transform="matrix(0.0250441, 0, 0, 0.0250441, 1.447297, 10.709461)" fill="none" stroke-linejoin="miter" d="M 499.975352 513.995287 C 463.00937 556.73233 414.033342 587.303353 359.286255 601.808992 C 304.695141 616.314631 246.984536 613.975011 193.64122 595.102084 C 140.297903 576.385131 93.81747 541.914742 60.438903 496.370156 C 26.904362 450.82557 7.87546 396.234457 5.84779 339.771648 C 3.82012 283.152865 18.949657 227.46993 49.052757 179.585725 C 79.155856 131.70152 122.984722 94.111639 174.768292 71.49532 C 226.707837 48.879002 284.106493 42.484043 339.633454 53.090317 C 395.160415 63.540615 446.320087 90.524223 486.249587 130.609697 " stroke="#000000" stroke-width="11.375" stroke-opacity="1" stroke-miterlimit="4"/></g><g clip-path="url(#f7abeb2f47)"><path fill="#000000" d="M 8.269531 13.582031 L 30.222656 13.582031 C 33.195312 13.582031 35.601562 15.988281 35.601562 18.960938 C 35.601562 21.933594 33.195312 24.34375 30.222656 24.34375 L 8.269531 24.34375 Z M 8.269531 13.582031 " fill-opacity="1" fill-rule="nonzero"/></g><path fill="#000000" d="M 15.066406 18.960938 C 15.066406 19.382812 15.023438 19.800781 14.941406 20.214844 C 14.859375 20.628906 14.738281 21.03125 14.574219 21.417969 C 14.414062 21.808594 14.214844 22.179688 13.980469 22.53125 C 13.746094 22.882812 13.480469 23.207031 13.183594 23.503906 C 12.886719 23.800781 12.5625 24.070312 12.210938 24.304688 C 11.859375 24.535156 11.488281 24.734375 11.097656 24.894531 C 10.710938 25.058594 10.308594 25.179688 9.894531 25.261719 C 9.480469 25.34375 9.0625 25.386719 8.640625 25.386719 C 8.21875 25.386719 7.800781 25.34375 7.386719 25.261719 C 6.972656 25.179688 6.574219 25.058594 6.183594 24.894531 C 5.792969 24.734375 5.421875 24.535156 5.070312 24.304688 C 4.722656 24.070312 4.398438 23.800781 4.097656 23.503906 C 3.800781 23.207031 3.535156 22.882812 3.300781 22.53125 C 3.066406 22.179688 2.867188 21.808594 2.707031 21.417969 C 2.542969 21.03125 2.421875 20.628906 2.339844 20.214844 C 2.257812 19.800781 2.21875 19.382812 2.21875 18.960938 C 2.21875 18.539062 2.257812 18.121094 2.339844 17.707031 C 2.421875 17.292969 2.542969 16.894531 2.707031 16.503906 C 2.867188 16.113281 3.066406 15.742188 3.300781 15.394531 C 3.535156 15.042969 3.800781 14.71875 4.097656 14.417969 C 4.398438 14.121094 4.722656 13.855469 5.070312 13.621094 C 5.421875 13.386719 5.792969 13.1875 6.183594 13.027344 C 6.574219 12.867188 6.972656 12.742188 7.386719 12.660156 C 7.800781 12.578125 8.21875 12.539062 8.640625 12.539062 C 9.0625 12.539062 9.480469 12.578125 9.894531 12.660156 C 10.308594 12.742188 10.710938 12.867188 11.097656 13.027344 C 11.488281 13.1875 11.859375 13.386719 12.210938 13.621094 C 12.5625 13.855469 12.886719 14.121094 13.183594 14.417969 C 13.480469 14.71875 13.746094 15.042969 13.980469 15.394531 C 14.214844 15.742188 14.414062 16.113281 14.574219 16.503906 C 14.738281 16.894531 14.859375 17.292969 14.941406 17.707031 C 15.023438 18.121094 15.066406 18.539062 15.066406 18.960938 Z M 15.066406 18.960938 " fill-opacity="1" fill-rule="nonzero"/><path fill="#ff914d" d="M 15.800781 16.324219 C 15.953125 16.324219 16.085938 16.351562 16.195312 16.410156 C 16.308594 16.464844 16.394531 16.546875 16.453125 16.652344 C 16.511719 16.753906 16.542969 16.878906 16.542969 17.023438 C 16.542969 17.164062 16.511719 17.289062 16.453125 17.394531 C 16.394531 17.496094 16.308594 17.578125 16.195312 17.632812 C 16.085938 17.6875 15.953125 17.714844 15.800781 17.714844 L 15.367188 17.714844 L 15.367188 16.324219 Z M 15.800781 17.566406 C 15.980469 17.566406 16.117188 17.519531 16.214844 17.425781 C 16.308594 17.328125 16.355469 17.195312 16.355469 17.023438 C 16.355469 16.847656 16.308594 16.714844 16.210938 16.617188 C 16.117188 16.519531 15.980469 16.46875 15.800781 16.46875 L 15.550781 16.46875 L 15.550781 17.566406 Z M 17.257812 17.734375 C 17.15625 17.734375 17.0625 17.710938 16.980469 17.664062 C 16.898438 17.617188 16.832031 17.550781 16.785156 17.464844 C 16.738281 17.378906 16.714844 17.28125 16.714844 17.167969 C 16.714844 17.054688 16.738281 16.957031 16.785156 16.871094 C 16.835938 16.785156 16.902344 16.71875 16.984375 16.671875 C 17.070312 16.625 17.164062 16.601562 17.265625 16.601562 C 17.371094 16.601562 17.464844 16.625 17.546875 16.671875 C 17.632812 16.71875 17.699219 16.78125 17.746094 16.867188 C 17.796875 16.953125 17.820312 17.054688 17.820312 17.167969 C 17.820312 17.28125 17.796875 17.378906 17.746094 17.464844 C 17.695312 17.550781 17.628906 17.617188 17.542969 17.664062 C 17.457031 17.710938 17.363281 17.734375 17.257812 17.734375 Z M 17.257812 17.574219 C 17.324219 17.574219 17.386719 17.558594 17.441406 17.527344 C 17.5 17.496094 17.546875 17.453125 17.582031 17.390625 C 17.617188 17.328125 17.632812 17.253906 17.632812 17.167969 C 17.632812 17.078125 17.617188 17.003906 17.582031 16.941406 C 17.546875 16.882812 17.503906 16.835938 17.445312 16.804688 C 17.390625 16.777344 17.332031 16.761719 17.265625 16.761719 C 17.199219 16.761719 17.136719 16.777344 17.082031 16.804688 C 17.027344 16.835938 16.984375 16.882812 16.949219 16.941406 C 16.914062 17.003906 16.898438 17.078125 16.898438 17.167969 C 16.898438 17.253906 16.914062 17.332031 16.945312 17.390625 C 16.980469 17.453125 17.023438 17.5 17.078125 17.53125 C 17.132812 17.558594 17.195312 17.574219 17.257812 17.574219 Z M 19.519531 16.621094 L 19.175781 17.714844 L 18.988281 17.714844 L 18.726562 16.847656 L 18.460938 17.714844 L 18.273438 17.714844 L 17.929688 16.621094 L 18.117188 16.621094 L 18.367188 17.539062 L 18.640625 16.621094 L 18.824219 16.621094 L 19.089844 17.542969 L 19.339844 16.621094 Z M 20.234375 16.601562 C 20.367188 16.601562 20.472656 16.640625 20.558594 16.722656 C 20.640625 16.800781 20.679688 16.917969 20.679688 17.070312 L 20.679688 17.714844 L 20.5 17.714844 L 20.5 17.097656 C 20.5 16.988281 20.472656 16.902344 20.417969 16.847656 C 20.363281 16.789062 20.289062 16.757812 20.195312 16.757812 C 20.097656 16.757812 20.023438 16.789062 19.964844 16.847656 C 19.910156 16.910156 19.882812 16.996094 19.882812 17.109375 L 19.882812 17.714844 L 19.699219 17.714844 L 19.699219 16.621094 L 19.882812 16.621094 L 19.882812 16.777344 C 19.917969 16.71875 19.964844 16.675781 20.027344 16.648438 C 20.089844 16.617188 20.160156 16.601562 20.234375 16.601562 Z M 21.160156 16.238281 L 21.160156 17.714844 L 20.976562 17.714844 L 20.976562 16.238281 Z M 21.949219 17.734375 C 21.84375 17.734375 21.75 17.710938 21.667969 17.664062 C 21.585938 17.617188 21.519531 17.550781 21.472656 17.464844 C 21.425781 17.378906 21.402344 17.28125 21.402344 17.167969 C 21.402344 17.054688 21.425781 16.957031 21.472656 16.871094 C 21.523438 16.785156 21.589844 16.71875 21.671875 16.671875 C 21.757812 16.625 21.851562 16.601562 21.957031 16.601562 C 22.058594 16.601562 22.152344 16.625 22.238281 16.671875 C 22.320312 16.71875 22.386719 16.78125 22.433594 16.867188 C 22.484375 16.953125 22.507812 17.054688 22.507812 17.167969 C 22.507812 17.28125 22.484375 17.378906 22.433594 17.464844 C 22.382812 17.550781 22.316406 17.617188 22.230469 17.664062 C 22.144531 17.710938 22.050781 17.734375 21.949219 17.734375 Z M 21.949219 17.574219 C 22.011719 17.574219 22.074219 17.558594 22.132812 17.527344 C 22.1875 17.496094 22.234375 17.453125 22.269531 17.390625 C 22.304688 17.328125 22.324219 17.253906 22.324219 17.167969 C 22.324219 17.078125 22.304688 17.003906 22.269531 16.941406 C 22.238281 16.882812 22.191406 16.835938 22.136719 16.804688 C 22.078125 16.777344 22.019531 16.761719 21.953125 16.761719 C 21.886719 16.761719 21.824219 16.777344 21.769531 16.804688 C 21.714844 16.835938 21.671875 16.882812 21.636719 16.941406 C 21.605469 17.003906 21.585938 17.078125 21.585938 17.167969 C 21.585938 17.253906 21.605469 17.332031 21.636719 17.390625 C 21.667969 17.453125 21.714844 17.5 21.765625 17.53125 C 21.820312 17.558594 21.882812 17.574219 21.949219 17.574219 Z M 22.679688 17.164062 C 22.679688 17.050781 22.703125 16.953125 22.75 16.871094 C 22.792969 16.785156 22.855469 16.71875 22.933594 16.671875 C 23.015625 16.625 23.101562 16.601562 23.199219 16.601562 C 23.296875 16.601562 23.378906 16.625 23.449219 16.664062 C 23.519531 16.707031 23.574219 16.757812 23.609375 16.820312 L 23.609375 16.621094 L 23.792969 16.621094 L 23.792969 17.714844 L 23.609375 17.714844 L 23.609375 17.511719 C 23.570312 17.574219 23.519531 17.628906 23.445312 17.671875 C 23.375 17.714844 23.292969 17.734375 23.199219 17.734375 C 23.101562 17.734375 23.011719 17.710938 22.933594 17.660156 C 22.855469 17.613281 22.792969 17.546875 22.75 17.460938 C 22.703125 17.375 22.679688 17.273438 22.679688 17.164062 Z M 23.609375 17.167969 C 23.609375 17.082031 23.589844 17.011719 23.558594 16.949219 C 23.523438 16.890625 23.480469 16.84375 23.421875 16.808594 C 23.367188 16.777344 23.304688 16.761719 23.234375 16.761719 C 23.167969 16.761719 23.105469 16.777344 23.050781 16.808594 C 22.992188 16.839844 22.949219 16.886719 22.917969 16.949219 C 22.882812 17.007812 22.867188 17.082031 22.867188 17.164062 C 22.867188 17.25 22.882812 17.320312 22.917969 17.382812 C 22.949219 17.445312 22.992188 17.492188 23.050781 17.527344 C 23.105469 17.558594 23.167969 17.574219 23.234375 17.574219 C 23.304688 17.574219 23.367188 17.558594 23.421875 17.527344 C 23.480469 17.492188 23.523438 17.445312 23.558594 17.382812 C 23.589844 17.320312 23.609375 17.25 23.609375 17.167969 Z M 24.03125 17.164062 C 24.03125 17.050781 24.054688 16.953125 24.097656 16.871094 C 24.144531 16.785156 24.207031 16.71875 24.285156 16.671875 C 24.363281 16.625 24.453125 16.601562 24.550781 16.601562 C 24.636719 16.601562 24.71875 16.621094 24.789062 16.664062 C 24.863281 16.703125 24.917969 16.753906 24.957031 16.816406 L 24.957031 16.238281 L 25.140625 16.238281 L 25.140625 17.714844 L 24.957031 17.714844 L 24.957031 17.511719 C 24.921875 17.574219 24.867188 17.628906 24.796875 17.671875 C 24.726562 17.714844 24.644531 17.734375 24.550781 17.734375 C 24.453125 17.734375 24.363281 17.710938 24.285156 17.660156 C 24.207031 17.613281 24.144531 17.546875 24.097656 17.460938 C 24.054688 17.375 24.03125 17.273438 24.03125 17.164062 Z M 24.957031 17.167969 C 24.957031 17.082031 24.941406 17.011719 24.910156 16.949219 C 24.875 16.890625 24.828125 16.84375 24.773438 16.808594 C 24.714844 16.777344 24.65625 16.761719 24.585938 16.761719 C 24.519531 16.761719 24.457031 16.777344 24.402344 16.808594 C 24.34375 16.839844 24.300781 16.886719 24.265625 16.949219 C 24.234375 17.007812 24.21875 17.082031 24.21875 17.164062 C 24.21875 17.25 24.234375 17.320312 24.265625 17.382812 C 24.300781 17.445312 24.34375 17.492188 24.402344 17.527344 C 24.457031 17.558594 24.519531 17.574219 24.585938 17.574219 C 24.65625 17.574219 24.714844 17.558594 24.773438 17.527344 C 24.828125 17.492188 24.875 17.445312 24.910156 17.382812 C 24.941406 17.320312 24.957031 17.25 24.957031 17.167969 Z M 26.203125 16.769531 L 26.203125 17.417969 C 26.203125 17.46875 26.214844 17.507812 26.238281 17.53125 C 26.261719 17.550781 26.300781 17.5625 26.355469 17.5625 L 26.488281 17.5625 L 26.488281 17.714844 L 26.328125 17.714844 C 26.226562 17.714844 26.148438 17.691406 26.097656 17.644531 C 26.046875 17.597656 26.023438 17.523438 26.023438 17.417969 L 26.023438 16.769531 L 25.878906 16.769531 L 25.878906 16.621094 L 26.023438 16.621094 L 26.023438 16.34375 L 26.203125 16.34375 L 26.203125 16.621094 L 26.488281 16.621094 L 26.488281 16.769531 Z M 27.253906 16.601562 C 27.335938 16.601562 27.410156 16.617188 27.476562 16.65625 C 27.542969 16.6875 27.597656 16.742188 27.632812 16.8125 C 27.671875 16.882812 27.691406 16.96875 27.691406 17.070312 L 27.691406 17.714844 L 27.511719 17.714844 L 27.511719 17.097656 C 27.511719 16.988281 27.484375 16.902344 27.429688 16.847656 C 27.375 16.789062 27.300781 16.757812 27.207031 16.757812 C 27.109375 16.757812 27.035156 16.789062 26.976562 16.847656 C 26.921875 16.910156 26.890625 16.996094 26.890625 17.109375 L 26.890625 17.714844 L 26.710938 17.714844 L 26.710938 16.238281 L 26.890625 16.238281 L 26.890625 16.777344 C 26.929688 16.71875 26.976562 16.675781 27.039062 16.648438 C 27.105469 16.617188 27.175781 16.601562 27.253906 16.601562 Z M 28.988281 17.125 C 28.988281 17.160156 28.988281 17.199219 28.984375 17.234375 L 28.105469 17.234375 C 28.113281 17.34375 28.148438 17.429688 28.21875 17.488281 C 28.285156 17.550781 28.367188 17.578125 28.460938 17.578125 C 28.542969 17.578125 28.605469 17.5625 28.660156 17.527344 C 28.710938 17.488281 28.75 17.4375 28.769531 17.378906 L 28.964844 17.378906 C 28.9375 17.484375 28.878906 17.570312 28.789062 17.636719 C 28.703125 17.703125 28.59375 17.734375 28.460938 17.734375 C 28.359375 17.734375 28.265625 17.710938 28.183594 17.664062 C 28.101562 17.617188 28.039062 17.550781 27.992188 17.464844 C 27.945312 17.378906 27.921875 17.28125 27.921875 17.167969 C 27.921875 17.054688 27.945312 16.953125 27.988281 16.867188 C 28.035156 16.78125 28.097656 16.71875 28.179688 16.671875 C 28.261719 16.625 28.355469 16.601562 28.460938 16.601562 C 28.566406 16.601562 28.660156 16.625 28.738281 16.671875 C 28.820312 16.714844 28.878906 16.777344 28.921875 16.859375 C 28.964844 16.9375 28.988281 17.027344 28.988281 17.125 Z M 28.800781 17.089844 C 28.800781 17.019531 28.785156 16.960938 28.753906 16.910156 C 28.722656 16.859375 28.683594 16.820312 28.628906 16.796875 C 28.578125 16.769531 28.519531 16.757812 28.453125 16.757812 C 28.363281 16.757812 28.285156 16.785156 28.21875 16.84375 C 28.15625 16.902344 28.117188 16.984375 28.109375 17.089844 Z M 28.800781 17.089844 " fill-opacity="1" fill-rule="nonzero"/><path fill="#000000" d="M 21.125 11.691406 C 21.089844 11.691406 21.058594 11.679688 21.035156 11.652344 C 21.011719 11.628906 21 11.601562 21 11.566406 C 21 11.53125 21.011719 11.503906 21.035156 11.476562 C 21.058594 11.453125 21.089844 11.441406 21.125 11.441406 C 21.15625 11.441406 21.1875 11.453125 21.207031 11.476562 C 21.230469 11.503906 21.246094 11.53125 21.246094 11.566406 C 21.246094 11.601562 21.230469 11.628906 21.207031 11.652344 C 21.1875 11.679688 21.15625 11.691406 21.125 11.691406 Z M 21.210938 11.867188 L 21.210938 12.964844 L 21.03125 12.964844 L 21.03125 11.867188 Z M 22.152344 12.976562 C 22.023438 12.976562 21.90625 12.949219 21.800781 12.886719 C 21.695312 12.828125 21.609375 12.742188 21.546875 12.632812 C 21.484375 12.523438 21.453125 12.402344 21.453125 12.265625 C 21.453125 12.128906 21.484375 12.007812 21.546875 11.898438 C 21.609375 11.789062 21.695312 11.707031 21.800781 11.644531 C 21.90625 11.585938 22.023438 11.554688 22.152344 11.554688 C 22.285156 11.554688 22.402344 11.585938 22.507812 11.644531 C 22.617188 11.707031 22.699219 11.789062 22.761719 11.898438 C 22.824219 12.007812 22.851562 12.128906 22.851562 12.265625 C 22.851562 12.402344 22.824219 12.527344 22.761719 12.632812 C 22.699219 12.742188 22.617188 12.828125 22.507812 12.886719 C 22.402344 12.949219 22.285156 12.976562 22.152344 12.976562 Z M 22.152344 12.820312 C 22.25 12.820312 22.339844 12.796875 22.414062 12.75 C 22.496094 12.707031 22.554688 12.640625 22.597656 12.558594 C 22.644531 12.472656 22.667969 12.375 22.667969 12.265625 C 22.667969 12.152344 22.644531 12.058594 22.597656 11.972656 C 22.554688 11.890625 22.496094 11.824219 22.417969 11.78125 C 22.339844 11.734375 22.253906 11.710938 22.152344 11.710938 C 22.054688 11.710938 21.96875 11.734375 21.890625 11.78125 C 21.8125 11.824219 21.75 11.890625 21.707031 11.972656 C 21.664062 12.058594 21.640625 12.152344 21.640625 12.265625 C 21.640625 12.375 21.664062 12.472656 21.707031 12.558594 C 21.75 12.640625 21.8125 12.707031 21.890625 12.75 C 21.96875 12.796875 22.054688 12.820312 22.152344 12.820312 Z M 23.535156 12.976562 C 23.441406 12.976562 23.359375 12.960938 23.289062 12.929688 C 23.214844 12.894531 23.160156 12.851562 23.117188 12.792969 C 23.078125 12.734375 23.054688 12.667969 23.054688 12.589844 L 23.246094 12.589844 C 23.253906 12.65625 23.28125 12.710938 23.328125 12.757812 C 23.375 12.800781 23.445312 12.824219 23.535156 12.824219 C 23.621094 12.824219 23.691406 12.800781 23.738281 12.757812 C 23.789062 12.714844 23.816406 12.660156 23.816406 12.589844 C 23.816406 12.539062 23.800781 12.496094 23.769531 12.460938 C 23.742188 12.429688 23.707031 12.402344 23.660156 12.386719 C 23.617188 12.367188 23.558594 12.351562 23.484375 12.328125 C 23.390625 12.304688 23.316406 12.28125 23.261719 12.257812 C 23.207031 12.234375 23.160156 12.195312 23.121094 12.144531 C 23.082031 12.09375 23.0625 12.023438 23.0625 11.9375 C 23.0625 11.863281 23.082031 11.792969 23.121094 11.734375 C 23.15625 11.675781 23.210938 11.632812 23.28125 11.601562 C 23.351562 11.566406 23.433594 11.550781 23.523438 11.550781 C 23.652344 11.550781 23.761719 11.585938 23.84375 11.648438 C 23.925781 11.714844 23.972656 11.800781 23.984375 11.910156 L 23.785156 11.910156 C 23.777344 11.855469 23.75 11.808594 23.699219 11.769531 C 23.652344 11.730469 23.585938 11.707031 23.503906 11.707031 C 23.429688 11.707031 23.367188 11.726562 23.320312 11.769531 C 23.269531 11.808594 23.246094 11.863281 23.246094 11.933594 C 23.246094 11.984375 23.261719 12.023438 23.289062 12.054688 C 23.320312 12.089844 23.355469 12.113281 23.394531 12.128906 C 23.4375 12.144531 23.496094 12.164062 23.574219 12.1875 C 23.664062 12.210938 23.738281 12.238281 23.796875 12.261719 C 23.851562 12.285156 23.898438 12.324219 23.9375 12.375 C 23.980469 12.425781 24 12.496094 24 12.582031 C 24 12.652344 23.980469 12.714844 23.945312 12.777344 C 23.910156 12.835938 23.855469 12.882812 23.785156 12.921875 C 23.714844 12.957031 23.632812 12.976562 23.535156 12.976562 Z M 23.535156 12.976562 " fill-opacity="1" fill-rule="nonzero"/><path fill="#ff914d" d="M 16.832031 20.785156 L 15.871094 20.785156 L 15.710938 21.242188 L 15.203125 21.242188 L 16.070312 18.828125 L 16.636719 18.828125 L 17.503906 21.242188 L 16.992188 21.242188 Z M 16.699219 20.398438 L 16.351562 19.386719 L 16.003906 20.398438 Z M 18.3125 19.605469 C 18.375 19.519531 18.457031 19.445312 18.566406 19.386719 C 18.675781 19.328125 18.804688 19.296875 18.945312 19.296875 C 19.105469 19.296875 19.253906 19.339844 19.386719 19.417969 C 19.519531 19.5 19.625 19.613281 19.699219 19.765625 C 19.777344 19.910156 19.816406 20.082031 19.816406 20.28125 C 19.816406 20.476562 19.777344 20.648438 19.699219 20.800781 C 19.625 20.953125 19.519531 21.066406 19.386719 21.152344 C 19.253906 21.234375 19.105469 21.273438 18.945312 21.273438 C 18.804688 21.273438 18.679688 21.246094 18.570312 21.1875 C 18.464844 21.132812 18.378906 21.058594 18.3125 20.972656 L 18.3125 22.15625 L 17.828125 22.15625 L 17.828125 19.328125 L 18.3125 19.328125 Z M 19.324219 20.28125 C 19.324219 20.164062 19.300781 20.066406 19.25 19.980469 C 19.203125 19.898438 19.144531 19.832031 19.0625 19.789062 C 18.988281 19.746094 18.90625 19.722656 18.816406 19.722656 C 18.726562 19.722656 18.644531 19.746094 18.566406 19.792969 C 18.492188 19.835938 18.429688 19.902344 18.378906 19.984375 C 18.332031 20.070312 18.3125 20.171875 18.3125 20.285156 C 18.3125 20.402344 18.332031 20.5 18.378906 20.585938 C 18.429688 20.671875 18.492188 20.738281 18.566406 20.785156 C 18.644531 20.828125 18.726562 20.851562 18.816406 20.851562 C 18.90625 20.851562 18.988281 20.828125 19.0625 20.78125 C 19.144531 20.734375 19.203125 20.667969 19.25 20.582031 C 19.300781 20.5 19.324219 20.398438 19.324219 20.28125 Z M 20.652344 19.605469 C 20.714844 19.519531 20.800781 19.445312 20.910156 19.386719 C 21.019531 19.328125 21.144531 19.296875 21.285156 19.296875 C 21.449219 19.296875 21.597656 19.339844 21.730469 19.417969 C 21.863281 19.5 21.96875 19.613281 22.042969 19.765625 C 22.121094 19.910156 22.160156 20.082031 22.160156 20.28125 C 22.160156 20.476562 22.121094 20.648438 22.042969 20.800781 C 21.96875 20.953125 21.863281 21.066406 21.730469 21.152344 C 21.597656 21.234375 21.449219 21.273438 21.285156 21.273438 C 21.144531 21.273438 21.019531 21.246094 20.914062 21.1875 C 20.808594 21.132812 20.71875 21.058594 20.652344 20.972656 L 20.652344 22.15625 L 20.167969 22.15625 L 20.167969 19.328125 L 20.652344 19.328125 Z M 21.667969 20.28125 C 21.667969 20.164062 21.640625 20.066406 21.59375 19.980469 C 21.546875 19.898438 21.484375 19.832031 21.40625 19.789062 C 21.332031 19.746094 21.25 19.722656 21.160156 19.722656 C 21.070312 19.722656 20.988281 19.746094 20.910156 19.792969 C 20.832031 19.835938 20.769531 19.902344 20.722656 19.984375 C 20.675781 20.070312 20.652344 20.171875 20.652344 20.285156 C 20.652344 20.402344 20.675781 20.5 20.722656 20.585938 C 20.769531 20.671875 20.832031 20.738281 20.910156 20.785156 C 20.988281 20.828125 21.070312 20.851562 21.160156 20.851562 C 21.25 20.851562 21.332031 20.828125 21.40625 20.78125 C 21.484375 20.734375 21.546875 20.667969 21.59375 20.582031 C 21.640625 20.5 21.667969 20.398438 21.667969 20.28125 Z M 25.398438 21.242188 L 24.914062 21.242188 L 23.820312 19.589844 L 23.820312 21.242188 L 23.335938 21.242188 L 23.335938 18.828125 L 23.820312 18.828125 L 24.914062 20.488281 L 24.914062 18.828125 L 25.398438 18.828125 Z M 26.726562 21.273438 C 26.542969 21.273438 26.378906 21.234375 26.230469 21.152344 C 26.082031 21.070312 25.964844 20.953125 25.882812 20.804688 C 25.796875 20.65625 25.757812 20.480469 25.757812 20.285156 C 25.757812 20.089844 25.800781 19.917969 25.886719 19.769531 C 25.972656 19.617188 26.089844 19.503906 26.242188 19.421875 C 26.390625 19.339844 26.558594 19.296875 26.742188 19.296875 C 26.925781 19.296875 27.09375 19.339844 27.242188 19.421875 C 27.394531 19.503906 27.511719 19.617188 27.597656 19.769531 C 27.683594 19.917969 27.726562 20.089844 27.726562 20.285156 C 27.726562 20.480469 27.683594 20.65625 27.59375 20.804688 C 27.503906 20.953125 27.386719 21.070312 27.234375 21.152344 C 27.082031 21.234375 26.914062 21.273438 26.726562 21.273438 Z M 26.726562 20.851562 C 26.816406 20.851562 26.898438 20.832031 26.972656 20.792969 C 27.050781 20.746094 27.113281 20.683594 27.160156 20.597656 C 27.207031 20.511719 27.230469 20.410156 27.230469 20.285156 C 27.230469 20.105469 27.179688 19.964844 27.085938 19.867188 C 26.988281 19.769531 26.875 19.71875 26.734375 19.71875 C 26.597656 19.71875 26.480469 19.769531 26.386719 19.867188 C 26.292969 19.964844 26.246094 20.105469 26.246094 20.285156 C 26.246094 20.46875 26.292969 20.609375 26.382812 20.707031 C 26.476562 20.804688 26.589844 20.851562 26.726562 20.851562 Z M 30.738281 19.328125 L 30.175781 21.242188 L 29.65625 21.242188 L 29.304688 19.90625 L 28.957031 21.242188 L 28.429688 21.242188 L 27.867188 19.328125 L 28.359375 19.328125 L 28.699219 20.789062 L 29.0625 19.328125 L 29.574219 19.328125 L 29.933594 20.785156 L 30.273438 19.328125 Z M 30.738281 19.328125 " fill-opacity="1" fill-rule="nonzero"/><path fill="#ff914d" d="M 7.175781 15.117188 L 10.105469 15.117188 C 10.246094 15.117188 10.363281 15.167969 10.460938 15.265625 C 10.558594 15.363281 10.605469 15.480469 10.605469 15.617188 L 10.605469 22.328125 C 10.605469 22.46875 10.558594 22.585938 10.460938 22.683594 C 10.363281 22.78125 10.246094 22.832031 10.105469 22.832031 L 7.175781 22.832031 C 7.039062 22.832031 6.917969 22.78125 6.820312 22.683594 C 6.722656 22.585938 6.675781 22.46875 6.675781 22.328125 L 6.675781 15.617188 C 6.675781 15.480469 6.722656 15.363281 6.820312 15.265625 C 6.917969 15.167969 7.039062 15.117188 7.175781 15.117188 Z M 7.175781 15.117188 " fill-opacity="1" fill-rule="nonzero"/><path fill="#000000" d="M 7.402344 15.394531 L 9.878906 15.394531 C 10.019531 15.394531 10.136719 15.441406 10.234375 15.539062 C 10.332031 15.636719 10.382812 15.753906 10.382812 15.894531 L 10.382812 22.03125 C 10.382812 22.167969 10.332031 22.285156 10.234375 22.382812 C 10.136719 22.480469 10.019531 22.53125 9.878906 22.53125 L 7.402344 22.53125 C 7.261719 22.53125 7.144531 22.480469 7.046875 22.382812 C 6.949219 22.285156 6.898438 22.167969 6.898438 22.03125 L 6.898438 15.894531 C 6.898438 15.753906 6.949219 15.636719 7.046875 15.539062 C 7.144531 15.441406 7.261719 15.394531 7.402344 15.394531 Z M 7.402344 15.394531 " fill-opacity="1" fill-rule="nonzero"/><path fill="#ff914d" d="M 8.066406 15.191406 L 9.21875 15.191406 C 9.359375 15.191406 9.429688 15.261719 9.429688 15.40625 C 9.429688 15.546875 9.359375 15.617188 9.21875 15.617188 L 8.066406 15.617188 C 7.921875 15.617188 7.851562 15.546875 7.851562 15.40625 C 7.851562 15.261719 7.921875 15.191406 8.066406 15.191406 Z M 8.066406 15.191406 " fill-opacity="1" fill-rule="nonzero"/></svg>