<svg xmlns="http://www.w3.org/2000/svg" xmlns:xlink="http://www.w3.org/1999/xlink" width="500" zoomAndPan="magnify" viewBox="0 0 375 374.999991" height="500" preserveAspectRatio="xMidYMid meet" version="1.0"><defs><g/><clipPath id="a8bc85b50d"><path d="M 52.542969 6.457031 L 327.558594 6.457031 L 327.558594 281.472656 L 52.542969 281.472656 Z M 52.542969 6.457031 " clip-rule="nonzero"/></clipPath><clipPath id="f315d74ee4"><path d="M 190.050781 6.457031 C 114.109375 6.457031 52.542969 68.019531 52.542969 143.964844 C 52.542969 219.90625 114.109375 281.472656 190.050781 281.472656 C 265.996094 281.472656 327.558594 219.90625 327.558594 143.964844 C 327.558594 68.019531 265.996094 6.457031 190.050781 6.457031 Z M 190.050781 6.457031 " clip-rule="nonzero"/></clipPath><clipPath id="74e22feb93"><path d="M 239 87 L 337.355469 87 L 337.355469 163 L 239 163 Z M 239 87 " clip-rule="nonzero"/></clipPath><clipPath id="0e60b604d3"><path d="M 240 58 L 337.355469 58 L 337.355469 101 L 240 101 Z M 240 58 " clip-rule="nonzero"/></clipPath><clipPath id="6e3fc2b1b5"><path d="M 239 21 L 337.355469 21 L 337.355469 99 L 239 99 Z M 239 21 " clip-rule="nonzero"/></clipPath><clipPath id="88d3b384fb"><path d="M 151 91 L 268 91 L 268 288 L 151 288 Z M 151 91 " clip-rule="nonzero"/></clipPath><clipPath id="c4f2857a06"><path d="M 42.605469 142 L 89 142 L 89 242 L 42.605469 242 Z M 42.605469 142 " clip-rule="nonzero"/></clipPath><clipPath id="572315479f"><path d="M 42.605469 138 L 99 138 L 99 202 L 42.605469 202 Z M 42.605469 138 " clip-rule="nonzero"/></clipPath><clipPath id="2285cbddba"><path d="M 42.605469 83 L 99 83 L 99 149 L 42.605469 149 Z M 42.605469 83 " clip-rule="nonzero"/></clipPath><clipPath id="2e1809cfe8"><path d="M 75 142 L 172 142 L 172 288 L 75 288 Z M 75 142 " clip-rule="nonzero"/></clipPath></defs><rect x="-37.5" width="450" fill="#ffffff" y="-37.499999" height="449.999989" fill-opacity="1"/><rect x="-37.5" width="450" fill="#f1efe7" y="-37.499999" height="449.999989" fill-opacity="1"/><g clip-path="url(#a8bc85b50d)"><g clip-path="url(#f315d74ee4)"><path fill="#ffffff" d="M 52.542969 6.457031 L 327.558594 6.457031 L 327.558594 281.472656 L 52.542969 281.472656 Z M 52.542969 6.457031 " fill-opacity="1" fill-rule="nonzero"/></g></g><path fill="#ffffff" d="M 211.292969 194.074219 L 319.890625 189.550781 C 323.414062 179.726562 325.859375 169.386719 327.078125 158.679688 L 245.792969 156.753906 L 327.585938 153.34375 C 327.84375 149.886719 327.976562 146.390625 327.976562 142.867188 C 327.976562 132.640625 326.863281 122.679688 324.757812 113.085938 L 211.292969 110.398438 L 322.933594 105.746094 C 306.714844 47.425781 253.226562 4.625 189.734375 4.625 C 132.660156 4.625 83.667969 39.210938 62.570312 88.570312 L 200.824219 93.070312 L 59.757812 95.679688 C 56.296875 105.207031 53.855469 115.222656 52.5625 125.59375 L 166.328125 129.296875 L 51.964844 131.417969 C 51.65625 135.191406 51.492188 139.007812 51.492188 142.867188 C 51.492188 146.488281 51.632812 150.070312 51.90625 153.621094 L 200.824219 158.46875 L 52.703125 161.210938 C 61.675781 228.890625 119.605469 281.109375 189.734375 281.109375 C 247.03125 281.109375 296.183594 246.25 317.148438 196.585938 L 211.292969 194.074219 " fill-opacity="1" fill-rule="nonzero"/><path fill="#f1efe7" d="M 250.855469 91.34375 C 250.855469 91.34375 323.613281 119.066406 312.488281 210.363281 L 310.03125 187.835938 L 305.898438 199.210938 L 306.601562 182.875 L 302.476562 200.070312 L 303.921875 177.433594 L 299.179688 191.582031 L 301.65625 170.144531 L 297.660156 180.902344 L 297.574219 163.746094 L 291.703125 181.523438 L 293.628906 156.730469 L 288.167969 175.570312 L 289.992188 149.785156 L 285.488281 164.308594 L 283.984375 140.371094 L 282.195312 158.730469 L 280.699219 137.707031 L 278.078125 153.941406 L 278.066406 126.78125 L 274.523438 142.808594 L 273.484375 120.59375 L 271.175781 136.894531 L 269.234375 116.425781 L 268.292969 129.46875 L 265.121094 114.542969 L 265.378906 126.5625 L 261.492188 110.507812 L 261.777344 123.828125 L 257.722656 109.996094 L 256.15625 117.085938 L 250.855469 91.34375 " fill-opacity="1" fill-rule="nonzero"/><g clip-path="url(#74e22feb93)"><path fill="#f1efe7" d="M 239.140625 91.179688 C 239.140625 91.179688 332.292969 63.601562 390.359375 162.585938 L 370.871094 142.101562 L 375.382812 156.507812 L 363.714844 139.773438 L 372.640625 159.949219 L 356.941406 136.402344 L 362.941406 154.023438 L 349.171875 130.886719 L 353.351562 144.582031 L 340.28125 127.628906 L 347.914062 149.707031 L 331.058594 123.660156 L 339.902344 146.476562 L 322.191406 119.523438 L 328.714844 137.339844 L 309.117188 114.734375 L 321.230469 134.296875 L 303.832031 114.578125 L 313.523438 132.660156 L 292.953125 105.730469 L 301.570312 124.308594 L 283.730469 103.058594 L 293.777344 120.976562 L 276.355469 102.140625 L 285.292969 115.792969 L 270.855469 103.390625 L 280.203125 115.117188 L 264.191406 102.132812 L 274.5625 115.128906 L 260.074219 104.480469 L 263.882812 112.699219 L 239.140625 91.179688 " fill-opacity="1" fill-rule="nonzero"/></g><g clip-path="url(#0e60b604d3)"><path fill="#f1efe7" d="M 240.992188 96.359375 C 240.992188 96.359375 300.628906 27.007812 397.078125 75.695312 L 371.207031 69.433594 L 382.125 78.53125 L 364.359375 71.246094 L 381.710938 82.652344 L 357.28125 72.035156 L 371.019531 82.914062 L 348.320312 71.632812 L 358.613281 80.335938 L 339.625 73.59375 L 356.925781 87.164062 L 330.292969 75.15625 L 348.941406 88.699219 L 321.167969 76.40625 L 335.421875 87.171875 L 308.382812 79.292969 L 327.949219 88.589844 L 304.121094 81.863281 L 321.015625 91.226562 L 291 80.414062 L 307.300781 90.71875 L 282.335938 83.007812 L 299.429688 92.058594 L 276.03125 86.042969 L 290.070312 92.289062 L 272.320312 89.839844 L 285.699219 94.347656 L 266.410156 92.242188 L 281.242188 97.234375 L 264.34375 96.203125 L 271.554688 100.761719 L 240.992188 96.359375 " fill-opacity="1" fill-rule="nonzero"/></g><g clip-path="url(#6e3fc2b1b5)"><path fill="#f1efe7" d="M 239.507812 98.851562 C 239.507812 98.851562 258.316406 21.425781 352.4375 21.003906 L 329.878906 26.386719 L 341.957031 29.125 L 325.285156 30.507812 L 343.269531 32.488281 L 320.105469 33.921875 L 335.078125 36.925781 L 312.992188 37.164062 L 324.425781 39.839844 L 307.023438 42.128906 L 325.824219 45.804688 L 300.402344 47.035156 L 320.230469 50.160156 L 293.816406 51.617188 L 309.140625 54.328125 L 285.035156 58.917969 L 303.902344 58.386719 L 282.75 62.605469 L 299.566406 63.175781 L 271.992188 66.675781 L 288.722656 68.210938 L 266.300781 72.121094 L 283.144531 72.371094 L 262.609375 76.96875 L 275.980469 76.253906 L 261.230469 81.386719 L 273.398438 79.585938 L 257.597656 85.59375 L 271.085938 83.589844 L 257.5625 89.484375 L 264.964844 90.164062 L 239.507812 98.851562 " fill-opacity="1" fill-rule="nonzero"/></g><path fill="#f1efe7" d="M 266.429688 80.585938 C 266.429688 80.585938 196.074219 113.941406 214.339844 204.082031 L 215.019531 181.433594 L 220.035156 192.445312 L 218.050781 176.214844 L 223.511719 193.03125 L 220.289062 170.578125 L 226.132812 184.3125 L 221.980469 163.136719 L 226.808594 173.542969 L 225.546875 156.4375 L 232.792969 173.695312 L 228.929688 149.128906 L 235.847656 167.484375 L 232.007812 141.921875 L 237.640625 156.046875 L 237.253906 132.070312 L 240.484375 150.226562 L 240.324219 129.148438 L 244.207031 145.128906 L 242.085938 118.050781 L 246.875 133.753906 L 246.164062 111.527344 L 249.75 127.59375 L 250.074219 107.03125 L 252.042969 119.964844 L 254.027344 104.835938 L 254.71875 116.835938 L 257.332031 100.527344 L 258.09375 113.828125 L 261.046875 99.722656 L 263.167969 106.664062 L 266.429688 80.585938 " fill-opacity="1" fill-rule="nonzero"/><path fill="#f1efe7" d="M 269.4375 88.871094 C 269.4375 88.871094 174.402344 68.703125 124.296875 171.945312 L 142.113281 149.988281 L 138.75 164.707031 L 149.066406 147.109375 L 141.757812 167.925781 L 155.554688 143.21875 L 150.957031 161.257812 L 162.863281 137.109375 L 159.773438 151.089844 L 171.472656 133.164062 L 165.597656 155.769531 L 180.355469 128.480469 L 173.332031 151.917969 L 188.871094 123.65625 L 183.765625 141.929688 L 201.527344 117.851562 L 190.992188 138.3125 L 206.78125 117.285156 L 198.542969 136.070312 L 216.933594 107.605469 L 209.800781 126.808594 L 225.917969 104.222656 L 217.3125 122.875 L 233.199219 102.726562 L 225.359375 117.039062 L 238.777344 103.535156 L 230.382812 115.960938 L 245.320312 101.761719 L 236.007812 115.53125 L 249.613281 103.78125 L 246.457031 112.269531 L 269.4375 88.871094 " fill-opacity="1" fill-rule="nonzero"/><path fill="#f1efe7" d="M 267.996094 94.183594 C 267.996094 94.183594 203.09375 29.738281 110.769531 85.855469 L 136.070312 77.578125 L 125.898438 87.507812 L 143.039062 78.847656 L 126.636719 91.585938 L 150.160156 79.074219 L 137.316406 91.003906 L 159.0625 77.972656 L 149.484375 87.457031 L 167.886719 79.242188 L 151.703125 94.132812 L 177.304688 80.070312 L 159.785156 95.03125 L 186.503906 80.597656 L 173.136719 92.453125 L 199.476562 82.464844 L 180.703125 93.273438 L 203.925781 84.695312 L 187.820312 95.359375 L 216.894531 82.21875 L 201.453125 93.773438 L 225.734375 84.125 L 209.402344 94.492188 L 232.257812 86.652344 L 218.75 93.984375 L 236.253906 90.144531 L 223.269531 95.691406 L 242.335938 92.082031 L 227.941406 98.222656 L 244.707031 95.863281 L 237.875 100.972656 L 267.996094 94.183594 " fill-opacity="1" fill-rule="nonzero"/><path fill="#f1efe7" d="M 269.671875 96.550781 C 269.671875 96.550781 244.835938 20.839844 150.972656 27.824219 L 173.882812 31.417969 L 162.058594 35.09375 L 178.789062 35.164062 L 161.015625 38.546875 L 184.222656 38.160156 L 169.53125 42.328125 L 191.5625 40.828125 L 180.378906 44.394531 L 197.910156 45.308594 L 179.457031 50.453125 L 204.890625 49.679688 L 185.371094 54.351562 L 211.820312 53.734375 L 196.753906 57.636719 L 221.144531 60.320312 L 202.296875 61.269531 L 223.714844 63.8125 L 206.996094 65.710938 L 234.757812 67.027344 L 218.203125 69.875 L 240.859375 72.003906 L 224.085938 73.585938 L 244.921875 76.554688 L 231.539062 76.890625 L 246.644531 80.84375 L 234.371094 80.007812 L 250.59375 84.753906 L 236.992188 83.820312 L 250.933594 88.628906 L 243.613281 89.890625 L 269.671875 96.550781 " fill-opacity="1" fill-rule="nonzero"/><path fill="#f1efe7" d="M 244.855469 109.625 C 244.855469 109.625 221.757812 33.367188 302.640625 -14.769531 L 285.9375 1.316406 L 297.726562 -2.453125 L 284.066406 7.203125 L 300.566406 -0.222656 L 281.339844 12.773438 L 295.761719 7.757812 L 276.855469 19.171875 L 288.0625 15.675781 L 274.230469 26.484375 L 292.296875 20.105469 L 271.019531 34.070312 L 289.6875 26.695312 L 267.671875 41.359375 L 282.25 35.917969 L 263.8125 52.113281 L 279.792969 42.074219 L 263.710938 56.445312 L 278.496094 48.402344 L 256.511719 65.410156 L 271.707031 58.246094 L 254.371094 72.992188 L 269.011719 64.660156 L 253.652344 79.046875 L 264.804688 71.644531 L 254.707031 83.550781 L 264.277344 75.824219 L 253.714844 89.019531 L 264.3125 80.445312 L 255.65625 92.386719 L 262.378906 89.21875 L 244.855469 109.625 " fill-opacity="1" fill-rule="nonzero"/><g clip-path="url(#88d3b384fb)"><path fill="#f1efe7" d="M 258.128906 91.601562 C 258.128906 91.601562 258.425781 92.78125 258.976562 95 C 259.503906 97.242188 260.429688 100.371094 261.269531 104.707031 C 261.707031 106.84375 262.230469 109.21875 262.726562 111.800781 C 263.164062 114.386719 263.636719 117.175781 264.140625 120.160156 C 264.625 123.148438 264.976562 126.347656 265.4375 129.71875 C 265.878906 133.089844 266.113281 136.660156 266.484375 140.382812 C 266.785156 144.105469 266.921875 147.996094 267.15625 152.03125 C 267.1875 156.058594 267.363281 160.242188 267.265625 164.539062 C 267.164062 168.835938 267.113281 173.257812 266.757812 177.773438 C 266.59375 180.027344 266.53125 182.320312 266.269531 184.617188 C 266.035156 186.917969 265.796875 189.242188 265.558594 191.585938 C 264.40625 200.9375 262.90625 210.621094 260.527344 220.308594 L 259.683594 223.957031 L 258.691406 227.59375 C 258.011719 230.011719 257.375 232.457031 256.648438 234.882812 C 255.074219 239.699219 253.582031 244.578125 251.6875 249.328125 L 250.335938 252.917969 L 250 253.816406 L 249.558594 254.863281 L 248.84375 256.542969 C 247.886719 258.785156 246.929688 261.027344 245.972656 263.261719 C 243.789062 267.929688 241.609375 272.640625 239.347656 276.976562 C 234.867188 285.808594 230.15625 294.242188 225.570312 302.226562 C 221.019531 310.128906 216.625 317.765625 212.457031 325.011719 C 208.339844 332.183594 204.703125 338.925781 201.476562 345.164062 C 199.863281 348.28125 198.460938 351.285156 197.046875 354.125 C 195.757812 356.976562 194.535156 359.683594 193.386719 362.230469 C 192.351562 364.78125 191.378906 367.167969 190.484375 369.378906 C 189.566406 371.582031 188.949219 373.640625 188.269531 375.472656 C 186.894531 379.136719 186.164062 382.066406 185.546875 384.035156 C 184.960938 386.007812 184.648438 387.0625 184.648438 387.0625 L 151.613281 376.566406 C 151.613281 376.566406 152.097656 375.324219 153.007812 372.992188 C 153.941406 370.675781 155.171875 367.195312 157.140625 363.027344 C 158.113281 360.9375 159.085938 358.554688 160.347656 356.109375 C 161.59375 353.660156 162.945312 351.007812 164.386719 348.179688 C 165.917969 345.433594 167.546875 342.515625 169.265625 339.4375 C 171.070312 336.460938 172.914062 333.269531 174.9375 330.0625 C 178.976562 323.648438 183.449219 316.816406 188.269531 309.859375 C 193.050781 302.976562 198.089844 295.722656 203.300781 288.214844 C 208.453125 280.785156 213.605469 273.148438 218.480469 265.269531 C 220.996094 261.300781 223.199219 257.414062 225.492188 253.484375 C 226.621094 251.351562 227.761719 249.210938 228.894531 247.070312 L 229.75 245.457031 L 229.960938 245.054688 L 230.070312 244.851562 C 229.90625 245.210938 230.050781 244.894531 230.023438 244.949219 L 230.070312 244.851562 L 230.441406 244.070312 L 231.933594 240.941406 C 234.011719 236.804688 235.730469 232.492188 237.546875 228.230469 C 238.394531 226.078125 239.164062 223.894531 239.976562 221.734375 L 241.171875 218.484375 L 242.226562 215.195312 C 245.175781 206.480469 247.320312 197.632812 249.140625 189 C 249.550781 186.832031 249.960938 184.679688 250.363281 182.550781 C 250.792969 180.417969 251.03125 178.28125 251.367188 176.179688 C 252.0625 171.96875 252.457031 167.816406 252.902344 163.769531 C 253.339844 159.722656 253.503906 155.765625 253.804688 151.9375 C 253.898438 148.105469 254.089844 144.394531 254.101562 140.832031 C 254.046875 137.265625 254.121094 133.839844 253.964844 130.589844 C 253.800781 127.339844 253.726562 124.246094 253.507812 121.347656 C 253.269531 118.453125 253.042969 115.738281 252.835938 113.230469 C 252.542969 110.753906 252.273438 108.472656 252.03125 106.417969 C 251.601562 102.328125 250.917969 98.957031 250.59375 96.722656 C 250.230469 94.46875 250.035156 93.265625 250.035156 93.265625 L 258.128906 91.601562 " fill-opacity="1" fill-rule="nonzero"/></g><g clip-path="url(#c4f2857a06)"><path fill="#f1efe7" d="M 88.839844 142.066406 C 88.839844 142.066406 28.0625 165.21875 37.355469 241.484375 L 39.410156 222.667969 L 42.859375 232.167969 L 42.273438 218.523438 L 45.71875 232.882812 L 44.511719 213.976562 L 48.472656 225.792969 L 46.40625 207.886719 L 49.742188 216.875 L 49.8125 202.542969 L 54.714844 217.394531 L 53.109375 196.683594 L 57.667969 212.421875 L 56.148438 190.882812 L 59.910156 203.015625 L 61.164062 183.019531 L 62.660156 198.351562 L 63.910156 180.792969 L 66.097656 194.355469 L 66.109375 171.664062 L 69.066406 185.054688 L 69.933594 166.5 L 71.863281 180.117188 L 73.484375 163.015625 L 74.273438 173.910156 L 76.917969 161.445312 L 76.707031 171.484375 L 79.953125 158.074219 L 79.714844 169.199219 L 83.101562 157.648438 L 84.410156 163.570312 L 88.839844 142.066406 " fill-opacity="1" fill-rule="nonzero"/></g><g clip-path="url(#572315479f)"><path fill="#f1efe7" d="M 98.625 141.925781 C 98.625 141.925781 20.8125 118.894531 -27.691406 201.578125 L -11.414062 184.460938 L -15.179688 196.496094 L -5.433594 182.519531 L -12.890625 199.371094 L 0.222656 179.703125 L -4.789062 194.425781 L 6.710938 175.097656 L 3.222656 186.535156 L 14.140625 172.375 L 7.761719 190.816406 L 21.84375 169.058594 L 14.457031 188.117188 L 29.25 165.601562 L 23.800781 180.484375 L 40.171875 161.601562 L 30.054688 177.945312 L 44.585938 161.472656 L 36.492188 176.578125 L 53.671875 154.082031 L 46.472656 169.601562 L 61.378906 151.851562 L 52.984375 166.820312 L 67.539062 151.085938 L 60.070312 162.488281 L 72.132812 152.125 L 64.324219 161.921875 L 77.695312 151.078125 L 69.035156 161.929688 L 81.140625 153.039062 L 77.957031 159.902344 L 98.625 141.925781 " fill-opacity="1" fill-rule="nonzero"/></g><g clip-path="url(#2285cbddba)"><path fill="#f1efe7" d="M 98.316406 148.335938 C 98.316406 148.335938 82.605469 83.660156 3.984375 83.308594 L 22.828125 87.8125 L 12.742188 90.09375 L 26.667969 91.25 L 11.644531 92.902344 L 30.996094 94.101562 L 18.488281 96.609375 L 36.933594 96.804688 L 27.386719 99.042969 L 41.925781 100.957031 L 26.21875 104.027344 L 47.449219 105.050781 L 30.890625 107.664062 L 52.953125 108.882812 L 40.152344 111.144531 L 60.289062 114.980469 L 44.53125 114.539062 L 62.195312 118.058594 L 48.148438 118.539062 L 71.179688 121.460938 L 57.207031 122.746094 L 75.933594 126.007812 L 61.863281 126.21875 L 79.019531 130.058594 L 67.851562 129.464844 L 80.171875 133.746094 L 70.007812 132.246094 L 83.203125 137.261719 L 71.941406 135.589844 L 83.234375 140.511719 L 77.050781 141.082031 L 98.316406 148.335938 " fill-opacity="1" fill-rule="nonzero"/></g><path fill="#f1efe7" d="M 75.828125 133.082031 C 75.828125 133.082031 134.597656 160.941406 119.339844 236.238281 L 118.769531 217.316406 L 114.585938 226.519531 L 116.238281 212.960938 L 111.679688 227.007812 L 114.367188 208.253906 L 109.488281 219.722656 L 112.957031 202.035156 L 108.925781 210.726562 L 109.980469 196.441406 L 103.925781 210.855469 L 107.15625 190.335938 L 101.371094 205.664062 L 104.582031 184.3125 L 99.875 196.113281 L 100.199219 176.082031 L 97.5 191.25 L 97.636719 173.644531 L 94.390625 186.992188 L 96.164062 164.375 L 92.160156 177.488281 L 92.753906 158.921875 L 89.761719 172.34375 L 89.488281 155.167969 L 87.847656 165.972656 L 86.1875 153.332031 L 85.613281 163.363281 L 83.425781 149.738281 L 82.792969 160.84375 L 80.324219 149.0625 L 78.554688 154.867188 L 75.828125 133.082031 " fill-opacity="1" fill-rule="nonzero"/><path fill="#f1efe7" d="M 73.316406 140 C 73.316406 140 152.699219 123.15625 194.550781 209.394531 L 179.671875 191.054688 L 182.480469 203.347656 L 173.863281 188.648438 L 179.96875 206.035156 L 168.445312 185.398438 L 172.285156 200.464844 L 162.335938 180.292969 L 164.917969 191.96875 L 155.148438 176.996094 L 160.054688 195.882812 L 147.726562 173.082031 L 153.59375 192.664062 L 140.617188 169.058594 L 144.878906 184.320312 L 130.039062 164.210938 L 138.84375 181.296875 L 125.652344 163.730469 L 132.535156 179.429688 L 117.175781 155.652344 L 123.132812 171.6875 L 109.667969 152.820312 L 116.859375 168.40625 L 103.585938 151.570312 L 110.132812 163.53125 L 98.925781 152.25 L 105.941406 162.632812 L 93.460938 150.769531 L 101.242188 162.269531 L 89.875 152.453125 L 92.511719 159.546875 L 73.316406 140 " fill-opacity="1" fill-rule="nonzero"/><path fill="#f1efe7" d="M 73.121094 146.410156 C 73.121094 146.410156 93.867188 83.171875 172.269531 89.003906 L 153.132812 92.007812 L 163.011719 95.078125 L 149.035156 95.136719 L 163.882812 97.964844 L 144.496094 97.640625 L 156.769531 101.121094 L 138.363281 99.867188 L 147.707031 102.851562 L 133.0625 103.613281 L 148.480469 107.910156 L 127.234375 107.261719 L 143.539062 111.167969 L 121.449219 110.648438 L 134.027344 113.910156 L 113.652344 116.15625 L 129.398438 116.945312 L 111.507812 119.066406 L 125.476562 120.652344 L 102.285156 121.753906 L 116.113281 124.132812 L 97.1875 125.914062 L 111.199219 127.230469 L 93.796875 129.710938 L 104.972656 129.992188 L 92.355469 133.296875 L 102.609375 132.59375 L 89.054688 136.5625 L 100.417969 135.777344 L 88.773438 139.800781 L 94.890625 140.851562 L 73.121094 146.410156 " fill-opacity="1" fill-rule="nonzero"/><path fill="#f1efe7" d="M 93.847656 157.335938 C 93.847656 157.335938 113.144531 93.636719 45.582031 53.425781 L 59.535156 66.863281 L 49.683594 63.710938 L 61.097656 71.78125 L 47.3125 65.578125 L 63.375 76.433594 L 51.328125 72.246094 L 67.121094 81.78125 L 57.757812 78.855469 L 69.3125 87.886719 L 54.222656 82.5625 L 71.992188 94.222656 L 56.398438 88.0625 L 74.789062 100.3125 L 62.613281 95.765625 L 78.015625 109.292969 L 64.664062 100.910156 L 78.097656 112.914062 L 65.75 106.199219 L 84.113281 120.40625 L 71.421875 114.421875 L 85.902344 126.738281 L 73.667969 119.777344 L 86.5 131.792969 L 77.183594 125.609375 L 85.621094 135.558594 L 77.625 129.097656 L 86.449219 140.125 L 77.59375 132.960938 L 84.824219 142.9375 L 79.214844 140.289062 L 93.847656 157.335938 " fill-opacity="1" fill-rule="nonzero"/><g clip-path="url(#2e1809cfe8)"><path fill="#f1efe7" d="M 82.761719 142.28125 C 82.761719 142.28125 82.515625 143.269531 82.050781 145.117188 C 81.613281 146.992188 80.84375 149.605469 80.140625 153.226562 C 79.773438 155.011719 79.335938 157 78.921875 159.15625 C 78.554688 161.308594 78.160156 163.644531 77.738281 166.132812 C 77.335938 168.632812 77.042969 171.304688 76.660156 174.121094 C 76.285156 176.941406 76.09375 179.921875 75.785156 183.027344 C 75.53125 186.136719 75.417969 189.386719 75.222656 192.757812 C 75.195312 196.125 75.046875 199.617188 75.128906 203.207031 C 75.214844 206.792969 75.257812 210.492188 75.550781 214.257812 C 75.691406 216.144531 75.746094 218.058594 75.960938 219.976562 C 76.15625 221.902344 76.359375 223.839844 76.558594 225.796875 C 77.519531 233.613281 78.773438 241.695312 80.757812 249.789062 L 81.464844 252.84375 L 82.289062 255.875 C 82.859375 257.898438 83.394531 259.9375 84 261.964844 C 85.316406 265.988281 86.558594 270.0625 88.140625 274.03125 L 89.269531 277.03125 L 89.554688 277.78125 L 89.921875 278.65625 L 90.519531 280.058594 C 91.320312 281.929688 92.117188 283.804688 92.914062 285.671875 C 94.738281 289.566406 96.5625 293.503906 98.449219 297.125 C 102.191406 304.503906 106.128906 311.546875 109.960938 318.21875 C 113.757812 324.820312 117.433594 331.199219 120.914062 337.25 C 124.351562 343.242188 127.386719 348.875 130.085938 354.085938 C 131.433594 356.691406 132.605469 359.199219 133.785156 361.566406 C 134.863281 363.953125 135.882812 366.210938 136.839844 368.339844 C 137.707031 370.46875 138.519531 372.46875 139.269531 374.3125 C 140.03125 376.152344 140.546875 377.871094 141.113281 379.402344 C 142.265625 382.464844 142.875 384.90625 143.390625 386.554688 C 143.882812 388.203125 144.140625 389.085938 144.140625 389.085938 L 171.738281 380.316406 C 171.738281 380.316406 171.332031 379.277344 170.574219 377.328125 C 169.792969 375.394531 168.761719 372.488281 167.121094 369.003906 C 166.304688 367.261719 165.496094 365.265625 164.441406 363.226562 C 163.398438 361.179688 162.273438 358.96875 161.066406 356.605469 C 159.789062 354.308594 158.425781 351.871094 156.992188 349.304688 C 155.484375 346.8125 153.941406 344.148438 152.25 341.46875 C 148.878906 336.109375 145.140625 330.40625 141.117188 324.59375 C 137.125 318.84375 132.914062 312.785156 128.558594 306.511719 C 124.257812 300.308594 119.953125 293.929688 115.878906 287.351562 C 113.777344 284.035156 111.941406 280.789062 110.023438 277.503906 C 109.078125 275.71875 108.128906 273.933594 107.179688 272.144531 L 106.46875 270.796875 L 106.289062 270.460938 L 106.203125 270.292969 C 106.339844 270.589844 106.21875 270.328125 106.238281 270.375 L 106.199219 270.292969 L 105.886719 269.640625 L 104.644531 267.027344 C 102.90625 263.570312 101.472656 259.96875 99.957031 256.410156 C 99.246094 254.609375 98.605469 252.789062 97.925781 250.984375 L 96.929688 248.265625 L 96.046875 245.523438 C 93.582031 238.238281 91.789062 230.851562 90.269531 223.640625 C 89.925781 221.828125 89.585938 220.03125 89.25 218.253906 C 88.890625 216.46875 88.695312 214.683594 88.410156 212.925781 C 87.828125 209.414062 87.5 205.945312 87.128906 202.566406 C 86.761719 199.183594 86.625 195.878906 86.375 192.679688 C 86.292969 189.480469 86.136719 186.378906 86.125 183.402344 C 86.171875 180.425781 86.109375 177.5625 86.238281 174.847656 C 86.378906 172.136719 86.4375 169.550781 86.621094 167.132812 C 86.820312 164.707031 87.011719 162.441406 87.183594 160.347656 C 87.429688 158.277344 87.65625 156.371094 87.859375 154.65625 C 88.210938 151.242188 88.785156 148.421875 89.054688 146.558594 C 89.359375 144.675781 89.523438 143.671875 89.523438 143.671875 L 82.761719 142.28125 " fill-opacity="1" fill-rule="nonzero"/></g><g fill="#000000" fill-opacity="1"><g transform="translate(58.102945, 322.219256)"><g><path d="M 2.203125 -39.578125 C 2.203125 -51.003906 6.097656 -60.675781 13.890625 -68.59375 C 21.679688 -76.519531 31.070312 -80.484375 42.0625 -80.484375 C 53.113281 -80.484375 62.503906 -76.535156 70.234375 -68.640625 C 77.960938 -60.753906 81.828125 -51.066406 81.828125 -39.578125 C 81.828125 -28.015625 78.023438 -18.285156 70.421875 -10.390625 C 62.816406 -2.503906 53.363281 1.4375 42.0625 1.4375 C 30.5 1.4375 20.960938 -2.472656 13.453125 -10.296875 C 5.953125 -18.117188 2.203125 -27.878906 2.203125 -39.578125 Z M 21.65625 -39.578125 C 21.65625 -35.421875 22.289062 -31.632812 23.5625 -28.21875 C 24.84375 -24.800781 27.078125 -21.910156 30.265625 -19.546875 C 33.460938 -17.179688 37.394531 -16 42.0625 -16 C 48.769531 -16 53.832031 -18.296875 57.25 -22.890625 C 60.664062 -27.492188 62.375 -33.054688 62.375 -39.578125 C 62.375 -46.023438 60.632812 -51.5625 57.15625 -56.1875 C 53.675781 -60.820312 48.644531 -63.140625 42.0625 -63.140625 C 35.539062 -63.140625 30.507812 -60.820312 26.96875 -56.1875 C 23.425781 -51.5625 21.65625 -46.023438 21.65625 -39.578125 Z M 21.65625 -39.578125 "/></g></g></g><g fill="#000000" fill-opacity="1"><g transform="translate(133.123161, 322.219256)"><g><path d="M 9.09375 -6.078125 C 4.5 -11.097656 2.203125 -17.25 2.203125 -24.53125 C 2.203125 -31.8125 4.5 -37.972656 9.09375 -43.015625 C 13.695312 -48.066406 19.546875 -50.59375 26.640625 -50.59375 C 33.148438 -50.59375 38.515625 -48.546875 42.734375 -44.453125 L 42.734375 -49.15625 L 59.6875 -49.15625 L 59.6875 0 L 42.921875 0 L 42.921875 -5.5625 L 42.734375 -5.5625 C 38.515625 -0.894531 33.148438 1.4375 26.640625 1.4375 C 19.546875 1.4375 13.695312 -1.066406 9.09375 -6.078125 Z M 23.515625 -32.859375 C 21.316406 -30.691406 20.21875 -27.914062 20.21875 -24.53125 C 20.21875 -21.144531 21.269531 -18.378906 23.375 -16.234375 C 25.488281 -14.097656 28.269531 -13.03125 31.71875 -13.03125 C 35.039062 -13.03125 37.769531 -14.113281 39.90625 -16.28125 C 42.039062 -18.457031 43.109375 -21.207031 43.109375 -24.53125 C 43.109375 -27.914062 42.003906 -30.691406 39.796875 -32.859375 C 37.597656 -35.035156 34.90625 -36.125 31.71875 -36.125 C 28.457031 -36.125 25.722656 -35.035156 23.515625 -32.859375 Z M 23.515625 -32.859375 "/></g></g></g><g fill="#000000" fill-opacity="1"><g transform="translate(189.555759, 322.219256)"><g><path d="M 27.109375 -50.59375 C 29.921875 -50.59375 32.703125 -50.269531 35.453125 -49.625 C 38.203125 -48.988281 40.242188 -48.351562 41.578125 -47.71875 L 43.59375 -46.75 L 38.03125 -35.640625 C 34.195312 -37.679688 30.554688 -38.703125 27.109375 -38.703125 C 25.191406 -38.703125 23.832031 -38.492188 23.03125 -38.078125 C 22.238281 -37.671875 21.84375 -36.890625 21.84375 -35.734375 C 21.84375 -35.484375 21.875 -35.226562 21.9375 -34.96875 C 22 -34.71875 22.125 -34.476562 22.3125 -34.25 C 22.507812 -34.03125 22.6875 -33.835938 22.84375 -33.671875 C 23.007812 -33.515625 23.28125 -33.335938 23.65625 -33.140625 C 24.039062 -32.953125 24.34375 -32.8125 24.5625 -32.71875 C 24.789062 -32.625 25.160156 -32.476562 25.671875 -32.28125 C 26.179688 -32.09375 26.5625 -31.953125 26.8125 -31.859375 C 27.070312 -31.765625 27.503906 -31.617188 28.109375 -31.421875 C 28.722656 -31.234375 29.191406 -31.109375 29.515625 -31.046875 C 31.492188 -30.472656 33.21875 -29.832031 34.6875 -29.125 C 36.15625 -28.425781 37.703125 -27.46875 39.328125 -26.25 C 40.960938 -25.039062 42.222656 -23.507812 43.109375 -21.65625 C 44.003906 -19.800781 44.453125 -17.691406 44.453125 -15.328125 C 44.453125 -4.148438 36.691406 1.4375 21.171875 1.4375 C 17.660156 1.4375 14.320312 0.894531 11.15625 -0.1875 C 8 -1.28125 5.71875 -2.367188 4.3125 -3.453125 L 2.203125 -5.171875 L 9.109375 -16.765625 C 9.617188 -16.316406 10.285156 -15.789062 11.109375 -15.1875 C 11.941406 -14.582031 13.441406 -13.75 15.609375 -12.6875 C 17.785156 -11.632812 19.671875 -11.109375 21.265625 -11.109375 C 24.785156 -11.109375 26.546875 -12.289062 26.546875 -14.65625 C 26.546875 -15.738281 26.097656 -16.582031 25.203125 -17.1875 C 24.304688 -17.800781 22.785156 -18.488281 20.640625 -19.25 C 18.503906 -20.019531 16.832031 -20.722656 15.625 -21.359375 C 12.550781 -22.960938 10.117188 -24.769531 8.328125 -26.78125 C 6.546875 -28.789062 5.65625 -31.457031 5.65625 -34.78125 C 5.65625 -39.757812 7.585938 -43.640625 11.453125 -46.421875 C 15.316406 -49.203125 20.535156 -50.59375 27.109375 -50.59375 Z M 27.109375 -50.59375 "/></g></g></g><g fill="#000000" fill-opacity="1"><g transform="translate(227.688191, 322.219256)"><g><path d="M 7.375 -76.546875 C 9.351562 -78.535156 11.71875 -79.53125 14.46875 -79.53125 C 17.21875 -79.53125 19.582031 -78.535156 21.5625 -76.546875 C 23.539062 -74.566406 24.53125 -72.203125 24.53125 -69.453125 C 24.53125 -66.710938 23.539062 -64.351562 21.5625 -62.375 C 19.582031 -60.394531 17.21875 -59.40625 14.46875 -59.40625 C 11.71875 -59.40625 9.351562 -60.394531 7.375 -62.375 C 5.394531 -64.351562 4.40625 -66.710938 4.40625 -69.453125 C 4.40625 -72.203125 5.394531 -74.566406 7.375 -76.546875 Z M 5.75 -49.15625 L 5.75 0 L 22.703125 0 L 22.703125 -49.15625 Z M 5.75 -49.15625 "/></g></g></g><g fill="#000000" fill-opacity="1"><g transform="translate(247.616256, 322.219256)"><g><path d="M 27.109375 -50.59375 C 29.921875 -50.59375 32.703125 -50.269531 35.453125 -49.625 C 38.203125 -48.988281 40.242188 -48.351562 41.578125 -47.71875 L 43.59375 -46.75 L 38.03125 -35.640625 C 34.195312 -37.679688 30.554688 -38.703125 27.109375 -38.703125 C 25.191406 -38.703125 23.832031 -38.492188 23.03125 -38.078125 C 22.238281 -37.671875 21.84375 -36.890625 21.84375 -35.734375 C 21.84375 -35.484375 21.875 -35.226562 21.9375 -34.96875 C 22 -34.71875 22.125 -34.476562 22.3125 -34.25 C 22.507812 -34.03125 22.6875 -33.835938 22.84375 -33.671875 C 23.007812 -33.515625 23.28125 -33.335938 23.65625 -33.140625 C 24.039062 -32.953125 24.34375 -32.8125 24.5625 -32.71875 C 24.789062 -32.625 25.160156 -32.476562 25.671875 -32.28125 C 26.179688 -32.09375 26.5625 -31.953125 26.8125 -31.859375 C 27.070312 -31.765625 27.503906 -31.617188 28.109375 -31.421875 C 28.722656 -31.234375 29.191406 -31.109375 29.515625 -31.046875 C 31.492188 -30.472656 33.21875 -29.832031 34.6875 -29.125 C 36.15625 -28.425781 37.703125 -27.46875 39.328125 -26.25 C 40.960938 -25.039062 42.222656 -23.507812 43.109375 -21.65625 C 44.003906 -19.800781 44.453125 -17.691406 44.453125 -15.328125 C 44.453125 -4.148438 36.691406 1.4375 21.171875 1.4375 C 17.660156 1.4375 14.320312 0.894531 11.15625 -0.1875 C 8 -1.28125 5.71875 -2.367188 4.3125 -3.453125 L 2.203125 -5.171875 L 9.109375 -16.765625 C 9.617188 -16.316406 10.285156 -15.789062 11.109375 -15.1875 C 11.941406 -14.582031 13.441406 -13.75 15.609375 -12.6875 C 17.785156 -11.632812 19.671875 -11.109375 21.265625 -11.109375 C 24.785156 -11.109375 26.546875 -12.289062 26.546875 -14.65625 C 26.546875 -15.738281 26.097656 -16.582031 25.203125 -17.1875 C 24.304688 -17.800781 22.785156 -18.488281 20.640625 -19.25 C 18.503906 -20.019531 16.832031 -20.722656 15.625 -21.359375 C 12.550781 -22.960938 10.117188 -24.769531 8.328125 -26.78125 C 6.546875 -28.789062 5.65625 -31.457031 5.65625 -34.78125 C 5.65625 -39.757812 7.585938 -43.640625 11.453125 -46.421875 C 15.316406 -49.203125 20.535156 -50.59375 27.109375 -50.59375 Z M 27.109375 -50.59375 "/></g></g></g><path fill="#f1efe7" d="M -139.621094 321.433594 C -128.140625 333.511719 -115.453125 344.082031 -98.050781 346.160156 C -86.894531 347.488281 -77.925781 345.585938 -71.167969 342.40625 C -52.007812 333.386719 -35.566406 321.769531 -18.03125 312.046875 C -5.230469 304.945312 8.605469 302.554688 21.980469 302.96875 C 36.578125 303.417969 48.859375 308.035156 58.238281 314.546875 C 71.6875 323.882812 78.160156 338.070312 70.429688 351.164062 C 60.347656 368.246094 41.28125 361.6875 34.484375 344.28125 C 38.742188 364.980469 62.074219 375.601562 74.203125 354.007812 C 76.902344 349.207031 77.632812 342.671875 76.992188 336.769531 C 76.261719 329.988281 71.503906 323.625 66.988281 317.050781 C 80.0625 326.832031 87.519531 338.71875 82.617188 355.234375 C 86.136719 351.359375 88.105469 346.078125 86.683594 337.710938 C 83.890625 328.652344 78.355469 320.242188 67.929688 312.980469 C 56.140625 305.800781 42.589844 299.328125 25.730469 297.648438 C 15.101562 296.585938 4.0625 297.089844 -10.53125 301.714844 C -16.570312 303.632812 -23.386719 306.441406 -30.535156 311.105469 C -44.378906 320.136719 -57.246094 331.675781 -74.292969 338.332031 C -95.785156 346.726562 -118.085938 341.382812 -139.621094 321.433594 " fill-opacity="1" fill-rule="evenodd"/><path fill="#f1efe7" d="M -64.605469 346.160156 C -53.660156 345.34375 -43.5 341.824219 -33.035156 337.394531 C -19.957031 331.859375 -6.832031 328.960938 5.726562 329.570312 C 20.050781 330.261719 31.246094 335.460938 41.359375 339.585938 C 34.414062 334.058594 27.09375 327.375 4.160156 325.816406 C -8.628906 324.941406 -21.433594 328.605469 -34.285156 335.203125 C -43.402344 339.882812 -53.65625 343.351562 -64.605469 346.160156 " fill-opacity="1" fill-rule="evenodd"/><path fill="#f1efe7" d="M -77.109375 353.355469 C -64.96875 353.914062 -53.199219 353.394531 -42.410156 349.914062 C -33.347656 346.988281 -24.445312 343.511719 -15.214844 341.148438 C -1.871094 337.734375 7.113281 340.074219 16.042969 341.777344 C 7.90625 338.140625 1.160156 332.074219 -17.40625 336.769531 C -26.691406 339.117188 -35.09375 344.132812 -43.972656 347.722656 C -53.203125 351.453125 -64.710938 352.835938 -77.109375 353.355469 " fill-opacity="1" fill-rule="evenodd"/><path fill="#f1efe7" d="M 20.105469 300.464844 C 29.945312 295.832031 38.972656 288.53125 51.050781 282.308594 C 60.648438 277.367188 72.050781 276.96875 81.679688 280.746094 C 93.972656 285.566406 100.5625 302.542969 89.910156 308.128906 C 84.269531 311.082031 78.328125 310.757812 75.429688 304.53125 C 76.210938 313.320312 84.832031 314.308594 91.503906 310.53125 C 102.738281 304.164062 101.226562 284.050781 83.558594 277.929688 C 74.695312 274.855469 62.898438 275.636719 50.734375 280.121094 C 60.257812 276 70.953125 271.65625 83.242188 274.175781 C 92.71875 276.109375 100.953125 281.75 104.1875 289.195312 C 107.355469 296.492188 105.226562 303.980469 98.871094 310.476562 C 106.945312 306.679688 113.929688 300.484375 109.8125 287.632812 C 107.132812 279.257812 99.320312 271.882812 82.933594 270.796875 C 70.4375 269.964844 58.761719 272.574219 50.113281 278.554688 C 40.097656 285.476562 30.683594 293.546875 20.105469 300.464844 " fill-opacity="1" fill-rule="evenodd"/><path fill="#f1efe7" d="M -6.152344 316.425781 C 11.886719 312.308594 28.746094 312.746094 43.546875 320.496094 C 52.457031 325.15625 59.613281 331.269531 57.925781 340.523438 C 57.015625 345.5 52.671875 346.8125 46.671875 344.90625 C 50.285156 349.320312 55.789062 351.460938 61.050781 344.59375 C 68.15625 335.320312 61.839844 324.355469 44.484375 316.425781 C 27.5 308.664062 10.277344 309.460938 -6.152344 316.425781 " fill-opacity="1" fill-rule="evenodd"/><path fill="#f1efe7" d="M 75.671875 321.523438 C 83.378906 321.820312 90.597656 321.222656 96.496094 317.8125 C 106.15625 312.222656 113.496094 303 123.453125 297.957031 C 144.015625 287.546875 172.671875 301.441406 171.714844 325.71875 C 170.03125 368.320312 115.140625 349.144531 133.621094 324.914062 C 125.707031 351.195312 166.429688 354.246094 166.710938 324.914062 C 166.925781 302.761719 142.871094 291.5 123.9375 301.671875 C 114.160156 306.921875 106.582031 315.644531 96.980469 321.203125 C 91.132812 324.585938 84.214844 325.25 77.449219 324.589844 C 76.859375 323.566406 76.265625 322.546875 75.671875 321.523438 " fill-opacity="1" fill-rule="evenodd"/><path fill="#f1efe7" d="M 81.484375 330.5625 C 103.816406 328.085938 114.011719 306.339844 137.011719 307.964844 C 113.703125 308.332031 105.667969 332.160156 83.421875 334.597656 C 82.773438 333.253906 82.132812 331.910156 81.484375 330.5625 " fill-opacity="1" fill-rule="evenodd"/><path fill="#f1efe7" d="M 85.519531 339.117188 C 105.046875 338.59375 113.570312 317.242188 131.523438 318.457031 C 113.4375 321.683594 105.007812 340.355469 85.683594 342.992188 C 85.625 341.699219 85.574219 340.40625 85.519531 339.117188 " fill-opacity="1" fill-rule="evenodd"/><path fill="#f1efe7" d="M 144.757812 308.445312 C 163.585938 315.339844 159.804688 346.359375 142.660156 337.339844 C 136.609375 334.160156 139.457031 329.253906 139.917969 325.558594 C 140.085938 328.300781 139.464844 331.976562 143.304688 333.789062 C 158.246094 340.84375 157.875 315.230469 144.757812 308.445312 " fill-opacity="1" fill-rule="evenodd"/><path fill="#f1efe7" d="M 170.101562 328.300781 C 169.5625 329.972656 169.023438 331.640625 168.484375 333.308594 C 186.429688 342.28125 205.578125 341.671875 224.820312 340.246094 C 204.480469 339.242188 185.269531 336.636719 170.101562 328.300781 " fill-opacity="1" fill-rule="evenodd"/><path fill="#f1efe7" d="M 167.519531 336.855469 C 179.835938 343.855469 193.503906 346.8125 207.546875 348.640625 C 192.621094 348.148438 177.789062 347.46875 165.902344 340.894531 C 166.441406 339.550781 166.980469 338.203125 167.519531 336.855469 " fill-opacity="1" fill-rule="evenodd"/><path fill="#f1efe7" d="M 163.644531 343.476562 C 170.945312 347.78125 180.605469 350.742188 190.925781 353.324219 C 178.378906 352.035156 166.695312 350.421875 161.0625 346.542969 C 161.925781 345.519531 162.785156 344.496094 163.644531 343.476562 " fill-opacity="1" fill-rule="evenodd"/><path fill="#f1efe7" d="M 42.746094 298.117188 C 57.164062 292.414062 68.570312 293.167969 76.964844 300.378906 C 76.105469 297.417969 72.714844 294.457031 68.410156 291.5 C 77.300781 291.175781 82.867188 294.945312 86.164062 301.507812 C 85.949219 293.542969 81.746094 286.703125 68.570312 286.660156 C 58.5 286.621094 49.753906 291.097656 42.746094 298.117188 " fill-opacity="1" fill-rule="evenodd"/><g fill="#000000" fill-opacity="1"><g transform="translate(65.190507, 346.188313)"><g><path d="M 9.625 -18.5 C 10.519531 -18.5 11.367188 -18.226562 12.171875 -17.6875 C 12.984375 -17.15625 13.632812 -16.429688 14.125 -15.515625 C 14.625 -14.609375 14.875 -13.617188 14.875 -12.546875 C 14.875 -11.492188 14.625 -10.507812 14.125 -9.59375 C 13.632812 -8.675781 12.984375 -7.945312 12.171875 -7.40625 C 11.367188 -6.875 10.519531 -6.609375 9.625 -6.609375 L 5.015625 -6.609375 L 5.015625 -1.609375 C 5.015625 -1.128906 4.875 -0.738281 4.59375 -0.4375 C 4.3125 -0.144531 3.941406 0 3.484375 0 C 3.046875 0 2.6875 -0.148438 2.40625 -0.453125 C 2.125 -0.765625 1.984375 -1.148438 1.984375 -1.609375 L 1.984375 -16.890625 C 1.984375 -17.347656 2.132812 -17.726562 2.4375 -18.03125 C 2.75 -18.34375 3.132812 -18.5 3.59375 -18.5 Z M 9.625 -9.625 C 9.957031 -9.625 10.285156 -9.765625 10.609375 -10.046875 C 10.929688 -10.328125 11.191406 -10.691406 11.390625 -11.140625 C 11.597656 -11.585938 11.703125 -12.054688 11.703125 -12.546875 C 11.703125 -13.046875 11.597656 -13.519531 11.390625 -13.96875 C 11.191406 -14.414062 10.929688 -14.773438 10.609375 -15.046875 C 10.285156 -15.316406 9.957031 -15.453125 9.625 -15.453125 L 5.015625 -15.453125 L 5.015625 -9.625 Z M 9.625 -9.625 "/></g></g></g><g fill="#000000" fill-opacity="1"><g transform="translate(82.712216, 346.188313)"><g><path d="M 13.15625 -14.40625 C 13.613281 -14.40625 13.992188 -14.253906 14.296875 -13.953125 C 14.597656 -13.648438 14.75 -13.257812 14.75 -12.78125 L 14.75 -1.609375 C 14.75 -1.148438 14.597656 -0.765625 14.296875 -0.453125 C 13.992188 -0.148438 13.613281 0 13.15625 0 C 12.695312 0 12.320312 -0.144531 12.03125 -0.4375 C 11.738281 -0.738281 11.585938 -1.117188 11.578125 -1.578125 C 11.128906 -1.066406 10.53125 -0.628906 9.78125 -0.265625 C 9.039062 0.0859375 8.253906 0.265625 7.421875 0.265625 C 6.203125 0.265625 5.097656 -0.046875 4.109375 -0.671875 C 3.128906 -1.296875 2.351562 -2.160156 1.78125 -3.265625 C 1.207031 -4.378906 0.921875 -5.640625 0.921875 -7.046875 C 0.921875 -8.460938 1.203125 -9.726562 1.765625 -10.84375 C 2.328125 -11.96875 3.097656 -12.84375 4.078125 -13.46875 C 5.054688 -14.09375 6.132812 -14.40625 7.3125 -14.40625 C 8.164062 -14.40625 8.960938 -14.25 9.703125 -13.9375 C 10.441406 -13.625 11.066406 -13.234375 11.578125 -12.765625 L 11.578125 -12.78125 C 11.578125 -13.238281 11.722656 -13.625 12.015625 -13.9375 C 12.316406 -14.25 12.695312 -14.40625 13.15625 -14.40625 Z M 7.828125 -2.640625 C 8.960938 -2.640625 9.890625 -3.054688 10.609375 -3.890625 C 11.335938 -4.734375 11.703125 -5.785156 11.703125 -7.046875 C 11.703125 -8.316406 11.335938 -9.375 10.609375 -10.21875 C 9.890625 -11.070312 8.960938 -11.5 7.828125 -11.5 C 6.691406 -11.5 5.765625 -11.070312 5.046875 -10.21875 C 4.328125 -9.375 3.96875 -8.316406 3.96875 -7.046875 C 3.96875 -5.785156 4.320312 -4.734375 5.03125 -3.890625 C 5.75 -3.054688 6.679688 -2.640625 7.828125 -2.640625 Z M 7.828125 -2.640625 "/></g></g></g><g fill="#000000" fill-opacity="1"><g transform="translate(100.762466, 346.188313)"><g><path d="M 9.0625 -14.40625 C 9.59375 -14.40625 10.035156 -14.253906 10.390625 -13.953125 C 10.753906 -13.648438 10.9375 -13.296875 10.9375 -12.890625 C 10.9375 -12.347656 10.796875 -11.9375 10.515625 -11.65625 C 10.234375 -11.382812 9.898438 -11.25 9.515625 -11.25 C 9.242188 -11.25 8.941406 -11.3125 8.609375 -11.4375 C 8.554688 -11.457031 8.4375 -11.492188 8.25 -11.546875 C 8.070312 -11.597656 7.875 -11.625 7.65625 -11.625 C 7.195312 -11.625 6.753906 -11.484375 6.328125 -11.203125 C 5.910156 -10.921875 5.566406 -10.492188 5.296875 -9.921875 C 5.023438 -9.347656 4.890625 -8.664062 4.890625 -7.875 L 4.890625 -1.609375 C 4.890625 -1.148438 4.738281 -0.765625 4.4375 -0.453125 C 4.132812 -0.148438 3.753906 0 3.296875 0 C 2.835938 0 2.457031 -0.148438 2.15625 -0.453125 C 1.863281 -0.765625 1.71875 -1.148438 1.71875 -1.609375 L 1.71875 -12.53125 C 1.71875 -12.976562 1.863281 -13.359375 2.15625 -13.671875 C 2.457031 -13.984375 2.835938 -14.140625 3.296875 -14.140625 C 3.753906 -14.140625 4.132812 -13.984375 4.4375 -13.671875 C 4.738281 -13.359375 4.890625 -12.976562 4.890625 -12.53125 L 4.890625 -12.1875 C 5.296875 -12.90625 5.875 -13.453125 6.625 -13.828125 C 7.382812 -14.210938 8.195312 -14.40625 9.0625 -14.40625 Z M 9.0625 -14.40625 "/></g></g></g><g fill="#000000" fill-opacity="1"><g transform="translate(113.817942, 346.188313)"><g><path d="M 13.15625 -14.40625 C 13.613281 -14.40625 13.992188 -14.253906 14.296875 -13.953125 C 14.597656 -13.648438 14.75 -13.257812 14.75 -12.78125 L 14.75 -1.609375 C 14.75 -1.148438 14.597656 -0.765625 14.296875 -0.453125 C 13.992188 -0.148438 13.613281 0 13.15625 0 C 12.695312 0 12.320312 -0.144531 12.03125 -0.4375 C 11.738281 -0.738281 11.585938 -1.117188 11.578125 -1.578125 C 11.128906 -1.066406 10.53125 -0.628906 9.78125 -0.265625 C 9.039062 0.0859375 8.253906 0.265625 7.421875 0.265625 C 6.203125 0.265625 5.097656 -0.046875 4.109375 -0.671875 C 3.128906 -1.296875 2.351562 -2.160156 1.78125 -3.265625 C 1.207031 -4.378906 0.921875 -5.640625 0.921875 -7.046875 C 0.921875 -8.460938 1.203125 -9.726562 1.765625 -10.84375 C 2.328125 -11.96875 3.097656 -12.84375 4.078125 -13.46875 C 5.054688 -14.09375 6.132812 -14.40625 7.3125 -14.40625 C 8.164062 -14.40625 8.960938 -14.25 9.703125 -13.9375 C 10.441406 -13.625 11.066406 -13.234375 11.578125 -12.765625 L 11.578125 -12.78125 C 11.578125 -13.238281 11.722656 -13.625 12.015625 -13.9375 C 12.316406 -14.25 12.695312 -14.40625 13.15625 -14.40625 Z M 7.828125 -2.640625 C 8.960938 -2.640625 9.890625 -3.054688 10.609375 -3.890625 C 11.335938 -4.734375 11.703125 -5.785156 11.703125 -7.046875 C 11.703125 -8.316406 11.335938 -9.375 10.609375 -10.21875 C 9.890625 -11.070312 8.960938 -11.5 7.828125 -11.5 C 6.691406 -11.5 5.765625 -11.070312 5.046875 -10.21875 C 4.328125 -9.375 3.96875 -8.316406 3.96875 -7.046875 C 3.96875 -5.785156 4.320312 -4.734375 5.03125 -3.890625 C 5.75 -3.054688 6.679688 -2.640625 7.828125 -2.640625 Z M 7.828125 -2.640625 "/></g></g></g><g fill="#000000" fill-opacity="1"><g transform="translate(131.868194, 346.188313)"><g><path d="M 13.15625 -19.546875 C 13.613281 -19.546875 13.992188 -19.394531 14.296875 -19.09375 C 14.597656 -18.800781 14.75 -18.414062 14.75 -17.9375 L 14.75 -1.609375 C 14.75 -1.148438 14.597656 -0.765625 14.296875 -0.453125 C 13.992188 -0.148438 13.613281 0 13.15625 0 C 12.695312 0 12.320312 -0.144531 12.03125 -0.4375 C 11.738281 -0.738281 11.585938 -1.117188 11.578125 -1.578125 C 11.128906 -1.066406 10.53125 -0.628906 9.78125 -0.265625 C 9.039062 0.0859375 8.253906 0.265625 7.421875 0.265625 C 6.203125 0.265625 5.097656 -0.046875 4.109375 -0.671875 C 3.128906 -1.296875 2.351562 -2.160156 1.78125 -3.265625 C 1.207031 -4.378906 0.921875 -5.640625 0.921875 -7.046875 C 0.921875 -8.460938 1.203125 -9.726562 1.765625 -10.84375 C 2.328125 -11.96875 3.097656 -12.84375 4.078125 -13.46875 C 5.054688 -14.09375 6.132812 -14.40625 7.3125 -14.40625 C 8.164062 -14.40625 8.960938 -14.25 9.703125 -13.9375 C 10.441406 -13.625 11.066406 -13.234375 11.578125 -12.765625 L 11.578125 -17.9375 C 11.578125 -18.394531 11.722656 -18.773438 12.015625 -19.078125 C 12.316406 -19.390625 12.695312 -19.546875 13.15625 -19.546875 Z M 7.828125 -2.640625 C 8.960938 -2.640625 9.890625 -3.054688 10.609375 -3.890625 C 11.335938 -4.734375 11.703125 -5.785156 11.703125 -7.046875 C 11.703125 -8.316406 11.335938 -9.375 10.609375 -10.21875 C 9.890625 -11.070312 8.960938 -11.5 7.828125 -11.5 C 6.691406 -11.5 5.765625 -11.070312 5.046875 -10.21875 C 4.328125 -9.375 3.96875 -8.316406 3.96875 -7.046875 C 3.96875 -5.785156 4.320312 -4.734375 5.03125 -3.890625 C 5.75 -3.054688 6.679688 -2.640625 7.828125 -2.640625 Z M 7.828125 -2.640625 "/></g></g></g><g fill="#000000" fill-opacity="1"><g transform="translate(149.91844, 346.188313)"><g><path d="M 4.703125 -1.609375 C 4.703125 -1.148438 4.550781 -0.765625 4.25 -0.453125 C 3.957031 -0.148438 3.582031 0 3.125 0 C 2.664062 0 2.285156 -0.148438 1.984375 -0.453125 C 1.679688 -0.765625 1.53125 -1.148438 1.53125 -1.609375 L 1.53125 -12.53125 C 1.53125 -12.976562 1.679688 -13.359375 1.984375 -13.671875 C 2.285156 -13.984375 2.664062 -14.140625 3.125 -14.140625 C 3.582031 -14.140625 3.957031 -13.984375 4.25 -13.671875 C 4.550781 -13.359375 4.703125 -12.976562 4.703125 -12.53125 Z M 3.09375 -15.859375 C 2.5 -15.859375 2.078125 -15.953125 1.828125 -16.140625 C 1.578125 -16.335938 1.453125 -16.679688 1.453125 -17.171875 L 1.453125 -17.671875 C 1.453125 -18.171875 1.582031 -18.515625 1.84375 -18.703125 C 2.113281 -18.898438 2.539062 -19 3.125 -19 C 3.738281 -19 4.164062 -18.898438 4.40625 -18.703125 C 4.65625 -18.515625 4.78125 -18.171875 4.78125 -17.671875 L 4.78125 -17.171875 C 4.78125 -16.660156 4.648438 -16.3125 4.390625 -16.125 C 4.140625 -15.945312 3.707031 -15.859375 3.09375 -15.859375 Z M 3.09375 -15.859375 "/></g></g></g><g fill="#000000" fill-opacity="1"><g transform="translate(157.741317, 346.188313)"><g><path d="M 0.890625 -2.1875 C 0.734375 -2.40625 0.65625 -2.671875 0.65625 -2.984375 C 0.65625 -3.441406 0.882812 -3.828125 1.34375 -4.140625 C 1.59375 -4.304688 1.847656 -4.390625 2.109375 -4.390625 C 2.484375 -4.390625 2.835938 -4.222656 3.171875 -3.890625 C 3.703125 -3.335938 4.253906 -2.925781 4.828125 -2.65625 C 5.398438 -2.394531 6.085938 -2.265625 6.890625 -2.265625 C 8.265625 -2.316406 8.953125 -2.835938 8.953125 -3.828125 C 8.953125 -4.335938 8.71875 -4.722656 8.25 -4.984375 C 7.789062 -5.253906 7.066406 -5.519531 6.078125 -5.78125 C 5.054688 -6.0625 4.222656 -6.34375 3.578125 -6.625 C 2.929688 -6.90625 2.375 -7.332031 1.90625 -7.90625 C 1.445312 -8.476562 1.21875 -9.25 1.21875 -10.21875 C 1.21875 -11.070312 1.457031 -11.8125 1.9375 -12.4375 C 2.425781 -13.0625 3.0625 -13.546875 3.84375 -13.890625 C 4.625 -14.234375 5.457031 -14.40625 6.34375 -14.40625 C 7.238281 -14.40625 8.132812 -14.234375 9.03125 -13.890625 C 9.9375 -13.554688 10.644531 -13.066406 11.15625 -12.421875 C 11.382812 -12.140625 11.5 -11.820312 11.5 -11.46875 C 11.5 -11.0625 11.328125 -10.726562 10.984375 -10.46875 C 10.742188 -10.269531 10.460938 -10.171875 10.140625 -10.171875 C 9.753906 -10.171875 9.4375 -10.296875 9.1875 -10.546875 C 8.875 -10.929688 8.46875 -11.238281 7.96875 -11.46875 C 7.46875 -11.695312 6.898438 -11.8125 6.265625 -11.8125 C 4.921875 -11.8125 4.25 -11.328125 4.25 -10.359375 C 4.25 -9.972656 4.375 -9.660156 4.625 -9.421875 C 4.875 -9.179688 5.1875 -8.992188 5.5625 -8.859375 C 5.9375 -8.734375 6.46875 -8.570312 7.15625 -8.375 C 8.113281 -8.113281 8.90625 -7.84375 9.53125 -7.5625 C 10.164062 -7.28125 10.703125 -6.847656 11.140625 -6.265625 C 11.585938 -5.679688 11.8125 -4.914062 11.8125 -3.96875 C 11.8125 -3.101562 11.554688 -2.347656 11.046875 -1.703125 C 10.535156 -1.054688 9.878906 -0.566406 9.078125 -0.234375 C 8.273438 0.0976562 7.453125 0.265625 6.609375 0.265625 C 5.441406 0.265625 4.351562 0.0703125 3.34375 -0.3125 C 2.34375 -0.695312 1.523438 -1.320312 0.890625 -2.1875 Z M 0.890625 -2.1875 "/></g></g></g><g fill="#000000" fill-opacity="1"><g transform="translate(172.065313, 346.188313)"><g><path d="M 14.40625 -7.390625 C 14.382812 -6.972656 14.210938 -6.628906 13.890625 -6.359375 C 13.578125 -6.097656 13.207031 -5.96875 12.78125 -5.96875 L 4.0625 -5.96875 C 4.28125 -4.925781 4.765625 -4.109375 5.515625 -3.515625 C 6.273438 -2.929688 7.128906 -2.640625 8.078125 -2.640625 C 8.804688 -2.640625 9.375 -2.703125 9.78125 -2.828125 C 10.1875 -2.960938 10.503906 -3.101562 10.734375 -3.25 C 10.972656 -3.40625 11.140625 -3.507812 11.234375 -3.5625 C 11.546875 -3.726562 11.84375 -3.8125 12.125 -3.8125 C 12.5 -3.8125 12.816406 -3.675781 13.078125 -3.40625 C 13.335938 -3.144531 13.46875 -2.835938 13.46875 -2.484375 C 13.46875 -2.003906 13.222656 -1.570312 12.734375 -1.1875 C 12.242188 -0.78125 11.582031 -0.4375 10.75 -0.15625 C 9.925781 0.125 9.09375 0.265625 8.25 0.265625 C 6.769531 0.265625 5.476562 -0.0390625 4.375 -0.65625 C 3.269531 -1.269531 2.414062 -2.117188 1.8125 -3.203125 C 1.21875 -4.285156 0.921875 -5.507812 0.921875 -6.875 C 0.921875 -8.382812 1.238281 -9.710938 1.875 -10.859375 C 2.507812 -12.003906 3.34375 -12.878906 4.375 -13.484375 C 5.414062 -14.097656 6.53125 -14.40625 7.71875 -14.40625 C 8.875 -14.40625 9.96875 -14.085938 11 -13.453125 C 12.03125 -12.816406 12.851562 -11.960938 13.46875 -10.890625 C 14.09375 -9.816406 14.40625 -8.648438 14.40625 -7.390625 Z M 7.71875 -11.5 C 5.675781 -11.5 4.46875 -10.535156 4.09375 -8.609375 L 11.015625 -8.609375 L 11.015625 -8.796875 C 10.941406 -9.535156 10.578125 -10.171875 9.921875 -10.703125 C 9.273438 -11.234375 8.539062 -11.5 7.71875 -11.5 Z M 7.71875 -11.5 "/></g></g></g><g fill="#000000" fill-opacity="1"><g transform="translate(188.979187, 346.188313)"><g/></g></g><g fill="#000000" fill-opacity="1"><g transform="translate(197.964854, 346.188313)"><g><path d="M 13.15625 -14.40625 C 13.613281 -14.40625 13.992188 -14.253906 14.296875 -13.953125 C 14.597656 -13.648438 14.75 -13.257812 14.75 -12.78125 L 14.75 -1.609375 C 14.75 -1.148438 14.597656 -0.765625 14.296875 -0.453125 C 13.992188 -0.148438 13.613281 0 13.15625 0 C 12.695312 0 12.320312 -0.144531 12.03125 -0.4375 C 11.738281 -0.738281 11.585938 -1.117188 11.578125 -1.578125 C 11.128906 -1.066406 10.53125 -0.628906 9.78125 -0.265625 C 9.039062 0.0859375 8.253906 0.265625 7.421875 0.265625 C 6.203125 0.265625 5.097656 -0.046875 4.109375 -0.671875 C 3.128906 -1.296875 2.351562 -2.160156 1.78125 -3.265625 C 1.207031 -4.378906 0.921875 -5.640625 0.921875 -7.046875 C 0.921875 -8.460938 1.203125 -9.726562 1.765625 -10.84375 C 2.328125 -11.96875 3.097656 -12.84375 4.078125 -13.46875 C 5.054688 -14.09375 6.132812 -14.40625 7.3125 -14.40625 C 8.164062 -14.40625 8.960938 -14.25 9.703125 -13.9375 C 10.441406 -13.625 11.066406 -13.234375 11.578125 -12.765625 L 11.578125 -12.78125 C 11.578125 -13.238281 11.722656 -13.625 12.015625 -13.9375 C 12.316406 -14.25 12.695312 -14.40625 13.15625 -14.40625 Z M 7.828125 -2.640625 C 8.960938 -2.640625 9.890625 -3.054688 10.609375 -3.890625 C 11.335938 -4.734375 11.703125 -5.785156 11.703125 -7.046875 C 11.703125 -8.316406 11.335938 -9.375 10.609375 -10.21875 C 9.890625 -11.070312 8.960938 -11.5 7.828125 -11.5 C 6.691406 -11.5 5.765625 -11.070312 5.046875 -10.21875 C 4.328125 -9.375 3.96875 -8.316406 3.96875 -7.046875 C 3.96875 -5.785156 4.320312 -4.734375 5.03125 -3.890625 C 5.75 -3.054688 6.679688 -2.640625 7.828125 -2.640625 Z M 7.828125 -2.640625 "/></g></g></g><g fill="#000000" fill-opacity="1"><g transform="translate(216.015105, 346.188313)"><g><path d="M 8.53125 -2.984375 C 8.78125 -2.984375 9.003906 -2.863281 9.203125 -2.625 C 9.410156 -2.382812 9.515625 -2.070312 9.515625 -1.6875 C 9.515625 -1.21875 9.253906 -0.816406 8.734375 -0.484375 C 8.210938 -0.160156 7.625 0 6.96875 0 C 5.882812 0 4.96875 -0.234375 4.21875 -0.703125 C 3.46875 -1.171875 3.09375 -2.160156 3.09375 -3.671875 L 3.09375 -10.96875 L 1.875 -10.96875 C 1.445312 -10.96875 1.09375 -11.109375 0.8125 -11.390625 C 0.53125 -11.671875 0.390625 -12.019531 0.390625 -12.4375 C 0.390625 -12.84375 0.53125 -13.179688 0.8125 -13.453125 C 1.09375 -13.734375 1.445312 -13.875 1.875 -13.875 L 3.09375 -13.875 L 3.09375 -15.5625 C 3.09375 -16.019531 3.242188 -16.398438 3.546875 -16.703125 C 3.859375 -17.015625 4.242188 -17.171875 4.703125 -17.171875 C 5.140625 -17.171875 5.507812 -17.015625 5.8125 -16.703125 C 6.113281 -16.398438 6.265625 -16.019531 6.265625 -15.5625 L 6.265625 -13.875 L 8.140625 -13.875 C 8.554688 -13.875 8.90625 -13.734375 9.1875 -13.453125 C 9.476562 -13.171875 9.625 -12.816406 9.625 -12.390625 C 9.625 -11.984375 9.476562 -11.644531 9.1875 -11.375 C 8.90625 -11.101562 8.554688 -10.96875 8.140625 -10.96875 L 6.265625 -10.96875 L 6.265625 -3.8125 C 6.265625 -3.4375 6.359375 -3.164062 6.546875 -3 C 6.742188 -2.832031 7.007812 -2.75 7.34375 -2.75 C 7.488281 -2.75 7.679688 -2.785156 7.921875 -2.859375 C 8.140625 -2.941406 8.34375 -2.984375 8.53125 -2.984375 Z M 8.53125 -2.984375 "/></g></g></g><g fill="#000000" fill-opacity="1"><g transform="translate(228.409894, 346.188313)"><g/></g></g><g fill="#000000" fill-opacity="1"><g transform="translate(237.395561, 346.188313)"><g><path d="M 22.78125 -18.578125 C 23.195312 -18.578125 23.585938 -18.410156 23.953125 -18.078125 C 24.316406 -17.753906 24.5 -17.347656 24.5 -16.859375 C 24.5 -16.703125 24.46875 -16.523438 24.40625 -16.328125 L 19.203125 -1 C 19.097656 -0.707031 18.910156 -0.472656 18.640625 -0.296875 C 18.378906 -0.117188 18.09375 -0.0195312 17.78125 0 C 17.46875 0 17.164062 -0.0859375 16.875 -0.265625 C 16.59375 -0.441406 16.375 -0.695312 16.21875 -1.03125 L 12.46875 -9.5625 L 8.6875 -1.03125 C 8.53125 -0.695312 8.3125 -0.441406 8.03125 -0.265625 C 7.75 -0.0859375 7.453125 0 7.140625 0 C 6.816406 -0.0195312 6.519531 -0.117188 6.25 -0.296875 C 5.988281 -0.472656 5.804688 -0.707031 5.703125 -1 L 0.5 -16.328125 C 0.445312 -16.523438 0.421875 -16.703125 0.421875 -16.859375 C 0.421875 -17.347656 0.597656 -17.753906 0.953125 -18.078125 C 1.316406 -18.410156 1.722656 -18.578125 2.171875 -18.578125 C 2.515625 -18.578125 2.828125 -18.484375 3.109375 -18.296875 C 3.398438 -18.109375 3.597656 -17.859375 3.703125 -17.546875 L 7.640625 -5.59375 L 11.078125 -13.84375 C 11.210938 -14.164062 11.410156 -14.414062 11.671875 -14.59375 C 11.941406 -14.78125 12.242188 -14.863281 12.578125 -14.84375 C 12.910156 -14.863281 13.203125 -14.78125 13.453125 -14.59375 C 13.710938 -14.414062 13.914062 -14.164062 14.0625 -13.84375 L 17.3125 -5.6875 L 21.21875 -17.546875 C 21.320312 -17.859375 21.519531 -18.109375 21.8125 -18.296875 C 22.101562 -18.484375 22.425781 -18.578125 22.78125 -18.578125 Z M 22.78125 -18.578125 "/></g></g></g><g fill="#000000" fill-opacity="1"><g transform="translate(263.90256, 346.188313)"><g><path d="M 15.296875 -7.046875 C 15.296875 -5.640625 14.976562 -4.375 14.34375 -3.25 C 13.707031 -2.132812 12.835938 -1.269531 11.734375 -0.65625 C 10.640625 -0.0390625 9.429688 0.265625 8.109375 0.265625 C 6.773438 0.265625 5.5625 -0.0390625 4.46875 -0.65625 C 3.375 -1.269531 2.507812 -2.132812 1.875 -3.25 C 1.238281 -4.375 0.921875 -5.640625 0.921875 -7.046875 C 0.921875 -8.460938 1.238281 -9.726562 1.875 -10.84375 C 2.507812 -11.96875 3.375 -12.84375 4.46875 -13.46875 C 5.5625 -14.09375 6.773438 -14.40625 8.109375 -14.40625 C 9.429688 -14.40625 10.640625 -14.09375 11.734375 -13.46875 C 12.835938 -12.84375 13.707031 -11.96875 14.34375 -10.84375 C 14.976562 -9.726562 15.296875 -8.460938 15.296875 -7.046875 Z M 12.125 -7.046875 C 12.125 -7.910156 11.941406 -8.679688 11.578125 -9.359375 C 11.222656 -10.046875 10.738281 -10.570312 10.125 -10.9375 C 9.519531 -11.3125 8.847656 -11.5 8.109375 -11.5 C 7.367188 -11.5 6.691406 -11.3125 6.078125 -10.9375 C 5.472656 -10.570312 4.988281 -10.046875 4.625 -9.359375 C 4.269531 -8.679688 4.09375 -7.910156 4.09375 -7.046875 C 4.09375 -6.191406 4.269531 -5.425781 4.625 -4.75 C 4.988281 -4.082031 5.472656 -3.5625 6.078125 -3.1875 C 6.691406 -2.820312 7.367188 -2.640625 8.109375 -2.640625 C 8.847656 -2.640625 9.519531 -2.820312 10.125 -3.1875 C 10.738281 -3.5625 11.222656 -4.082031 11.578125 -4.75 C 11.941406 -5.425781 12.125 -6.191406 12.125 -7.046875 Z M 12.125 -7.046875 "/></g></g></g><g fill="#000000" fill-opacity="1"><g transform="translate(281.714963, 346.188313)"><g><path d="M 9.0625 -14.40625 C 9.59375 -14.40625 10.035156 -14.253906 10.390625 -13.953125 C 10.753906 -13.648438 10.9375 -13.296875 10.9375 -12.890625 C 10.9375 -12.347656 10.796875 -11.9375 10.515625 -11.65625 C 10.234375 -11.382812 9.898438 -11.25 9.515625 -11.25 C 9.242188 -11.25 8.941406 -11.3125 8.609375 -11.4375 C 8.554688 -11.457031 8.4375 -11.492188 8.25 -11.546875 C 8.070312 -11.597656 7.875 -11.625 7.65625 -11.625 C 7.195312 -11.625 6.753906 -11.484375 6.328125 -11.203125 C 5.910156 -10.921875 5.566406 -10.492188 5.296875 -9.921875 C 5.023438 -9.347656 4.890625 -8.664062 4.890625 -7.875 L 4.890625 -1.609375 C 4.890625 -1.148438 4.738281 -0.765625 4.4375 -0.453125 C 4.132812 -0.148438 3.753906 0 3.296875 0 C 2.835938 0 2.457031 -0.148438 2.15625 -0.453125 C 1.863281 -0.765625 1.71875 -1.148438 1.71875 -1.609375 L 1.71875 -12.53125 C 1.71875 -12.976562 1.863281 -13.359375 2.15625 -13.671875 C 2.457031 -13.984375 2.835938 -14.140625 3.296875 -14.140625 C 3.753906 -14.140625 4.132812 -13.984375 4.4375 -13.671875 C 4.738281 -13.359375 4.890625 -12.976562 4.890625 -12.53125 L 4.890625 -12.1875 C 5.296875 -12.90625 5.875 -13.453125 6.625 -13.828125 C 7.382812 -14.210938 8.195312 -14.40625 9.0625 -14.40625 Z M 9.0625 -14.40625 "/></g></g></g><g fill="#000000" fill-opacity="1"><g transform="translate(294.770442, 346.188313)"><g><path d="M 13.46875 -2.78125 C 13.8125 -2.425781 13.984375 -2.023438 13.984375 -1.578125 C 13.984375 -1.140625 13.8125 -0.769531 13.46875 -0.46875 C 13.125 -0.175781 12.753906 -0.03125 12.359375 -0.03125 C 11.898438 -0.03125 11.515625 -0.207031 11.203125 -0.5625 L 6.453125 -5.578125 L 5.15625 -4.390625 L 5.15625 -1.609375 C 5.15625 -1.148438 5.003906 -0.765625 4.703125 -0.453125 C 4.398438 -0.148438 4.019531 0 3.5625 0 C 3.101562 0 2.722656 -0.148438 2.421875 -0.453125 C 2.128906 -0.765625 1.984375 -1.148438 1.984375 -1.609375 L 1.984375 -17.9375 C 1.984375 -18.394531 2.128906 -18.773438 2.421875 -19.078125 C 2.722656 -19.390625 3.101562 -19.546875 3.5625 -19.546875 C 4.019531 -19.546875 4.398438 -19.390625 4.703125 -19.078125 C 5.003906 -18.773438 5.15625 -18.394531 5.15625 -17.9375 L 5.15625 -8.171875 L 10.8125 -13.640625 C 11.144531 -13.972656 11.53125 -14.140625 11.96875 -14.140625 C 12.351562 -14.140625 12.695312 -13.972656 13 -13.640625 C 13.3125 -13.316406 13.46875 -12.988281 13.46875 -12.65625 C 13.46875 -12.226562 13.257812 -11.832031 12.84375 -11.46875 L 8.84375 -7.796875 Z M 13.46875 -2.78125 "/></g></g></g></svg>