<svg xmlns="http://www.w3.org/2000/svg" xmlns:xlink="http://www.w3.org/1999/xlink" width="50" zoomAndPan="magnify" viewBox="0 0 37.5 37.499999" height="50" preserveAspectRatio="xMidYMid meet" version="1.0"><defs><g/><clipPath id="785e1ce3bc"><path d="M 8.140625 1.628906 L 33 1.628906 L 33 25.3125 L 8.140625 25.3125 Z M 8.140625 1.628906 " clip-rule="nonzero"/></clipPath></defs><g clip-path="url(#785e1ce3bc)"><path fill="#000000" d="M 32.824219 9.90625 L 32.574219 10.175781 L 31.773438 11.035156 L 30.9375 11.9375 L 28.96875 14.035156 L 27.753906 15.34375 C 27.636719 15.460938 27.496094 15.519531 27.332031 15.523438 L 27.273438 15.523438 C 27.082031 15.5 26.9375 15.40625 26.839844 15.242188 L 25.199219 12.523438 C 25.121094 12.390625 25.101562 12.246094 25.136719 12.09375 C 25.175781 11.945312 25.261719 11.828125 25.394531 11.746094 C 25.535156 11.667969 25.679688 11.648438 25.832031 11.6875 C 25.984375 11.726562 26.105469 11.8125 26.183594 11.949219 L 27.433594 14.035156 L 28.96875 12.375 L 30.308594 10.933594 L 31.863281 9.261719 L 31.980469 9.140625 C 32.085938 9.023438 32.21875 8.964844 32.378906 8.957031 C 32.535156 8.949219 32.675781 9 32.792969 9.105469 C 32.910156 9.210938 32.96875 9.34375 32.976562 9.5 C 32.984375 9.65625 32.933594 9.792969 32.824219 9.90625 Z M 32.824219 9.90625 L 32.574219 10.175781 L 31.773438 11.035156 L 30.9375 11.9375 L 28.96875 14.035156 L 27.753906 15.34375 C 27.636719 15.460938 27.496094 15.519531 27.332031 15.523438 L 27.273438 15.523438 C 27.082031 15.5 26.9375 15.40625 26.839844 15.242188 L 25.199219 12.523438 C 25.121094 12.390625 25.101562 12.246094 25.136719 12.09375 C 25.175781 11.945312 25.261719 11.828125 25.394531 11.746094 C 25.535156 11.667969 25.679688 11.648438 25.832031 11.6875 C 25.984375 11.726562 26.105469 11.8125 26.183594 11.949219 L 27.433594 14.035156 L 28.96875 12.375 L 30.308594 10.933594 L 31.863281 9.261719 L 31.980469 9.140625 C 32.085938 9.023438 32.21875 8.964844 32.378906 8.957031 C 32.535156 8.949219 32.675781 9 32.792969 9.105469 C 32.910156 9.210938 32.96875 9.34375 32.976562 9.5 C 32.984375 9.65625 32.933594 9.792969 32.824219 9.90625 Z M 32.035156 11.597656 L 28.175781 15.738281 C 27.945312 15.972656 27.664062 16.09375 27.332031 16.097656 L 27.203125 16.097656 C 26.820312 16.050781 26.535156 15.863281 26.347656 15.535156 L 24.707031 12.816406 C 24.613281 12.6875 24.546875 12.542969 24.515625 12.386719 C 24.480469 12.234375 24.480469 12.078125 24.515625 11.921875 C 24.546875 11.765625 24.613281 11.621094 24.707031 11.492188 C 24.800781 11.363281 24.917969 11.257812 25.058594 11.179688 C 25.199219 11.097656 25.351562 11.050781 25.511719 11.03125 C 25.671875 11.015625 25.828125 11.03125 25.984375 11.078125 C 26.136719 11.128906 26.277344 11.203125 26.394531 11.3125 C 26.515625 11.417969 26.609375 11.542969 26.679688 11.6875 L 27.535156 13.097656 L 30.683594 9.714844 C 30.179688 9.265625 29.609375 8.925781 28.96875 8.699219 C 28.414062 8.5 27.839844 8.398438 27.25 8.394531 C 26.910156 8.394531 26.578125 8.425781 26.246094 8.492188 C 25.914062 8.558594 25.589844 8.652344 25.277344 8.78125 C 24.964844 8.910156 24.667969 9.066406 24.386719 9.25 C 24.105469 9.4375 23.847656 9.644531 23.605469 9.882812 C 23.367188 10.117188 23.15625 10.375 22.964844 10.652344 C 22.777344 10.929688 22.621094 11.21875 22.492188 11.527344 C 22.359375 11.835938 22.261719 12.152344 22.199219 12.480469 C 22.132812 12.808594 22.097656 13.136719 22.097656 13.46875 C 22.097656 13.804688 22.132812 14.132812 22.199219 14.460938 C 22.261719 14.789062 22.359375 15.105469 22.492188 15.414062 C 22.621094 15.71875 22.777344 16.011719 22.964844 16.289062 C 23.15625 16.566406 23.367188 16.824219 23.605469 17.058594 C 23.847656 17.292969 24.105469 17.503906 24.386719 17.691406 C 24.667969 17.875 24.964844 18.03125 25.277344 18.160156 C 25.589844 18.285156 25.914062 18.382812 26.246094 18.449219 C 26.578125 18.511719 26.910156 18.546875 27.25 18.546875 C 27.839844 18.546875 28.414062 18.449219 28.96875 18.253906 C 29.46875 18.078125 29.933594 17.832031 30.355469 17.515625 C 30.78125 17.199219 31.144531 16.824219 31.453125 16.398438 C 31.761719 15.96875 31.996094 15.503906 32.15625 15.007812 C 32.320312 14.507812 32.402344 13.996094 32.402344 13.46875 C 32.40625 12.824219 32.28125 12.199219 32.035156 11.597656 Z M 20.953125 13.46875 C 20.953125 13.878906 20.996094 14.28125 21.078125 14.679688 C 21.15625 15.078125 21.277344 15.464844 21.4375 15.84375 C 21.59375 16.21875 21.789062 16.574219 22.019531 16.914062 C 22.246094 17.253906 22.507812 17.566406 22.800781 17.851562 C 23.09375 18.140625 23.410156 18.398438 23.753906 18.625 C 24.097656 18.851562 24.460938 19.042969 24.84375 19.199219 C 25.222656 19.355469 25.617188 19.472656 26.023438 19.550781 C 26.429688 19.632812 26.835938 19.671875 27.25 19.671875 C 27.835938 19.675781 28.40625 19.597656 28.96875 19.4375 L 28.96875 22.492188 C 28.96875 22.867188 28.894531 23.226562 28.75 23.570312 C 28.605469 23.917969 28.398438 24.222656 28.128906 24.488281 C 27.859375 24.75 27.550781 24.953125 27.199219 25.097656 C 26.851562 25.242188 26.484375 25.3125 26.105469 25.3125 L 11.222656 25.3125 C 10.84375 25.3125 10.476562 25.242188 10.125 25.097656 C 9.777344 24.953125 9.464844 24.75 9.199219 24.488281 C 8.929688 24.222656 8.722656 23.917969 8.578125 23.570312 C 8.433594 23.226562 8.359375 22.867188 8.359375 22.492188 L 8.359375 4.449219 C 8.359375 4.074219 8.433594 3.714844 8.578125 3.367188 C 8.722656 3.023438 8.929688 2.71875 9.199219 2.453125 C 9.464844 2.191406 9.777344 1.984375 10.125 1.84375 C 10.476562 1.699219 10.84375 1.628906 11.222656 1.628906 L 26.105469 1.628906 C 26.484375 1.628906 26.851562 1.699219 27.199219 1.84375 C 27.550781 1.984375 27.859375 2.191406 28.128906 2.453125 C 28.398438 2.71875 28.605469 3.023438 28.75 3.367188 C 28.894531 3.714844 28.96875 4.074219 28.96875 4.449219 L 28.96875 7.503906 C 28.40625 7.34375 27.835938 7.265625 27.25 7.265625 C 26.835938 7.269531 26.429688 7.308594 26.023438 7.386719 C 25.617188 7.46875 25.222656 7.585938 24.84375 7.742188 C 24.460938 7.898438 24.097656 8.089844 23.753906 8.316406 C 23.410156 8.542969 23.09375 8.800781 22.800781 9.085938 C 22.507812 9.375 22.246094 9.6875 22.019531 10.027344 C 21.789062 10.363281 21.59375 10.722656 21.4375 11.097656 C 21.277344 11.472656 21.15625 11.863281 21.078125 12.261719 C 20.996094 12.660156 20.953125 13.0625 20.953125 13.46875 Z M 12.9375 15.726562 C 12.9375 15.882812 12.996094 16.015625 13.105469 16.125 C 13.21875 16.234375 13.355469 16.289062 13.511719 16.289062 L 19.234375 16.289062 C 19.394531 16.289062 19.527344 16.234375 19.640625 16.125 C 19.753906 16.015625 19.808594 15.882812 19.808594 15.726562 C 19.808594 15.570312 19.753906 15.4375 19.640625 15.328125 C 19.527344 15.21875 19.394531 15.164062 19.234375 15.164062 L 13.511719 15.164062 C 13.355469 15.164062 13.21875 15.21875 13.105469 15.328125 C 12.996094 15.4375 12.9375 15.570312 12.9375 15.726562 Z M 13.511719 11.777344 L 18.089844 11.777344 C 18.25 11.777344 18.382812 11.722656 18.496094 11.613281 C 18.609375 11.503906 18.664062 11.371094 18.664062 11.214844 C 18.664062 11.058594 18.609375 10.925781 18.496094 10.816406 C 18.382812 10.707031 18.25 10.652344 18.089844 10.652344 L 13.511719 10.652344 C 13.355469 10.652344 13.21875 10.707031 13.105469 10.816406 C 12.996094 10.925781 12.9375 11.058594 12.9375 11.214844 C 12.9375 11.371094 12.996094 11.503906 13.105469 11.613281 C 13.21875 11.722656 13.355469 11.777344 13.511719 11.777344 Z M 13.511719 19.671875 C 13.355469 19.671875 13.21875 19.726562 13.105469 19.839844 C 12.996094 19.949219 12.9375 20.082031 12.9375 20.238281 C 12.9375 20.394531 12.996094 20.527344 13.105469 20.636719 C 13.21875 20.746094 13.355469 20.800781 13.511719 20.800781 L 23.816406 20.800781 C 23.972656 20.800781 24.109375 20.746094 24.21875 20.636719 C 24.332031 20.527344 24.386719 20.394531 24.386719 20.238281 C 24.386719 20.082031 24.332031 19.949219 24.21875 19.839844 C 24.109375 19.726562 23.972656 19.671875 23.816406 19.671875 Z M 23.816406 7.265625 C 23.972656 7.265625 24.109375 7.210938 24.21875 7.101562 C 24.332031 6.992188 24.386719 6.859375 24.386719 6.703125 C 24.386719 6.546875 24.332031 6.414062 24.21875 6.304688 C 24.109375 6.195312 23.972656 6.140625 23.816406 6.140625 L 13.511719 6.140625 C 13.355469 6.140625 13.21875 6.195312 13.105469 6.304688 C 12.996094 6.414062 12.9375 6.546875 12.9375 6.703125 C 12.9375 6.859375 12.996094 6.992188 13.105469 7.101562 C 13.21875 7.210938 13.355469 7.265625 13.511719 7.265625 Z M 23.816406 7.265625 " fill-opacity="1" fill-rule="nonzero"/></g><g fill="#000000" fill-opacity="1"><g transform="translate(5.151981, 34.293604)"><g><path d="M 3.5625 -5.84375 L 3.5625 0 L 2.40625 0 L 2.40625 -5.84375 L 0.3125 -5.84375 L 0.3125 -6.90625 L 5.65625 -6.90625 L 5.65625 -5.84375 Z M 3.5625 -5.84375 "/></g></g></g><g fill="#000000" fill-opacity="1"><g transform="translate(10.389404, 34.293604)"><g><path d="M 5.0625 0 L 4.046875 0 L 4.046875 -0.703125 C 3.609375 -0.179688 3.023438 0.078125 2.296875 0.078125 C 1.753906 0.078125 1.300781 -0.0703125 0.9375 -0.375 C 0.582031 -0.6875 0.40625 -1.101562 0.40625 -1.625 C 0.40625 -2.144531 0.59375 -2.53125 0.96875 -2.78125 C 1.351562 -3.039062 1.875 -3.171875 2.53125 -3.171875 L 3.953125 -3.171875 L 3.953125 -3.375 C 3.953125 -4.070312 3.566406 -4.421875 2.796875 -4.421875 C 2.304688 -4.421875 1.800781 -4.238281 1.28125 -3.875 L 0.78125 -4.578125 C 1.414062 -5.078125 2.140625 -5.328125 2.953125 -5.328125 C 3.566406 -5.328125 4.070312 -5.171875 4.46875 -4.859375 C 4.863281 -4.546875 5.0625 -4.054688 5.0625 -3.390625 Z M 3.953125 -1.953125 L 3.953125 -2.40625 L 2.703125 -2.40625 C 1.910156 -2.40625 1.515625 -2.15625 1.515625 -1.65625 C 1.515625 -1.394531 1.613281 -1.195312 1.8125 -1.0625 C 2.007812 -0.925781 2.28125 -0.859375 2.625 -0.859375 C 2.976562 -0.859375 3.285156 -0.957031 3.546875 -1.15625 C 3.816406 -1.351562 3.953125 -1.617188 3.953125 -1.953125 Z M 3.953125 -1.953125 "/></g></g></g><g fill="#000000" fill-opacity="1"><g transform="translate(16.17988, 34.293604)"><g><path d="M 4.546875 -1.5625 C 4.546875 -1.0625 4.363281 -0.660156 4 -0.359375 C 3.632812 -0.0664062 3.171875 0.078125 2.609375 0.078125 C 2.222656 0.078125 1.820312 0.0078125 1.40625 -0.125 C 1 -0.257812 0.640625 -0.457031 0.328125 -0.71875 L 0.859375 -1.5625 C 1.472656 -1.101562 2.066406 -0.875 2.640625 -0.875 C 2.890625 -0.875 3.085938 -0.929688 3.234375 -1.046875 C 3.378906 -1.160156 3.453125 -1.304688 3.453125 -1.484375 C 3.453125 -1.753906 3.101562 -1.992188 2.40625 -2.203125 C 2.351562 -2.222656 2.3125 -2.234375 2.28125 -2.234375 C 1.1875 -2.535156 0.640625 -3.03125 0.640625 -3.71875 C 0.640625 -4.207031 0.828125 -4.597656 1.203125 -4.890625 C 1.585938 -5.179688 2.082031 -5.328125 2.6875 -5.328125 C 3.289062 -5.328125 3.863281 -5.148438 4.40625 -4.796875 L 3.984375 -3.984375 C 3.554688 -4.265625 3.09375 -4.40625 2.59375 -4.40625 C 2.332031 -4.40625 2.117188 -4.359375 1.953125 -4.265625 C 1.785156 -4.171875 1.703125 -4.023438 1.703125 -3.828125 C 1.703125 -3.660156 1.789062 -3.535156 1.96875 -3.453125 C 2.082031 -3.398438 2.242188 -3.34375 2.453125 -3.28125 C 2.671875 -3.226562 2.863281 -3.175781 3.03125 -3.125 C 3.195312 -3.070312 3.359375 -3.015625 3.515625 -2.953125 C 3.671875 -2.890625 3.835938 -2.796875 4.015625 -2.671875 C 4.367188 -2.441406 4.546875 -2.070312 4.546875 -1.5625 Z M 4.546875 -1.5625 "/></g></g></g><g fill="#000000" fill-opacity="1"><g transform="translate(21.17133, 34.293604)"><g><path d="M 1.90625 0 L 0.796875 0 L 0.796875 -7.328125 L 1.90625 -7.328125 L 1.90625 -3.015625 L 4.03125 -5.25 L 5.453125 -5.25 L 3.46875 -3.171875 L 5.609375 0 L 4.265625 0 L 2.703125 -2.296875 L 1.90625 -1.484375 Z M 1.90625 0 "/></g></g></g><g fill="#000000" fill-opacity="1"><g transform="translate(26.853253, 34.293604)"><g><path d="M 4.546875 -1.5625 C 4.546875 -1.0625 4.363281 -0.660156 4 -0.359375 C 3.632812 -0.0664062 3.171875 0.078125 2.609375 0.078125 C 2.222656 0.078125 1.820312 0.0078125 1.40625 -0.125 C 1 -0.257812 0.640625 -0.457031 0.328125 -0.71875 L 0.859375 -1.5625 C 1.472656 -1.101562 2.066406 -0.875 2.640625 -0.875 C 2.890625 -0.875 3.085938 -0.929688 3.234375 -1.046875 C 3.378906 -1.160156 3.453125 -1.304688 3.453125 -1.484375 C 3.453125 -1.753906 3.101562 -1.992188 2.40625 -2.203125 C 2.351562 -2.222656 2.3125 -2.234375 2.28125 -2.234375 C 1.1875 -2.535156 0.640625 -3.03125 0.640625 -3.71875 C 0.640625 -4.207031 0.828125 -4.597656 1.203125 -4.890625 C 1.585938 -5.179688 2.082031 -5.328125 2.6875 -5.328125 C 3.289062 -5.328125 3.863281 -5.148438 4.40625 -4.796875 L 3.984375 -3.984375 C 3.554688 -4.265625 3.09375 -4.40625 2.59375 -4.40625 C 2.332031 -4.40625 2.117188 -4.359375 1.953125 -4.265625 C 1.785156 -4.171875 1.703125 -4.023438 1.703125 -3.828125 C 1.703125 -3.660156 1.789062 -3.535156 1.96875 -3.453125 C 2.082031 -3.398438 2.242188 -3.34375 2.453125 -3.28125 C 2.671875 -3.226562 2.863281 -3.175781 3.03125 -3.125 C 3.195312 -3.070312 3.359375 -3.015625 3.515625 -2.953125 C 3.671875 -2.890625 3.835938 -2.796875 4.015625 -2.671875 C 4.367188 -2.441406 4.546875 -2.070312 4.546875 -1.5625 Z M 4.546875 -1.5625 "/></g></g></g></svg>