<svg xmlns="http://www.w3.org/2000/svg" xmlns:xlink="http://www.w3.org/1999/xlink" width="50" zoomAndPan="magnify" viewBox="0 0 37.5 37.499999" height="50" preserveAspectRatio="xMidYMid meet" version="1.0"><defs><g/><clipPath id="c23eab93e7"><path d="M 6.78125 20 L 22 20 L 22 23.0625 L 6.78125 23.0625 Z M 6.78125 20 " clip-rule="nonzero"/></clipPath><clipPath id="c50268565b"><path d="M 21 9 L 30.46875 9 L 30.46875 18 L 21 18 Z M 21 9 " clip-rule="nonzero"/></clipPath><clipPath id="425ace7ef3"><path d="M 26 2.335938 L 30 2.335938 L 30 7 L 26 7 Z M 26 2.335938 " clip-rule="nonzero"/></clipPath><clipPath id="e7b1b440a7"><path d="M 10 2.335938 L 27 2.335938 L 27 23.0625 L 10 23.0625 Z M 10 2.335938 " clip-rule="nonzero"/></clipPath></defs><g clip-path="url(#c23eab93e7)"><path fill="#000000" d="M 21.867188 23.0625 L 9.578125 23.0625 C 8.183594 23.0625 7.035156 22.019531 6.871094 20.679688 L 20.488281 20.679688 C 20.585938 21.660156 21.105469 22.511719 21.867188 23.0625 Z M 21.867188 23.0625 " fill-opacity="1" fill-rule="nonzero"/></g><g clip-path="url(#c50268565b)"><path fill="#000000" d="M 29.121094 14.15625 C 29.164062 14.015625 29.289062 13.921875 29.433594 13.921875 L 30.375 13.921875 L 30.375 12.671875 L 29.433594 12.671875 C 29.292969 12.671875 29.164062 12.578125 29.121094 12.4375 C 29.054688 12.195312 28.957031 11.96875 28.835938 11.761719 C 28.765625 11.636719 28.785156 11.476562 28.890625 11.371094 L 29.554688 10.710938 L 28.664062 9.828125 L 28.003906 10.488281 C 27.898438 10.59375 27.742188 10.613281 27.613281 10.542969 C 27.394531 10.421875 27.164062 10.328125 26.925781 10.261719 C 26.789062 10.21875 26.691406 10.09375 26.691406 9.949219 L 26.691406 9.015625 L 25.433594 9.015625 L 25.433594 9.949219 C 25.433594 10.09375 25.335938 10.21875 25.199219 10.261719 C 24.960938 10.328125 24.730469 10.421875 24.507812 10.542969 C 24.382812 10.613281 24.226562 10.59375 24.125 10.488281 L 23.457031 9.828125 L 22.570312 10.710938 L 23.234375 11.371094 C 23.335938 11.476562 23.359375 11.636719 23.289062 11.761719 C 23.167969 11.96875 23.074219 12.195312 23 12.4375 C 22.960938 12.578125 22.835938 12.671875 22.691406 12.671875 L 21.75 12.671875 L 21.75 13.921875 L 22.691406 13.921875 C 22.835938 13.921875 22.960938 14.015625 23 14.15625 C 23.070312 14.390625 23.167969 14.617188 23.289062 14.835938 C 23.359375 14.960938 23.335938 15.121094 23.234375 15.222656 L 22.570312 15.882812 L 23.457031 16.765625 L 24.125 16.101562 C 24.226562 16 24.386719 15.980469 24.515625 16.050781 C 24.722656 16.167969 24.953125 16.261719 25.199219 16.335938 C 25.339844 16.375 25.433594 16.5 25.433594 16.644531 L 25.433594 17.578125 L 26.691406 17.578125 L 26.691406 16.644531 C 26.691406 16.5 26.789062 16.375 26.925781 16.335938 C 27.171875 16.261719 27.402344 16.167969 27.609375 16.050781 C 27.738281 15.976562 27.898438 16 28 16.101562 L 28.664062 16.765625 L 29.554688 15.882812 L 28.890625 15.222656 C 28.785156 15.121094 28.765625 14.960938 28.835938 14.835938 C 28.957031 14.617188 29.054688 14.390625 29.121094 14.15625 Z M 27.960938 13.582031 C 27.921875 13.882812 27.792969 14.179688 27.601562 14.4375 C 27.492188 14.585938 27.359375 14.714844 27.207031 14.828125 C 26.953125 15.015625 26.652344 15.140625 26.335938 15.183594 C 26.253906 15.199219 26.160156 15.203125 26.0625 15.203125 L 26.054688 15.203125 C 25.960938 15.203125 25.867188 15.195312 25.777344 15.179688 C 25.472656 15.140625 25.167969 15.015625 24.914062 14.824219 C 24.765625 14.714844 24.628906 14.585938 24.519531 14.433594 C 24.328125 14.179688 24.203125 13.882812 24.164062 13.566406 C 24.148438 13.488281 24.140625 13.394531 24.140625 13.296875 C 24.140625 13.199219 24.148438 13.105469 24.164062 13.015625 C 24.203125 12.714844 24.328125 12.414062 24.527344 12.15625 C 24.636719 12.007812 24.765625 11.878906 24.917969 11.769531 C 25.167969 11.578125 25.472656 11.453125 25.792969 11.410156 C 25.953125 11.382812 26.160156 11.382812 26.347656 11.414062 C 26.652344 11.453125 26.953125 11.578125 27.210938 11.769531 C 27.355469 11.875 27.488281 12.007812 27.601562 12.15625 C 27.796875 12.414062 27.921875 12.714844 27.964844 13.027344 C 27.976562 13.105469 27.984375 13.199219 27.984375 13.296875 C 27.984375 13.394531 27.976562 13.488281 27.960938 13.582031 Z M 27.960938 13.582031 " fill-opacity="1" fill-rule="nonzero"/></g><g clip-path="url(#425ace7ef3)"><path fill="#000000" d="M 29.875 4.066406 L 29.875 6.433594 L 26.386719 6.433594 L 26.386719 4.066406 C 26.386719 3.113281 27.167969 2.335938 28.132812 2.335938 C 29.09375 2.335938 29.875 3.113281 29.875 4.066406 Z M 29.875 4.066406 " fill-opacity="1" fill-rule="nonzero"/></g><g clip-path="url(#e7b1b440a7)"><path fill="#000000" d="M 12.789062 2.335938 C 11.558594 2.335938 10.554688 3.328125 10.554688 4.546875 L 10.554688 20.035156 L 20.796875 20.035156 C 20.976562 20.035156 21.121094 20.179688 21.121094 20.355469 C 21.121094 21.792969 22.253906 22.96875 23.679688 23.054688 C 24.828125 22.976562 25.738281 22.011719 25.738281 20.851562 L 25.738281 18.222656 L 25.109375 18.222656 C 24.929688 18.222656 24.785156 18.078125 24.785156 17.898438 L 24.785156 16.878906 C 24.65625 16.832031 24.535156 16.785156 24.417969 16.726562 L 23.6875 17.449219 C 23.5625 17.574219 23.355469 17.574219 23.230469 17.449219 L 21.878906 16.109375 C 21.820312 16.050781 21.785156 15.96875 21.785156 15.882812 C 21.785156 15.796875 21.820312 15.714844 21.878906 15.65625 L 22.609375 14.933594 C 22.550781 14.8125 22.496094 14.691406 22.453125 14.566406 L 21.425781 14.566406 C 21.246094 14.566406 21.101562 14.421875 21.101562 14.242188 L 21.101562 12.351562 C 21.101562 12.171875 21.246094 12.027344 21.425781 12.027344 L 22.453125 12.027344 C 22.5 11.902344 22.550781 11.777344 22.609375 11.660156 L 21.878906 10.941406 C 21.820312 10.878906 21.785156 10.796875 21.785156 10.710938 C 21.785156 10.625 21.820312 10.542969 21.878906 10.484375 L 23.230469 9.144531 C 23.355469 9.019531 23.5625 9.019531 23.6875 9.144531 L 24.414062 9.867188 C 24.535156 9.808594 24.660156 9.761719 24.785156 9.714844 L 24.785156 8.695312 C 24.785156 8.519531 24.929688 8.371094 25.109375 8.371094 L 25.738281 8.371094 L 25.738281 4.066406 C 25.738281 3.382812 26.03125 2.769531 26.496094 2.335938 Z M 19.296875 4.625 C 19.296875 4.53125 19.367188 4.457031 19.449219 4.457031 L 20.503906 4.457031 C 20.589844 4.457031 20.660156 4.53125 20.660156 4.625 C 20.660156 4.71875 20.589844 4.792969 20.503906 4.792969 L 19.824219 4.792969 C 19.734375 4.792969 19.667969 4.867188 19.667969 4.957031 L 19.667969 5.0625 C 19.667969 5.15625 19.734375 5.230469 19.824219 5.230469 L 20.433594 5.230469 C 20.519531 5.230469 20.589844 5.304688 20.589844 5.398438 C 20.589844 5.488281 20.519531 5.5625 20.433594 5.5625 L 19.824219 5.5625 C 19.734375 5.5625 19.667969 5.636719 19.667969 5.730469 L 19.667969 5.933594 C 19.667969 6.027344 19.734375 6.101562 19.824219 6.101562 L 20.539062 6.101562 C 20.625 6.101562 20.691406 6.175781 20.691406 6.265625 C 20.691406 6.359375 20.625 6.433594 20.539062 6.433594 L 19.449219 6.433594 C 19.367188 6.433594 19.296875 6.359375 19.296875 6.265625 Z M 17.875 5.804688 L 17.921875 5.796875 C 18 5.789062 18.074219 5.847656 18.089844 5.933594 C 18.097656 5.96875 18.109375 6 18.121094 6.019531 C 18.160156 6.089844 18.222656 6.128906 18.304688 6.128906 C 18.386719 6.128906 18.445312 6.101562 18.480469 6.050781 C 18.515625 6 18.53125 5.894531 18.53125 5.734375 L 18.53125 4.625 C 18.53125 4.53125 18.601562 4.457031 18.683594 4.457031 L 18.746094 4.457031 C 18.832031 4.457031 18.902344 4.53125 18.902344 4.625 L 18.902344 5.707031 C 18.902344 5.871094 18.886719 6 18.859375 6.085938 C 18.824219 6.199219 18.757812 6.292969 18.664062 6.363281 C 18.570312 6.433594 18.445312 6.46875 18.292969 6.46875 C 18.109375 6.46875 17.96875 6.414062 17.875 6.304688 C 17.800781 6.226562 17.757812 6.121094 17.738281 5.988281 C 17.722656 5.898438 17.789062 5.816406 17.875 5.804688 Z M 15.878906 4.953125 C 15.917969 4.851562 15.976562 4.761719 16.050781 4.679688 C 16.125 4.597656 16.199219 4.539062 16.289062 4.503906 C 16.402344 4.449219 16.535156 4.421875 16.683594 4.421875 C 16.953125 4.421875 17.171875 4.515625 17.332031 4.695312 C 17.496094 4.875 17.578125 5.125 17.578125 5.449219 C 17.578125 5.769531 17.496094 6.019531 17.335938 6.199219 C 17.171875 6.375 16.960938 6.46875 16.6875 6.46875 C 16.414062 6.46875 16.199219 6.378906 16.035156 6.199219 C 15.875 6.019531 15.792969 5.773438 15.792969 5.457031 C 15.792969 5.257812 15.820312 5.085938 15.878906 4.953125 Z M 14.015625 4.625 C 14.015625 4.53125 14.085938 4.457031 14.171875 4.457031 L 14.796875 4.457031 C 14.996094 4.457031 15.136719 4.472656 15.226562 4.511719 C 15.316406 4.546875 15.386719 4.609375 15.441406 4.699219 C 15.492188 4.789062 15.519531 4.894531 15.519531 5.011719 C 15.519531 5.160156 15.480469 5.28125 15.398438 5.378906 C 15.316406 5.476562 15.195312 5.535156 15.035156 5.5625 C 15.117188 5.613281 15.179688 5.667969 15.234375 5.726562 C 15.285156 5.789062 15.355469 5.894531 15.445312 6.046875 L 15.519531 6.179688 C 15.585938 6.289062 15.511719 6.433594 15.390625 6.433594 L 15.308594 6.433594 C 15.257812 6.433594 15.210938 6.40625 15.179688 6.359375 L 14.957031 6.003906 C 14.863281 5.851562 14.796875 5.753906 14.761719 5.710938 C 14.726562 5.675781 14.6875 5.644531 14.652344 5.632812 C 14.613281 5.617188 14.546875 5.609375 14.460938 5.609375 L 14.386719 5.609375 L 14.386719 6.265625 C 14.386719 6.359375 14.320312 6.433594 14.234375 6.433594 L 14.171875 6.433594 C 14.085938 6.433594 14.015625 6.359375 14.015625 6.265625 Z M 12.300781 4.625 C 12.300781 4.53125 12.371094 4.457031 12.457031 4.457031 L 12.898438 4.457031 C 13.125 4.457031 13.269531 4.46875 13.339844 4.488281 C 13.445312 4.515625 13.53125 4.582031 13.605469 4.679688 C 13.675781 4.78125 13.710938 4.910156 13.710938 5.066406 C 13.710938 5.1875 13.691406 5.289062 13.648438 5.371094 C 13.609375 5.453125 13.558594 5.519531 13.492188 5.566406 C 13.429688 5.613281 13.367188 5.644531 13.300781 5.660156 C 13.210938 5.679688 13.085938 5.6875 12.914062 5.6875 L 12.828125 5.6875 C 12.742188 5.6875 12.671875 5.761719 12.671875 5.855469 L 12.671875 6.265625 C 12.671875 6.359375 12.605469 6.433594 12.519531 6.433594 L 12.457031 6.433594 C 12.371094 6.433594 12.300781 6.359375 12.300781 6.265625 Z M 11.976562 8.121094 C 11.976562 7.945312 12.121094 7.800781 12.300781 7.800781 L 18.019531 7.800781 C 18.199219 7.800781 18.34375 7.945312 18.34375 8.121094 L 18.34375 10.386719 C 18.34375 10.566406 18.199219 10.707031 18.019531 10.707031 L 12.300781 10.707031 C 12.121094 10.707031 11.976562 10.566406 11.976562 10.386719 Z M 12.300781 12.375 L 19.636719 12.375 C 19.816406 12.375 19.964844 12.519531 19.964844 12.699219 C 19.964844 12.878906 19.816406 13.023438 19.636719 13.023438 L 12.300781 13.023438 C 12.121094 13.023438 11.976562 12.878906 11.976562 12.699219 C 11.976562 12.519531 12.121094 12.375 12.300781 12.375 Z M 12.300781 14.878906 L 19.996094 14.878906 C 20.175781 14.878906 20.320312 15.019531 20.320312 15.199219 C 20.320312 15.378906 20.175781 15.523438 19.996094 15.523438 L 12.300781 15.523438 C 12.121094 15.523438 11.976562 15.378906 11.976562 15.199219 C 11.976562 15.019531 12.121094 14.878906 12.300781 14.878906 Z M 21.722656 17.375 C 21.902344 17.375 22.046875 17.519531 22.046875 17.699219 C 22.046875 17.875 21.902344 18.019531 21.722656 18.019531 L 12.300781 18.019531 C 12.121094 18.019531 11.976562 17.875 11.976562 17.699219 C 11.976562 17.519531 12.121094 17.375 12.300781 17.375 Z M 22.492188 6 C 22.433594 6.132812 22.363281 6.234375 22.269531 6.308594 C 22.140625 6.414062 21.980469 6.46875 21.78125 6.46875 C 21.539062 6.46875 21.335938 6.378906 21.179688 6.199219 C 21.023438 6.019531 20.945312 5.773438 20.945312 5.464844 C 20.945312 5.132812 21.023438 4.878906 21.179688 4.695312 C 21.339844 4.515625 21.546875 4.421875 21.804688 4.421875 C 22.03125 4.421875 22.210938 4.496094 22.351562 4.636719 C 22.394531 4.683594 22.433594 4.738281 22.46875 4.804688 C 22.515625 4.898438 22.46875 5.019531 22.367188 5.046875 L 22.308594 5.0625 C 22.242188 5.078125 22.164062 5.050781 22.136719 4.984375 C 22.113281 4.933594 22.078125 4.890625 22.035156 4.855469 C 21.964844 4.792969 21.882812 4.765625 21.785156 4.765625 C 21.648438 4.765625 21.539062 4.816406 21.453125 4.921875 C 21.367188 5.027344 21.324219 5.199219 21.324219 5.433594 C 21.324219 5.683594 21.367188 5.859375 21.449219 5.96875 C 21.535156 6.074219 21.644531 6.128906 21.777344 6.128906 C 21.875 6.128906 21.960938 6.09375 22.03125 6.027344 C 22.078125 5.980469 22.117188 5.921875 22.144531 5.847656 C 22.175781 5.769531 22.257812 5.730469 22.332031 5.757812 L 22.394531 5.777344 C 22.476562 5.808594 22.523438 5.910156 22.492188 6 Z M 24.039062 4.792969 L 23.804688 4.792969 C 23.71875 4.792969 23.648438 4.867188 23.648438 4.957031 L 23.648438 6.265625 C 23.648438 6.359375 23.582031 6.433594 23.492188 6.433594 L 23.433594 6.433594 C 23.347656 6.433594 23.277344 6.359375 23.277344 6.265625 L 23.277344 4.957031 C 23.277344 4.867188 23.207031 4.792969 23.125 4.792969 L 22.886719 4.792969 C 22.800781 4.792969 22.730469 4.71875 22.730469 4.625 C 22.730469 4.53125 22.800781 4.457031 22.886719 4.457031 L 24.039062 4.457031 C 24.125 4.457031 24.191406 4.53125 24.191406 4.625 C 24.191406 4.71875 24.125 4.792969 24.039062 4.792969 Z M 24.039062 4.792969 " fill-opacity="1" fill-rule="nonzero"/></g><path fill="#000000" d="M 25.738281 12.082031 L 25.738281 14.515625 C 25.582031 14.476562 25.433594 14.40625 25.300781 14.304688 C 25.203125 14.234375 25.117188 14.148438 25.042969 14.050781 C 24.914062 13.878906 24.835938 13.6875 24.804688 13.472656 C 24.796875 13.417969 24.789062 13.355469 24.789062 13.296875 C 24.789062 13.238281 24.796875 13.179688 24.804688 13.113281 C 24.835938 12.910156 24.917969 12.710938 25.046875 12.542969 C 25.117188 12.445312 25.203125 12.359375 25.304688 12.285156 C 25.433594 12.191406 25.578125 12.121094 25.738281 12.082031 Z M 25.738281 12.082031 " fill-opacity="1" fill-rule="nonzero"/><path fill="#000000" d="M 27.335938 13.296875 C 27.335938 13.355469 27.328125 13.417969 27.320312 13.480469 C 27.289062 13.6875 27.210938 13.878906 27.082031 14.050781 C 27.007812 14.148438 26.921875 14.234375 26.820312 14.308594 C 26.691406 14.40625 26.546875 14.476562 26.386719 14.515625 L 26.386719 12.078125 C 26.542969 12.117188 26.691406 12.1875 26.824219 12.285156 C 26.917969 12.359375 27.007812 12.445312 27.082031 12.542969 C 27.210938 12.710938 27.292969 12.910156 27.320312 13.121094 C 27.328125 13.179688 27.335938 13.238281 27.335938 13.296875 Z M 27.335938 13.296875 " fill-opacity="1" fill-rule="nonzero"/><path fill="#000000" d="M 13.328125 5.070312 C 13.328125 5.128906 13.3125 5.179688 13.285156 5.222656 C 13.257812 5.269531 13.21875 5.300781 13.171875 5.320312 C 13.121094 5.34375 13.023438 5.355469 12.875 5.355469 L 12.828125 5.355469 C 12.742188 5.355469 12.671875 5.277344 12.671875 5.1875 L 12.671875 4.957031 C 12.671875 4.867188 12.742188 4.792969 12.828125 4.792969 L 12.851562 4.792969 C 12.988281 4.792969 13.074219 4.796875 13.121094 4.804688 C 13.179688 4.816406 13.230469 4.847656 13.269531 4.894531 C 13.308594 4.941406 13.328125 5 13.328125 5.070312 Z M 13.328125 5.070312 " fill-opacity="1" fill-rule="nonzero"/><path fill="#000000" d="M 15.136719 5.039062 C 15.136719 5.09375 15.125 5.144531 15.101562 5.1875 C 15.074219 5.222656 15.039062 5.253906 14.996094 5.269531 C 14.953125 5.285156 14.839844 5.292969 14.664062 5.292969 L 14.542969 5.292969 C 14.457031 5.292969 14.386719 5.21875 14.386719 5.128906 L 14.386719 4.957031 C 14.386719 4.867188 14.457031 4.792969 14.542969 4.792969 L 14.675781 4.792969 C 14.828125 4.792969 14.917969 4.792969 14.949219 4.800781 C 15.007812 4.808594 15.054688 4.835938 15.089844 4.875 C 15.121094 4.917969 15.136719 4.972656 15.136719 5.039062 Z M 15.136719 5.039062 " fill-opacity="1" fill-rule="nonzero"/><path fill="#000000" d="M 17.195312 5.441406 C 17.195312 5.667969 17.148438 5.839844 17.050781 5.957031 C 16.957031 6.070312 16.835938 6.128906 16.6875 6.128906 C 16.539062 6.128906 16.417969 6.070312 16.324219 5.953125 C 16.226562 5.835938 16.175781 5.667969 16.175781 5.445312 C 16.175781 5.21875 16.226562 5.046875 16.316406 4.933594 C 16.410156 4.820312 16.535156 4.765625 16.6875 4.765625 C 16.839844 4.765625 16.964844 4.820312 17.058594 4.933594 C 17.148438 5.042969 17.195312 5.210938 17.195312 5.441406 Z M 17.195312 5.441406 " fill-opacity="1" fill-rule="nonzero"/><path fill="#000000" d="M 17.695312 8.445312 L 12.628906 8.445312 L 12.628906 10.0625 L 17.695312 10.0625 Z M 17.695312 8.445312 " fill-opacity="1" fill-rule="nonzero"/><g fill="#000000" fill-opacity="1"><g transform="translate(2.229307, 32.113857)"><g><path d="M 2.671875 -5.53125 C 3.503906 -5.53125 4.113281 -5.367188 4.5 -5.046875 C 4.882812 -4.722656 5.078125 -4.222656 5.078125 -3.546875 C 5.078125 -2.878906 4.878906 -2.390625 4.484375 -2.078125 C 4.085938 -1.773438 3.488281 -1.625 2.6875 -1.625 L 1.703125 -1.625 L 1.703125 0 L 0.765625 0 L 0.765625 -5.53125 Z M 2.78125 -2.46875 C 3.300781 -2.46875 3.65625 -2.566406 3.84375 -2.765625 C 4.03125 -2.960938 4.125 -3.25 4.125 -3.625 C 4.125 -4.007812 4.003906 -4.28125 3.765625 -4.4375 C 3.523438 -4.601562 3.15625 -4.6875 2.65625 -4.6875 L 1.703125 -4.6875 L 1.703125 -2.46875 Z M 2.78125 -2.46875 "/></g></g></g><g fill="#000000" fill-opacity="1"><g transform="translate(7.63513, 32.113857)"><g><path d="M 2.84375 -3.375 C 2.40625 -3.375 2.078125 -3.226562 1.859375 -2.9375 C 1.640625 -2.65625 1.53125 -2.273438 1.53125 -1.796875 L 1.53125 0 L 0.640625 0 L 0.640625 -4.203125 L 1.53125 -4.203125 L 1.53125 -3.359375 C 1.664062 -3.617188 1.851562 -3.832031 2.09375 -4 C 2.34375 -4.175781 2.609375 -4.265625 2.890625 -4.265625 L 2.890625 -3.375 C 2.878906 -3.375 2.863281 -3.375 2.84375 -3.375 Z M 2.84375 -3.375 "/></g></g></g><g fill="#000000" fill-opacity="1"><g transform="translate(10.693697, 32.113857)"><g><path d="M 1.625 -1.109375 C 1.875 -0.859375 2.191406 -0.734375 2.578125 -0.734375 C 2.960938 -0.734375 3.28125 -0.859375 3.53125 -1.109375 C 3.78125 -1.367188 3.90625 -1.703125 3.90625 -2.109375 C 3.90625 -2.515625 3.78125 -2.84375 3.53125 -3.09375 C 3.28125 -3.351562 2.960938 -3.484375 2.578125 -3.484375 C 2.191406 -3.484375 1.875 -3.351562 1.625 -3.09375 C 1.375 -2.84375 1.25 -2.515625 1.25 -2.109375 C 1.25 -1.703125 1.375 -1.367188 1.625 -1.109375 Z M 4.15625 -0.5625 C 3.738281 -0.144531 3.210938 0.0625 2.578125 0.0625 C 1.941406 0.0625 1.410156 -0.144531 0.984375 -0.5625 C 0.566406 -0.976562 0.359375 -1.488281 0.359375 -2.09375 C 0.359375 -2.707031 0.566406 -3.222656 0.984375 -3.640625 C 1.410156 -4.054688 1.941406 -4.265625 2.578125 -4.265625 C 3.210938 -4.265625 3.738281 -4.054688 4.15625 -3.640625 C 4.582031 -3.222656 4.796875 -2.707031 4.796875 -2.09375 C 4.796875 -1.488281 4.582031 -0.976562 4.15625 -0.5625 Z M 4.15625 -0.5625 "/></g></g></g><g fill="#000000" fill-opacity="1"><g transform="translate(15.846616, 32.113857)"><g><path d="M 0.640625 0.203125 L 0.640625 -4.203125 L 1.53125 -4.203125 L 1.53125 0.234375 C 1.53125 0.671875 1.394531 1.019531 1.125 1.28125 C 0.863281 1.539062 0.539062 1.671875 0.15625 1.671875 C -0.21875 1.671875 -0.5625 1.53125 -0.875 1.25 L -0.453125 0.59375 C -0.273438 0.769531 -0.0976562 0.859375 0.078125 0.859375 C 0.265625 0.859375 0.40625 0.796875 0.5 0.671875 C 0.59375 0.554688 0.640625 0.398438 0.640625 0.203125 Z M 0.671875 -5.03125 C 0.566406 -5.144531 0.515625 -5.28125 0.515625 -5.4375 C 0.515625 -5.59375 0.566406 -5.722656 0.671875 -5.828125 C 0.785156 -5.941406 0.914062 -6 1.0625 -6 C 1.21875 -6 1.351562 -5.941406 1.46875 -5.828125 C 1.582031 -5.722656 1.640625 -5.59375 1.640625 -5.4375 C 1.640625 -5.28125 1.582031 -5.144531 1.46875 -5.03125 C 1.351562 -4.925781 1.21875 -4.875 1.0625 -4.875 C 0.914062 -4.875 0.785156 -4.925781 0.671875 -5.03125 Z M 0.671875 -5.03125 "/></g></g></g><g fill="#000000" fill-opacity="1"><g transform="translate(18.012109, 32.113857)"><g><path d="M 4.546875 -1.71875 L 1.25 -1.71875 C 1.269531 -1.40625 1.410156 -1.15625 1.671875 -0.96875 C 1.929688 -0.789062 2.226562 -0.703125 2.5625 -0.703125 C 3.09375 -0.703125 3.492188 -0.863281 3.765625 -1.1875 L 4.265625 -0.640625 C 3.816406 -0.171875 3.226562 0.0625 2.5 0.0625 C 1.90625 0.0625 1.398438 -0.128906 0.984375 -0.515625 C 0.578125 -0.910156 0.375 -1.4375 0.375 -2.09375 C 0.375 -2.757812 0.582031 -3.285156 1 -3.671875 C 1.425781 -4.066406 1.925781 -4.265625 2.5 -4.265625 C 3.070312 -4.265625 3.554688 -4.09375 3.953125 -3.75 C 4.347656 -3.40625 4.546875 -2.929688 4.546875 -2.328125 Z M 1.25 -2.40625 L 3.671875 -2.40625 C 3.671875 -2.757812 3.554688 -3.03125 3.328125 -3.21875 C 3.109375 -3.414062 2.835938 -3.515625 2.515625 -3.515625 C 2.191406 -3.515625 1.898438 -3.414062 1.640625 -3.21875 C 1.378906 -3.019531 1.25 -2.75 1.25 -2.40625 Z M 1.25 -2.40625 "/></g></g></g><g fill="#000000" fill-opacity="1"><g transform="translate(22.896316, 32.113857)"><g><path d="M 2.5 0.0625 C 1.914062 0.0625 1.410156 -0.132812 0.984375 -0.53125 C 0.566406 -0.925781 0.359375 -1.445312 0.359375 -2.09375 C 0.359375 -2.738281 0.578125 -3.257812 1.015625 -3.65625 C 1.460938 -4.0625 2 -4.265625 2.625 -4.265625 C 3.257812 -4.265625 3.796875 -4.046875 4.234375 -3.609375 L 3.71875 -2.96875 C 3.351562 -3.289062 2.984375 -3.453125 2.609375 -3.453125 C 2.242188 -3.453125 1.925781 -3.328125 1.65625 -3.078125 C 1.382812 -2.835938 1.25 -2.519531 1.25 -2.125 C 1.25 -1.738281 1.382812 -1.410156 1.65625 -1.140625 C 1.925781 -0.878906 2.253906 -0.75 2.640625 -0.75 C 3.035156 -0.75 3.40625 -0.925781 3.75 -1.28125 L 4.28125 -0.71875 C 3.769531 -0.195312 3.175781 0.0625 2.5 0.0625 Z M 2.5 0.0625 "/></g></g></g><g fill="#000000" fill-opacity="1"><g transform="translate(27.44859, 32.113857)"><g><path d="M 1.734375 -3.5 L 1.734375 -1.359375 C 1.734375 -1.160156 1.785156 -1 1.890625 -0.875 C 1.992188 -0.757812 2.140625 -0.703125 2.328125 -0.703125 C 2.515625 -0.703125 2.695312 -0.796875 2.875 -0.984375 L 3.234375 -0.359375 C 2.929688 -0.078125 2.585938 0.0625 2.203125 0.0625 C 1.828125 0.0625 1.503906 -0.0664062 1.234375 -0.328125 C 0.972656 -0.585938 0.84375 -0.941406 0.84375 -1.390625 L 0.84375 -3.5 L 0.3125 -3.5 L 0.3125 -4.203125 L 0.84375 -4.203125 L 0.84375 -5.53125 L 1.734375 -5.53125 L 1.734375 -4.203125 L 2.84375 -4.203125 L 2.84375 -3.5 Z M 1.734375 -3.5 "/></g></g></g><g fill="#000000" fill-opacity="1"><g transform="translate(30.752151, 32.113857)"><g><path d="M 3.640625 -1.25 C 3.640625 -0.851562 3.492188 -0.535156 3.203125 -0.296875 C 2.910156 -0.0546875 2.539062 0.0625 2.09375 0.0625 C 1.78125 0.0625 1.457031 0.0078125 1.125 -0.09375 C 0.800781 -0.207031 0.515625 -0.363281 0.265625 -0.5625 L 0.6875 -1.25 C 1.175781 -0.882812 1.648438 -0.703125 2.109375 -0.703125 C 2.304688 -0.703125 2.460938 -0.75 2.578125 -0.84375 C 2.703125 -0.9375 2.765625 -1.050781 2.765625 -1.1875 C 2.765625 -1.40625 2.484375 -1.597656 1.921875 -1.765625 C 1.878906 -1.773438 1.847656 -1.785156 1.828125 -1.796875 C 0.953125 -2.035156 0.515625 -2.429688 0.515625 -2.984375 C 0.515625 -3.367188 0.664062 -3.675781 0.96875 -3.90625 C 1.269531 -4.144531 1.660156 -4.265625 2.140625 -4.265625 C 2.628906 -4.265625 3.09375 -4.125 3.53125 -3.84375 L 3.1875 -3.1875 C 2.851562 -3.414062 2.484375 -3.53125 2.078125 -3.53125 C 1.867188 -3.53125 1.695312 -3.488281 1.5625 -3.40625 C 1.4375 -3.332031 1.375 -3.21875 1.375 -3.0625 C 1.375 -2.925781 1.441406 -2.828125 1.578125 -2.765625 C 1.671875 -2.722656 1.800781 -2.675781 1.96875 -2.625 C 2.144531 -2.582031 2.296875 -2.539062 2.421875 -2.5 C 2.554688 -2.457031 2.6875 -2.410156 2.8125 -2.359375 C 2.9375 -2.304688 3.066406 -2.234375 3.203125 -2.140625 C 3.492188 -1.953125 3.640625 -1.65625 3.640625 -1.25 Z M 3.640625 -1.25 "/></g></g></g></svg>