<svg xmlns="http://www.w3.org/2000/svg" xmlns:xlink="http://www.w3.org/1999/xlink" width="50" zoomAndPan="magnify" viewBox="0 0 37.5 37.499999" height="50" preserveAspectRatio="xMidYMid meet" version="1.0"><defs><clipPath id="e99a3e4cce"><path d="M 3.183594 28 L 23 28 L 23 31.648438 L 3.183594 31.648438 Z M 3.183594 28 " clip-rule="nonzero"/></clipPath><clipPath id="5e2c68cd78"><path d="M 22 13 L 33.527344 13 L 33.527344 25 L 22 25 Z M 22 13 " clip-rule="nonzero"/></clipPath><clipPath id="fc59386cec"><path d="M 8 5 L 29 5 L 29 31.648438 L 8 31.648438 Z M 8 5 " clip-rule="nonzero"/></clipPath></defs><g clip-path="url(#e99a3e4cce)"><path fill="#000000" d="M 22.507812 31.648438 L 6.769531 31.648438 C 4.988281 31.648438 3.515625 30.308594 3.304688 28.585938 L 20.742188 28.585938 C 20.867188 29.84375 21.535156 30.941406 22.507812 31.648438 Z M 22.507812 31.648438 " fill-opacity="1" fill-rule="nonzero"/></g><g clip-path="url(#5e2c68cd78)"><path fill="#000000" d="M 31.796875 20.195312 C 31.851562 20.015625 32.011719 19.894531 32.199219 19.894531 L 33.402344 19.894531 L 33.402344 18.292969 L 32.199219 18.292969 C 32.015625 18.292969 31.851562 18.167969 31.796875 17.988281 C 31.710938 17.675781 31.585938 17.382812 31.433594 17.121094 C 31.339844 16.957031 31.367188 16.75 31.5 16.617188 L 32.351562 15.769531 L 31.214844 14.632812 L 30.363281 15.484375 C 30.230469 15.617188 30.027344 15.644531 29.867188 15.550781 C 29.585938 15.398438 29.289062 15.277344 28.984375 15.191406 C 28.808594 15.136719 28.683594 14.972656 28.683594 14.789062 L 28.683594 13.589844 L 27.074219 13.589844 L 27.074219 14.789062 C 27.074219 14.972656 26.949219 15.136719 26.773438 15.191406 C 26.46875 15.277344 26.175781 15.398438 25.890625 15.550781 C 25.730469 15.644531 25.527344 15.617188 25.398438 15.484375 L 24.546875 14.632812 L 23.40625 15.769531 L 24.261719 16.617188 C 24.390625 16.75 24.417969 16.957031 24.328125 17.121094 C 24.175781 17.382812 24.050781 17.675781 23.960938 17.988281 C 23.90625 18.167969 23.746094 18.292969 23.5625 18.292969 L 22.359375 18.292969 L 22.359375 19.894531 L 23.5625 19.894531 C 23.746094 19.894531 23.910156 20.015625 23.960938 20.195312 C 24.050781 20.5 24.171875 20.792969 24.328125 21.070312 C 24.417969 21.230469 24.390625 21.4375 24.261719 21.566406 L 23.40625 22.417969 L 24.546875 23.550781 L 25.398438 22.699219 C 25.53125 22.566406 25.734375 22.542969 25.898438 22.632812 C 26.164062 22.785156 26.460938 22.90625 26.773438 23 C 26.953125 23.046875 27.074219 23.210938 27.074219 23.394531 L 27.074219 24.597656 L 28.683594 24.597656 L 28.683594 23.394531 C 28.683594 23.210938 28.808594 23.046875 28.984375 23 C 29.300781 22.90625 29.59375 22.785156 29.859375 22.632812 C 30.023438 22.539062 30.230469 22.566406 30.363281 22.699219 L 31.214844 23.550781 L 32.351562 22.417969 L 31.5 21.566406 C 31.367188 21.4375 31.339844 21.230469 31.433594 21.070312 C 31.585938 20.792969 31.710938 20.5 31.796875 20.195312 Z M 30.3125 19.457031 C 30.257812 19.84375 30.097656 20.230469 29.851562 20.558594 C 29.714844 20.75 29.539062 20.917969 29.347656 21.0625 C 29.023438 21.304688 28.632812 21.464844 28.230469 21.515625 C 28.125 21.535156 28.003906 21.542969 27.878906 21.542969 L 27.871094 21.542969 C 27.75 21.542969 27.628906 21.535156 27.515625 21.515625 C 27.125 21.464844 26.738281 21.304688 26.410156 21.054688 C 26.21875 20.917969 26.046875 20.75 25.90625 20.550781 C 25.660156 20.230469 25.5 19.84375 25.445312 19.441406 C 25.429688 19.339844 25.417969 19.21875 25.417969 19.09375 C 25.417969 18.96875 25.429688 18.847656 25.445312 18.730469 C 25.5 18.34375 25.660156 17.957031 25.914062 17.625 C 26.050781 17.4375 26.222656 17.269531 26.414062 17.128906 C 26.738281 16.882812 27.125 16.722656 27.53125 16.667969 C 27.738281 16.632812 28.007812 16.632812 28.242188 16.671875 C 28.632812 16.722656 29.023438 16.882812 29.351562 17.128906 C 29.535156 17.265625 29.703125 17.433594 29.847656 17.625 C 30.101562 17.960938 30.257812 18.347656 30.316406 18.746094 C 30.332031 18.847656 30.34375 18.96875 30.34375 19.09375 C 30.34375 19.21875 30.332031 19.339844 30.3125 19.457031 Z M 30.3125 19.457031 " fill-opacity="1" fill-rule="nonzero"/></g><path fill="#000000" d="M 32.765625 7.226562 L 32.765625 10.269531 L 28.296875 10.269531 L 28.296875 7.226562 C 28.296875 6 29.296875 5 30.53125 5 C 31.761719 5 32.765625 6 32.765625 7.226562 Z M 32.765625 7.226562 " fill-opacity="1" fill-rule="nonzero"/><g clip-path="url(#fc59386cec)"><path fill="#000000" d="M 10.878906 5 C 9.304688 5 8.019531 6.277344 8.019531 7.84375 L 8.019531 27.753906 L 21.136719 27.753906 C 21.367188 27.753906 21.554688 27.941406 21.554688 28.167969 C 21.554688 30.015625 23.003906 31.527344 24.828125 31.636719 C 26.300781 31.535156 27.464844 30.296875 27.464844 28.804688 L 27.464844 25.425781 L 26.660156 25.425781 C 26.429688 25.425781 26.242188 25.238281 26.242188 25.011719 L 26.242188 23.699219 C 26.078125 23.640625 25.925781 23.574219 25.773438 23.5 L 24.839844 24.429688 C 24.675781 24.59375 24.414062 24.59375 24.25 24.429688 L 22.523438 22.710938 C 22.445312 22.632812 22.402344 22.527344 22.402344 22.417969 C 22.402344 22.308594 22.445312 22.203125 22.523438 22.125 L 23.457031 21.195312 C 23.382812 21.042969 23.3125 20.882812 23.257812 20.722656 L 21.941406 20.722656 C 21.710938 20.722656 21.527344 20.539062 21.527344 20.308594 L 21.527344 17.875 C 21.527344 17.648438 21.710938 17.460938 21.941406 17.460938 L 23.257812 17.460938 C 23.316406 17.296875 23.382812 17.140625 23.457031 16.988281 L 22.523438 16.0625 C 22.445312 15.984375 22.402344 15.878906 22.402344 15.765625 C 22.402344 15.660156 22.445312 15.550781 22.523438 15.472656 L 24.25 13.753906 C 24.414062 13.59375 24.675781 13.59375 24.839844 13.753906 L 25.769531 14.683594 C 25.925781 14.609375 26.082031 14.546875 26.242188 14.488281 L 26.242188 13.175781 C 26.242188 12.949219 26.429688 12.761719 26.660156 12.761719 L 27.464844 12.761719 L 27.464844 7.226562 C 27.464844 6.347656 27.839844 5.558594 28.4375 5 Z M 19.214844 7.941406 C 19.214844 7.824219 19.304688 7.726562 19.410156 7.726562 L 20.761719 7.726562 C 20.871094 7.726562 20.960938 7.824219 20.960938 7.941406 C 20.960938 8.0625 20.871094 8.160156 20.761719 8.160156 L 19.890625 8.160156 C 19.777344 8.160156 19.6875 8.253906 19.6875 8.371094 L 19.6875 8.507812 C 19.6875 8.625 19.777344 8.722656 19.890625 8.722656 L 20.675781 8.722656 C 20.78125 8.722656 20.871094 8.816406 20.871094 8.933594 C 20.871094 9.054688 20.78125 9.152344 20.675781 9.152344 L 19.890625 9.152344 C 19.777344 9.152344 19.6875 9.246094 19.6875 9.363281 L 19.6875 9.625 C 19.6875 9.746094 19.777344 9.839844 19.890625 9.839844 L 20.808594 9.839844 C 20.914062 9.839844 21.003906 9.933594 21.003906 10.054688 C 21.003906 10.171875 20.914062 10.269531 20.808594 10.269531 L 19.410156 10.269531 C 19.304688 10.269531 19.214844 10.171875 19.214844 10.054688 Z M 17.394531 9.460938 L 17.453125 9.453125 C 17.554688 9.441406 17.648438 9.515625 17.671875 9.625 C 17.679688 9.671875 17.695312 9.707031 17.710938 9.738281 C 17.761719 9.828125 17.839844 9.875 17.945312 9.875 C 18.050781 9.875 18.125 9.839844 18.167969 9.773438 C 18.214844 9.710938 18.234375 9.578125 18.234375 9.367188 L 18.234375 7.941406 C 18.234375 7.824219 18.324219 7.726562 18.433594 7.726562 L 18.511719 7.726562 C 18.617188 7.726562 18.710938 7.824219 18.710938 7.941406 L 18.710938 9.335938 C 18.710938 9.546875 18.691406 9.707031 18.65625 9.820312 C 18.609375 9.96875 18.527344 10.085938 18.40625 10.179688 C 18.285156 10.265625 18.128906 10.3125 17.929688 10.3125 C 17.695312 10.3125 17.519531 10.242188 17.394531 10.101562 C 17.300781 10 17.246094 9.867188 17.21875 9.699219 C 17.203125 9.582031 17.285156 9.472656 17.394531 9.460938 Z M 14.839844 8.363281 C 14.890625 8.234375 14.964844 8.117188 15.058594 8.015625 C 15.152344 7.910156 15.25 7.835938 15.363281 7.785156 C 15.507812 7.71875 15.679688 7.683594 15.871094 7.683594 C 16.21875 7.683594 16.496094 7.800781 16.703125 8.035156 C 16.910156 8.265625 17.015625 8.585938 17.015625 9 C 17.015625 9.414062 16.910156 9.734375 16.703125 9.964844 C 16.496094 10.195312 16.222656 10.3125 15.875 10.3125 C 15.527344 10.3125 15.25 10.199219 15.039062 9.964844 C 14.835938 9.738281 14.730469 9.417969 14.730469 9.015625 C 14.730469 8.753906 14.765625 8.535156 14.839844 8.363281 Z M 12.453125 7.941406 C 12.453125 7.824219 12.542969 7.726562 12.652344 7.726562 L 13.453125 7.726562 C 13.707031 7.726562 13.890625 7.75 14.003906 7.796875 C 14.117188 7.839844 14.207031 7.921875 14.277344 8.039062 C 14.34375 8.15625 14.378906 8.289062 14.378906 8.441406 C 14.378906 8.632812 14.328125 8.789062 14.222656 8.914062 C 14.121094 9.039062 13.964844 9.113281 13.757812 9.148438 C 13.863281 9.210938 13.945312 9.285156 14.011719 9.359375 C 14.078125 9.4375 14.171875 9.578125 14.285156 9.773438 L 14.378906 9.941406 C 14.464844 10.085938 14.371094 10.269531 14.210938 10.269531 L 14.109375 10.269531 C 14.042969 10.269531 13.980469 10.234375 13.941406 10.171875 L 13.660156 9.71875 C 13.539062 9.519531 13.453125 9.394531 13.40625 9.339844 C 13.363281 9.292969 13.316406 9.253906 13.265625 9.238281 C 13.214844 9.21875 13.136719 9.207031 13.023438 9.207031 L 12.929688 9.207031 L 12.929688 10.054688 C 12.929688 10.171875 12.839844 10.269531 12.730469 10.269531 L 12.652344 10.269531 C 12.542969 10.269531 12.453125 10.171875 12.453125 10.054688 Z M 10.257812 7.941406 C 10.257812 7.824219 10.347656 7.726562 10.457031 7.726562 L 11.023438 7.726562 C 11.308594 7.726562 11.5 7.742188 11.585938 7.765625 C 11.722656 7.804688 11.835938 7.886719 11.925781 8.015625 C 12.019531 8.140625 12.0625 8.308594 12.0625 8.507812 C 12.0625 8.664062 12.039062 8.796875 11.984375 8.902344 C 11.933594 9.007812 11.863281 9.09375 11.785156 9.152344 C 11.703125 9.214844 11.621094 9.253906 11.539062 9.273438 C 11.425781 9.296875 11.261719 9.3125 11.042969 9.3125 L 10.933594 9.3125 C 10.824219 9.3125 10.734375 9.40625 10.734375 9.523438 L 10.734375 10.054688 C 10.734375 10.171875 10.644531 10.269531 10.535156 10.269531 L 10.457031 10.269531 C 10.347656 10.269531 10.257812 10.171875 10.257812 10.054688 Z M 9.84375 12.441406 C 9.84375 12.210938 10.027344 12.023438 10.257812 12.023438 L 17.578125 12.023438 C 17.808594 12.023438 17.996094 12.210938 17.996094 12.441406 L 17.996094 15.351562 C 17.996094 15.578125 17.808594 15.765625 17.578125 15.765625 L 10.257812 15.765625 C 10.027344 15.765625 9.84375 15.578125 9.84375 15.351562 Z M 10.257812 17.910156 L 19.652344 17.910156 C 19.882812 17.910156 20.070312 18.09375 20.070312 18.324219 C 20.070312 18.554688 19.882812 18.738281 19.652344 18.738281 L 10.257812 18.738281 C 10.027344 18.738281 9.84375 18.554688 9.84375 18.324219 C 9.84375 18.09375 10.027344 17.910156 10.257812 17.910156 Z M 10.257812 21.125 L 20.109375 21.125 C 20.339844 21.125 20.527344 21.308594 20.527344 21.539062 C 20.527344 21.769531 20.339844 21.953125 20.109375 21.953125 L 10.257812 21.953125 C 10.027344 21.953125 9.84375 21.769531 9.84375 21.539062 C 9.84375 21.308594 10.027344 21.125 10.257812 21.125 Z M 22.320312 24.335938 C 22.550781 24.335938 22.738281 24.519531 22.738281 24.75 C 22.738281 24.980469 22.550781 25.164062 22.320312 25.164062 L 10.257812 25.164062 C 10.027344 25.164062 9.84375 24.980469 9.84375 24.75 C 9.84375 24.519531 10.027344 24.335938 10.257812 24.335938 Z M 23.304688 9.707031 C 23.234375 9.878906 23.140625 10.011719 23.023438 10.109375 C 22.859375 10.246094 22.652344 10.3125 22.394531 10.3125 C 22.085938 10.3125 21.828125 10.199219 21.628906 9.964844 C 21.425781 9.738281 21.324219 9.421875 21.324219 9.019531 C 21.324219 8.597656 21.425781 8.269531 21.628906 8.035156 C 21.832031 7.800781 22.097656 7.683594 22.425781 7.683594 C 22.714844 7.683594 22.949219 7.777344 23.128906 7.960938 C 23.183594 8.015625 23.234375 8.085938 23.277344 8.171875 C 23.335938 8.296875 23.277344 8.453125 23.148438 8.484375 L 23.074219 8.503906 C 22.988281 8.527344 22.890625 8.488281 22.851562 8.40625 C 22.820312 8.339844 22.777344 8.28125 22.722656 8.238281 C 22.636719 8.160156 22.53125 8.121094 22.402344 8.121094 C 22.226562 8.121094 22.085938 8.191406 21.976562 8.328125 C 21.871094 8.460938 21.8125 8.679688 21.8125 8.980469 C 21.8125 9.304688 21.871094 9.53125 21.976562 9.671875 C 22.082031 9.804688 22.222656 9.875 22.394531 9.875 C 22.519531 9.875 22.625 9.832031 22.71875 9.746094 C 22.777344 9.6875 22.828125 9.613281 22.863281 9.515625 C 22.902344 9.414062 23.007812 9.367188 23.105469 9.398438 L 23.179688 9.425781 C 23.289062 9.464844 23.351562 9.59375 23.304688 9.707031 Z M 25.285156 8.160156 L 24.988281 8.160156 C 24.878906 8.160156 24.789062 8.253906 24.789062 8.371094 L 24.789062 10.054688 C 24.789062 10.171875 24.699219 10.269531 24.589844 10.269531 L 24.511719 10.269531 C 24.402344 10.269531 24.3125 10.171875 24.3125 10.054688 L 24.3125 8.371094 C 24.3125 8.253906 24.222656 8.160156 24.117188 8.160156 L 23.8125 8.160156 C 23.703125 8.160156 23.613281 8.0625 23.613281 7.941406 C 23.613281 7.824219 23.703125 7.726562 23.8125 7.726562 L 25.285156 7.726562 C 25.398438 7.726562 25.484375 7.824219 25.484375 7.941406 C 25.484375 8.0625 25.398438 8.160156 25.285156 8.160156 Z M 25.285156 8.160156 " fill-opacity="1" fill-rule="nonzero"/></g><path fill="#000000" d="M 27.464844 17.527344 L 27.464844 20.660156 C 27.265625 20.605469 27.074219 20.519531 26.902344 20.390625 C 26.777344 20.296875 26.667969 20.191406 26.574219 20.058594 C 26.410156 19.839844 26.308594 19.59375 26.269531 19.316406 C 26.257812 19.246094 26.25 19.171875 26.25 19.09375 C 26.25 19.015625 26.257812 18.941406 26.269531 18.855469 C 26.308594 18.59375 26.414062 18.339844 26.578125 18.121094 C 26.671875 18 26.78125 17.886719 26.910156 17.792969 C 27.074219 17.667969 27.257812 17.582031 27.464844 17.527344 Z M 27.464844 17.527344 " fill-opacity="1" fill-rule="nonzero"/><path fill="#000000" d="M 29.511719 19.09375 C 29.511719 19.171875 29.503906 19.246094 29.488281 19.332031 C 29.453125 19.59375 29.351562 19.839844 29.183594 20.0625 C 29.089844 20.191406 28.980469 20.296875 28.851562 20.394531 C 28.6875 20.519531 28.5 20.605469 28.296875 20.660156 L 28.296875 17.527344 C 28.496094 17.578125 28.683594 17.667969 28.851562 17.792969 C 28.976562 17.886719 29.089844 18 29.1875 18.121094 C 29.347656 18.339844 29.453125 18.59375 29.492188 18.867188 C 29.503906 18.941406 29.511719 19.015625 29.511719 19.09375 Z M 29.511719 19.09375 " fill-opacity="1" fill-rule="nonzero"/><path fill="#000000" d="M 11.574219 8.519531 C 11.574219 8.59375 11.554688 8.660156 11.519531 8.714844 C 11.480469 8.773438 11.433594 8.8125 11.371094 8.839844 C 11.308594 8.867188 11.183594 8.878906 10.996094 8.878906 L 10.933594 8.878906 C 10.824219 8.878906 10.734375 8.78125 10.734375 8.664062 L 10.734375 8.371094 C 10.734375 8.253906 10.824219 8.160156 10.933594 8.160156 L 10.964844 8.160156 C 11.136719 8.160156 11.25 8.164062 11.304688 8.175781 C 11.382812 8.1875 11.445312 8.226562 11.496094 8.289062 C 11.546875 8.347656 11.574219 8.421875 11.574219 8.519531 Z M 11.574219 8.519531 " fill-opacity="1" fill-rule="nonzero"/><path fill="#000000" d="M 13.890625 8.472656 C 13.890625 8.546875 13.875 8.613281 13.84375 8.664062 C 13.808594 8.714844 13.765625 8.75 13.710938 8.773438 C 13.652344 8.792969 13.511719 8.800781 13.28125 8.800781 L 13.128906 8.800781 C 13.019531 8.800781 12.929688 8.707031 12.929688 8.589844 L 12.929688 8.371094 C 12.929688 8.253906 13.019531 8.160156 13.128906 8.160156 L 13.300781 8.160156 C 13.492188 8.160156 13.609375 8.160156 13.648438 8.167969 C 13.722656 8.179688 13.785156 8.214844 13.824219 8.265625 C 13.867188 8.320312 13.890625 8.386719 13.890625 8.472656 Z M 13.890625 8.472656 " fill-opacity="1" fill-rule="nonzero"/><path fill="#000000" d="M 16.523438 8.992188 C 16.523438 9.285156 16.464844 9.503906 16.339844 9.652344 C 16.21875 9.800781 16.0625 9.875 15.875 9.875 C 15.683594 9.875 15.527344 9.800781 15.40625 9.652344 C 15.28125 9.5 15.222656 9.285156 15.222656 8.996094 C 15.222656 8.707031 15.28125 8.484375 15.402344 8.339844 C 15.519531 8.195312 15.679688 8.121094 15.875 8.121094 C 16.070312 8.121094 16.226562 8.195312 16.347656 8.339844 C 16.464844 8.480469 16.523438 8.699219 16.523438 8.992188 Z M 16.523438 8.992188 " fill-opacity="1" fill-rule="nonzero"/><path fill="#000000" d="M 17.164062 12.855469 L 10.675781 12.855469 L 10.675781 14.9375 L 17.164062 14.9375 Z M 17.164062 12.855469 " fill-opacity="1" fill-rule="nonzero"/></svg>