<svg xmlns="http://www.w3.org/2000/svg" xmlns:xlink="http://www.w3.org/1999/xlink" width="50" zoomAndPan="magnify" viewBox="0 0 37.5 37.499999" height="50" preserveAspectRatio="xMidYMid meet" version="1.2"><defs><clipPath id="9e3a1efc48"><path d="M 7.347656 11 L 23 11 L 23 26.804688 L 7.347656 26.804688 Z M 7.347656 11 "/></clipPath><clipPath id="1c690154de"><path d="M 13 2.382812 L 24 2.382812 L 24 13 L 13 13 Z M 13 2.382812 "/></clipPath><clipPath id="48d40fb6cb"><path d="M 21 9 L 29.550781 9 L 29.550781 18 L 21 18 Z M 21 9 "/></clipPath></defs><g id="e05510ac1d"><g clip-rule="nonzero" clip-path="url(#9e3a1efc48)"><path style=" stroke:none;fill-rule:nonzero;fill:#000000;fill-opacity:1;" d="M 22.574219 17.890625 L 21.054688 17.402344 C 20.933594 16.914062 20.726562 16.464844 20.480469 16.019531 L 21.21875 14.59375 C 21.300781 14.472656 21.261719 14.351562 21.179688 14.226562 L 19.90625 13.007812 C 19.824219 12.925781 19.660156 12.886719 19.535156 12.964844 L 18.101562 13.699219 C 17.648438 13.453125 17.195312 13.25 16.746094 13.128906 L 16.253906 11.582031 C 16.210938 11.460938 16.089844 11.378906 15.964844 11.378906 L 14.160156 11.378906 C 14.035156 11.378906 13.914062 11.460938 13.871094 11.582031 L 13.378906 13.128906 C 12.886719 13.25 12.4375 13.453125 12.027344 13.699219 L 10.589844 12.964844 C 10.464844 12.886719 10.34375 12.925781 10.21875 13.007812 L 8.949219 14.269531 C 8.867188 14.351562 8.824219 14.511719 8.90625 14.636719 L 9.644531 16.058594 C 9.398438 16.507812 9.195312 16.953125 9.070312 17.441406 L 7.550781 17.890625 C 7.429688 17.929688 7.347656 18.054688 7.347656 18.175781 L 7.347656 19.964844 C 7.347656 20.089844 7.429688 20.210938 7.550781 20.25 L 9.070312 20.738281 C 9.195312 21.226562 9.398438 21.675781 9.644531 22.121094 L 8.90625 23.507812 C 8.824219 23.628906 8.867188 23.75 8.949219 23.871094 L 10.21875 25.132812 C 10.300781 25.214844 10.464844 25.257812 10.589844 25.175781 L 11.984375 24.441406 C 12.4375 24.6875 12.886719 24.890625 13.378906 25.011719 L 13.871094 26.519531 C 13.914062 26.640625 14.035156 26.722656 14.160156 26.722656 L 15.964844 26.722656 C 16.089844 26.722656 16.210938 26.640625 16.253906 26.519531 L 16.746094 25.011719 C 17.238281 24.890625 17.691406 24.6875 18.140625 24.441406 L 19.535156 25.175781 C 19.660156 25.257812 19.78125 25.214844 19.90625 25.132812 L 21.179688 23.871094 C 21.261719 23.792969 21.300781 23.628906 21.21875 23.507812 L 20.480469 22.121094 C 20.726562 21.675781 20.933594 21.226562 21.054688 20.738281 L 22.574219 20.25 C 22.695312 20.210938 22.777344 20.089844 22.777344 19.964844 L 22.777344 18.175781 C 22.777344 18.054688 22.695312 17.929688 22.574219 17.890625 Z M 22.164062 19.722656 L 20.6875 20.167969 C 20.605469 20.210938 20.519531 20.292969 20.480469 20.371094 C 20.355469 20.902344 20.109375 21.429688 19.863281 21.917969 C 19.824219 22 19.824219 22.121094 19.863281 22.203125 L 20.5625 23.546875 L 19.617188 24.484375 L 18.265625 23.792969 C 18.183594 23.75 18.058594 23.75 17.976562 23.792969 C 17.484375 24.078125 16.992188 24.28125 16.417969 24.441406 C 16.292969 24.484375 16.210938 24.566406 16.210938 24.644531 L 15.761719 26.109375 L 14.40625 26.109375 L 13.914062 24.6875 C 13.871094 24.605469 13.789062 24.523438 13.707031 24.484375 C 13.175781 24.359375 12.640625 24.117188 12.148438 23.832031 C 12.066406 23.792969 11.945312 23.792969 11.863281 23.832031 L 10.507812 24.523438 L 9.5625 23.589844 L 10.261719 22.246094 C 10.300781 22.164062 10.300781 22.042969 10.261719 21.960938 C 9.972656 21.472656 9.769531 20.984375 9.644531 20.414062 C 9.605469 20.292969 9.523438 20.210938 9.441406 20.210938 L 7.960938 19.761719 L 7.960938 18.417969 L 9.441406 17.972656 C 9.523438 17.929688 9.605469 17.851562 9.644531 17.769531 C 9.769531 17.238281 10.015625 16.710938 10.261719 16.261719 C 10.300781 16.179688 10.300781 16.058594 10.261719 15.976562 L 9.523438 14.59375 L 10.464844 13.660156 L 11.863281 14.390625 C 11.945312 14.429688 12.066406 14.429688 12.148438 14.390625 C 12.601562 14.105469 13.132812 13.902344 13.667969 13.78125 C 13.789062 13.738281 13.871094 13.660156 13.871094 13.578125 L 14.324219 12.113281 L 15.679688 12.113281 L 16.128906 13.578125 C 16.171875 13.660156 16.253906 13.738281 16.335938 13.78125 C 16.867188 13.902344 17.402344 14.105469 17.855469 14.390625 C 17.9375 14.429688 18.058594 14.429688 18.140625 14.390625 L 19.535156 13.660156 L 20.480469 14.59375 L 19.742188 15.976562 C 19.699219 16.058594 19.699219 16.179688 19.742188 16.261719 C 20.027344 16.75 20.234375 17.238281 20.355469 17.769531 C 20.398438 17.890625 20.480469 17.972656 20.5625 17.972656 L 22.039062 18.417969 L 22.039062 19.722656 Z M 22.164062 19.722656 "/></g><path style=" stroke:none;fill-rule:nonzero;fill:#000000;fill-opacity:1;" d="M 15.0625 14.878906 C 12.722656 14.878906 10.835938 16.75 10.835938 19.070312 C 10.835938 21.390625 12.722656 23.261719 15.0625 23.261719 C 17.402344 23.261719 19.289062 21.390625 19.289062 19.070312 C 19.289062 16.792969 17.402344 14.878906 15.0625 14.878906 Z M 15.0625 22.652344 C 13.050781 22.652344 11.449219 21.066406 11.449219 19.070312 C 11.449219 17.078125 13.050781 15.488281 15.0625 15.488281 C 17.074219 15.488281 18.675781 17.078125 18.675781 19.070312 C 18.675781 21.066406 17.03125 22.652344 15.0625 22.652344 Z M 15.0625 22.652344 "/><g clip-rule="nonzero" clip-path="url(#1c690154de)"><path style=" stroke:none;fill-rule:nonzero;fill:#000000;fill-opacity:1;" d="M 13.707031 7.351562 L 14.570312 7.839844 C 14.570312 8.125 14.613281 8.449219 14.695312 8.734375 L 14.035156 9.464844 C 13.953125 9.546875 13.953125 9.710938 13.996094 9.832031 L 14.613281 10.808594 C 14.695312 10.933594 14.816406 10.972656 14.941406 10.933594 L 15.882812 10.6875 C 16.089844 10.890625 16.335938 11.054688 16.621094 11.214844 L 16.703125 12.191406 C 16.703125 12.316406 16.828125 12.4375 16.949219 12.476562 L 18.101562 12.761719 L 18.183594 12.761719 C 18.304688 12.761719 18.386719 12.722656 18.429688 12.601562 L 18.921875 11.746094 C 19.207031 11.746094 19.535156 11.703125 19.824219 11.625 L 20.5625 12.273438 C 20.644531 12.355469 20.808594 12.355469 20.933594 12.316406 L 21.917969 11.703125 C 22.039062 11.625 22.082031 11.5 22.039062 11.378906 L 21.792969 10.445312 C 22 10.238281 22.164062 9.996094 22.328125 9.710938 L 23.3125 9.628906 C 23.433594 9.628906 23.558594 9.507812 23.601562 9.386719 L 23.886719 8.246094 C 23.929688 8.125 23.847656 7.960938 23.765625 7.921875 L 22.902344 7.390625 C 22.902344 7.105469 22.859375 6.820312 22.777344 6.535156 L 23.433594 5.804688 C 23.515625 5.722656 23.515625 5.558594 23.476562 5.4375 L 22.859375 4.460938 C 22.777344 4.339844 22.65625 4.296875 22.53125 4.339844 L 21.546875 4.582031 C 21.34375 4.378906 21.097656 4.21875 20.851562 4.054688 L 20.769531 3.078125 C 20.769531 2.957031 20.644531 2.832031 20.519531 2.792969 L 19.371094 2.507812 C 19.25 2.46875 19.085938 2.546875 19.042969 2.628906 L 18.511719 3.484375 C 18.222656 3.484375 17.9375 3.523438 17.648438 3.605469 L 16.910156 2.957031 C 16.828125 2.875 16.664062 2.875 16.539062 2.914062 L 15.554688 3.566406 C 15.433594 3.648438 15.390625 3.769531 15.433594 3.890625 L 15.636719 4.867188 C 15.433594 5.070312 15.269531 5.316406 15.105469 5.558594 L 14.117188 5.640625 C 13.996094 5.640625 13.871094 5.761719 13.832031 5.886719 L 13.542969 7.023438 C 13.542969 7.148438 13.585938 7.269531 13.707031 7.351562 Z M 14.40625 6.25 L 15.351562 6.210938 C 15.472656 6.210938 15.554688 6.128906 15.597656 6.046875 C 15.761719 5.722656 15.964844 5.4375 16.210938 5.195312 C 16.292969 5.113281 16.335938 4.988281 16.292969 4.910156 L 16.089844 4.011719 L 16.703125 3.648438 L 17.402344 4.257812 C 17.484375 4.339844 17.609375 4.339844 17.691406 4.339844 C 18.019531 4.21875 18.386719 4.175781 18.714844 4.175781 C 18.839844 4.175781 18.921875 4.136719 18.960938 4.011719 L 19.453125 3.199219 L 20.152344 3.363281 L 20.234375 4.296875 C 20.234375 4.421875 20.316406 4.5 20.398438 4.542969 C 20.726562 4.707031 20.972656 4.910156 21.261719 5.152344 C 21.300781 5.234375 21.425781 5.273438 21.546875 5.234375 L 22.449219 4.988281 L 22.820312 5.601562 L 22.203125 6.292969 C 22.121094 6.414062 22.121094 6.496094 22.121094 6.617188 C 22.246094 6.945312 22.285156 7.308594 22.285156 7.636719 C 22.285156 7.757812 22.328125 7.839844 22.449219 7.878906 L 23.269531 8.367188 L 23.105469 9.058594 L 22.164062 9.101562 C 22.039062 9.101562 21.957031 9.183594 21.917969 9.261719 C 21.753906 9.589844 21.546875 9.875 21.300781 10.117188 C 21.21875 10.199219 21.179688 10.320312 21.21875 10.402344 L 21.425781 11.296875 L 20.808594 11.664062 L 20.109375 11.054688 C 20.027344 10.972656 19.90625 10.972656 19.824219 10.972656 C 19.496094 11.09375 19.125 11.136719 18.757812 11.136719 C 18.632812 11.136719 18.550781 11.175781 18.511719 11.296875 L 18.019531 12.152344 L 17.320312 11.988281 L 17.277344 11.054688 C 17.277344 10.933594 17.195312 10.851562 17.113281 10.808594 C 16.785156 10.648438 16.5 10.445312 16.253906 10.199219 C 16.171875 10.117188 16.046875 10.078125 15.964844 10.117188 L 15.0625 10.320312 L 14.695312 9.710938 L 15.308594 9.019531 C 15.390625 8.9375 15.390625 8.816406 15.390625 8.734375 C 15.269531 8.410156 15.226562 8.042969 15.226562 7.675781 C 15.226562 7.554688 15.1875 7.472656 15.0625 7.433594 L 14.28125 6.945312 Z M 14.40625 6.25 "/></g><path style=" stroke:none;fill-rule:nonzero;fill:#000000;fill-opacity:1;" d="M 18.058594 10.445312 C 18.265625 10.484375 18.511719 10.523438 18.757812 10.523438 C 20.070312 10.523438 21.21875 9.628906 21.546875 8.367188 C 21.710938 7.636719 21.628906 6.863281 21.21875 6.210938 C 20.808594 5.558594 20.191406 5.113281 19.453125 4.910156 C 19.25 4.867188 19.003906 4.828125 18.757812 4.828125 C 17.441406 4.828125 16.292969 5.722656 15.964844 6.984375 C 15.800781 7.71875 15.882812 8.488281 16.292969 9.140625 C 16.703125 9.792969 17.320312 10.238281 18.058594 10.445312 Z M 16.539062 7.148438 C 16.785156 6.128906 17.691406 5.4375 18.714844 5.4375 C 18.878906 5.4375 19.085938 5.480469 19.25 5.519531 C 19.824219 5.640625 20.316406 6.007812 20.644531 6.535156 C 20.972656 7.066406 21.054688 7.636719 20.890625 8.246094 C 20.644531 9.261719 19.742188 9.953125 18.714844 9.953125 C 18.550781 9.953125 18.347656 9.914062 18.183594 9.875 C 17.609375 9.710938 17.113281 9.34375 16.785156 8.816406 C 16.5 8.328125 16.375 7.71875 16.539062 7.148438 Z M 16.539062 7.148438 "/><g clip-rule="nonzero" clip-path="url(#48d40fb6cb)"><path style=" stroke:none;fill-rule:nonzero;fill:#000000;fill-opacity:1;" d="M 29.34375 13.496094 L 28.648438 13.171875 C 28.605469 12.964844 28.566406 12.761719 28.484375 12.558594 L 28.933594 11.949219 C 29.015625 11.828125 29.015625 11.703125 28.933594 11.582031 L 28.359375 10.851562 C 28.277344 10.726562 28.15625 10.6875 27.992188 10.726562 L 27.292969 10.972656 C 27.128906 10.851562 26.925781 10.726562 26.71875 10.648438 L 26.636719 9.875 C 26.597656 9.75 26.511719 9.628906 26.390625 9.628906 L 25.445312 9.507812 C 25.324219 9.507812 25.199219 9.546875 25.117188 9.671875 L 24.789062 10.363281 C 24.585938 10.402344 24.378906 10.445312 24.175781 10.523438 L 23.558594 10.078125 C 23.433594 9.996094 23.3125 9.996094 23.1875 10.078125 L 22.449219 10.648438 C 22.328125 10.726562 22.285156 10.851562 22.328125 11.011719 L 22.574219 11.703125 C 22.449219 11.867188 22.328125 12.070312 22.246094 12.273438 L 21.507812 12.398438 C 21.382812 12.4375 21.261719 12.519531 21.261719 12.640625 L 21.136719 13.578125 C 21.136719 13.699219 21.179688 13.820312 21.300781 13.902344 L 22 14.226562 C 22.039062 14.429688 22.082031 14.675781 22.164062 14.878906 L 21.710938 15.449219 C 21.628906 15.570312 21.628906 15.691406 21.710938 15.816406 L 22.285156 16.546875 C 22.367188 16.667969 22.492188 16.710938 22.613281 16.667969 L 23.3125 16.425781 C 23.476562 16.546875 23.683594 16.667969 23.886719 16.75 L 24.011719 17.484375 C 24.050781 17.605469 24.132812 17.726562 24.257812 17.726562 L 25.199219 17.851562 L 25.242188 17.851562 C 25.363281 17.851562 25.488281 17.769531 25.527344 17.6875 L 25.855469 16.996094 C 26.0625 16.953125 26.308594 16.914062 26.511719 16.832031 L 27.128906 17.28125 C 27.253906 17.363281 27.375 17.363281 27.5 17.28125 L 28.238281 16.710938 C 28.359375 16.628906 28.402344 16.507812 28.359375 16.34375 L 28.113281 15.652344 C 28.238281 15.488281 28.359375 15.285156 28.441406 15.082031 L 29.179688 14.960938 C 29.304688 14.917969 29.425781 14.839844 29.425781 14.714844 L 29.550781 13.78125 C 29.550781 13.660156 29.46875 13.535156 29.34375 13.496094 Z M 28.8125 14.390625 L 28.113281 14.511719 C 27.992188 14.511719 27.910156 14.59375 27.867188 14.714844 C 27.785156 14.960938 27.621094 15.203125 27.457031 15.410156 C 27.375 15.488281 27.375 15.613281 27.417969 15.691406 L 27.664062 16.34375 L 27.292969 16.628906 L 26.71875 16.222656 C 26.636719 16.140625 26.511719 16.140625 26.429688 16.179688 C 26.183594 16.304688 25.898438 16.34375 25.609375 16.386719 C 25.488281 16.386719 25.40625 16.464844 25.363281 16.546875 L 25.078125 17.15625 L 24.585938 17.15625 L 24.460938 16.464844 C 24.460938 16.34375 24.378906 16.261719 24.257812 16.222656 C 24.011719 16.101562 23.765625 15.976562 23.558594 15.816406 C 23.476562 15.734375 23.351562 15.734375 23.269531 15.773438 L 22.613281 16.019531 L 22.328125 15.652344 L 22.738281 15.082031 C 22.820312 15 22.820312 14.878906 22.777344 14.796875 C 22.65625 14.554688 22.613281 14.269531 22.574219 13.984375 C 22.574219 13.863281 22.492188 13.78125 22.410156 13.738281 L 21.753906 13.414062 L 21.835938 12.925781 L 22.53125 12.804688 C 22.65625 12.804688 22.738281 12.722656 22.777344 12.601562 C 22.902344 12.355469 23.023438 12.113281 23.1875 11.910156 C 23.269531 11.828125 23.269531 11.703125 23.230469 11.625 L 22.984375 10.972656 L 23.351562 10.6875 L 23.929688 11.09375 C 24.011719 11.175781 24.132812 11.175781 24.214844 11.136719 C 24.460938 11.011719 24.75 10.972656 24.996094 10.933594 C 25.117188 10.933594 25.199219 10.851562 25.242188 10.769531 L 25.527344 10.160156 L 26.019531 10.238281 L 26.144531 10.933594 C 26.144531 11.054688 26.226562 11.136719 26.347656 11.175781 C 26.597656 11.257812 26.84375 11.421875 27.046875 11.582031 C 27.128906 11.664062 27.253906 11.664062 27.335938 11.625 L 27.992188 11.378906 L 28.277344 11.746094 L 27.867188 12.316406 C 27.785156 12.398438 27.785156 12.519531 27.828125 12.601562 C 27.949219 12.84375 27.992188 13.128906 28.03125 13.375 C 28.03125 13.496094 28.113281 13.578125 28.195312 13.617188 L 28.851562 13.902344 Z M 28.8125 14.390625 "/></g><path style=" stroke:none;fill-rule:nonzero;fill:#000000;fill-opacity:1;" d="M 25.324219 11.339844 C 24.789062 11.339844 24.339844 11.5 23.929688 11.828125 C 23.433594 12.191406 23.105469 12.761719 23.023438 13.375 C 22.941406 13.984375 23.105469 14.59375 23.476562 15.082031 C 23.929688 15.691406 24.625 16.019531 25.363281 16.019531 C 25.898438 16.019531 26.347656 15.855469 26.761719 15.53125 C 27.785156 14.757812 27.992188 13.292969 27.210938 12.273438 C 26.761719 11.703125 26.0625 11.339844 25.324219 11.339844 Z M 26.347656 15.042969 C 26.0625 15.285156 25.691406 15.410156 25.324219 15.410156 C 24.789062 15.410156 24.257812 15.164062 23.929688 14.714844 C 23.640625 14.351562 23.515625 13.902344 23.601562 13.453125 C 23.683594 13.007812 23.886719 12.601562 24.257812 12.316406 C 24.542969 12.070312 24.914062 11.949219 25.28125 11.949219 C 25.816406 11.949219 26.347656 12.191406 26.679688 12.640625 C 27.292969 13.414062 27.128906 14.472656 26.347656 15.042969 Z M 26.347656 15.042969 "/><g style="fill:#000000;fill-opacity:1;"><g transform="translate(4.109185, 32.788196)"><path style="stroke:none" d="M 2.125 -4.203125 C 1.894531 -4.203125 1.703125 -4.148438 1.546875 -4.046875 C 1.398438 -3.953125 1.328125 -3.804688 1.328125 -3.609375 C 1.328125 -3.421875 1.398438 -3.273438 1.546875 -3.171875 C 1.703125 -3.066406 2.023438 -2.953125 2.515625 -2.828125 C 3.015625 -2.710938 3.390625 -2.546875 3.640625 -2.328125 C 3.890625 -2.109375 4.015625 -1.785156 4.015625 -1.359375 C 4.015625 -0.941406 3.851562 -0.597656 3.53125 -0.328125 C 3.21875 -0.0664062 2.804688 0.0625 2.296875 0.0625 C 1.535156 0.0625 0.863281 -0.203125 0.28125 -0.734375 L 0.796875 -1.34375 C 1.273438 -0.914062 1.78125 -0.703125 2.3125 -0.703125 C 2.570312 -0.703125 2.78125 -0.757812 2.9375 -0.875 C 3.09375 -0.988281 3.171875 -1.140625 3.171875 -1.328125 C 3.171875 -1.515625 3.097656 -1.660156 2.953125 -1.765625 C 2.804688 -1.867188 2.554688 -1.960938 2.203125 -2.046875 C 1.847656 -2.128906 1.578125 -2.207031 1.390625 -2.28125 C 1.203125 -2.351562 1.039062 -2.445312 0.90625 -2.5625 C 0.613281 -2.78125 0.46875 -3.113281 0.46875 -3.5625 C 0.46875 -4.007812 0.628906 -4.351562 0.953125 -4.59375 C 1.285156 -4.832031 1.691406 -4.953125 2.171875 -4.953125 C 2.472656 -4.953125 2.773438 -4.898438 3.078125 -4.796875 C 3.390625 -4.703125 3.65625 -4.5625 3.875 -4.375 L 3.4375 -3.765625 C 3.289062 -3.890625 3.09375 -3.992188 2.84375 -4.078125 C 2.601562 -4.160156 2.363281 -4.203125 2.125 -4.203125 Z M 2.125 -4.203125 "/></g></g><g style="fill:#000000;fill-opacity:1;"><g transform="translate(8.466521, 32.788196)"><path style="stroke:none" d="M 3.984375 -1.5 L 1.09375 -1.5 C 1.113281 -1.226562 1.238281 -1.007812 1.46875 -0.84375 C 1.695312 -0.6875 1.957031 -0.609375 2.25 -0.609375 C 2.707031 -0.609375 3.054688 -0.753906 3.296875 -1.046875 L 3.734375 -0.5625 C 3.335938 -0.144531 2.820312 0.0625 2.1875 0.0625 C 1.664062 0.0625 1.222656 -0.109375 0.859375 -0.453125 C 0.503906 -0.796875 0.328125 -1.257812 0.328125 -1.84375 C 0.328125 -2.425781 0.507812 -2.882812 0.875 -3.21875 C 1.25 -3.5625 1.6875 -3.734375 2.1875 -3.734375 C 2.6875 -3.734375 3.109375 -3.582031 3.453125 -3.28125 C 3.804688 -2.976562 3.984375 -2.5625 3.984375 -2.03125 Z M 1.09375 -2.109375 L 3.21875 -2.109375 C 3.21875 -2.421875 3.117188 -2.660156 2.921875 -2.828125 C 2.722656 -2.992188 2.484375 -3.078125 2.203125 -3.078125 C 1.921875 -3.078125 1.664062 -2.988281 1.4375 -2.8125 C 1.207031 -2.632812 1.09375 -2.398438 1.09375 -2.109375 Z M 1.09375 -2.109375 "/></g></g><g style="fill:#000000;fill-opacity:1;"><g transform="translate(12.713185, 32.788196)"><path style="stroke:none" d="M 1.515625 -3.0625 L 1.515625 -1.1875 C 1.515625 -1.007812 1.5625 -0.867188 1.65625 -0.765625 C 1.75 -0.660156 1.878906 -0.609375 2.046875 -0.609375 C 2.210938 -0.609375 2.367188 -0.691406 2.515625 -0.859375 L 2.84375 -0.3125 C 2.5625 -0.0625 2.253906 0.0625 1.921875 0.0625 C 1.597656 0.0625 1.316406 -0.0507812 1.078125 -0.28125 C 0.847656 -0.507812 0.734375 -0.820312 0.734375 -1.21875 L 0.734375 -3.0625 L 0.28125 -3.0625 L 0.28125 -3.6875 L 0.734375 -3.6875 L 0.734375 -4.84375 L 1.515625 -4.84375 L 1.515625 -3.6875 L 2.484375 -3.6875 L 2.484375 -3.0625 Z M 1.515625 -3.0625 "/></g></g><g style="fill:#000000;fill-opacity:1;"><g transform="translate(15.604242, 32.788196)"><path style="stroke:none" d="M 1.515625 -3.0625 L 1.515625 -1.1875 C 1.515625 -1.007812 1.5625 -0.867188 1.65625 -0.765625 C 1.75 -0.660156 1.878906 -0.609375 2.046875 -0.609375 C 2.210938 -0.609375 2.367188 -0.691406 2.515625 -0.859375 L 2.84375 -0.3125 C 2.5625 -0.0625 2.253906 0.0625 1.921875 0.0625 C 1.597656 0.0625 1.316406 -0.0507812 1.078125 -0.28125 C 0.847656 -0.507812 0.734375 -0.820312 0.734375 -1.21875 L 0.734375 -3.0625 L 0.28125 -3.0625 L 0.28125 -3.6875 L 0.734375 -3.6875 L 0.734375 -4.84375 L 1.515625 -4.84375 L 1.515625 -3.6875 L 2.484375 -3.6875 L 2.484375 -3.0625 Z M 1.515625 -3.0625 "/></g></g><g style="fill:#000000;fill-opacity:1;"><g transform="translate(18.495298, 32.788196)"><path style="stroke:none" d="M 1.328125 0 L 0.5625 0 L 0.5625 -3.6875 L 1.328125 -3.6875 Z M 0.609375 -4.40625 C 0.515625 -4.507812 0.46875 -4.628906 0.46875 -4.765625 C 0.46875 -4.898438 0.515625 -5.015625 0.609375 -5.109375 C 0.703125 -5.203125 0.816406 -5.25 0.953125 -5.25 C 1.085938 -5.25 1.203125 -5.203125 1.296875 -5.109375 C 1.398438 -5.015625 1.453125 -4.898438 1.453125 -4.765625 C 1.453125 -4.628906 1.398438 -4.507812 1.296875 -4.40625 C 1.203125 -4.3125 1.085938 -4.265625 0.953125 -4.265625 C 0.816406 -4.265625 0.703125 -4.3125 0.609375 -4.40625 Z M 0.609375 -4.40625 "/></g></g><g style="fill:#000000;fill-opacity:1;"><g transform="translate(20.390393, 32.788196)"><path style="stroke:none" d="M 1.328125 -2 L 1.328125 0 L 0.5625 0 L 0.5625 -3.6875 L 1.328125 -3.6875 L 1.328125 -3.015625 C 1.453125 -3.234375 1.625 -3.40625 1.84375 -3.53125 C 2.070312 -3.664062 2.3125 -3.734375 2.5625 -3.734375 C 2.976562 -3.734375 3.3125 -3.601562 3.5625 -3.34375 C 3.820312 -3.09375 3.953125 -2.726562 3.953125 -2.25 L 3.953125 0 L 3.171875 0 L 3.171875 -2.015625 C 3.171875 -2.691406 2.890625 -3.03125 2.328125 -3.03125 C 2.066406 -3.03125 1.832031 -2.941406 1.625 -2.765625 C 1.425781 -2.585938 1.328125 -2.332031 1.328125 -2 Z M 1.328125 -2 "/></g></g><g style="fill:#000000;fill-opacity:1;"><g transform="translate(24.858391, 32.788196)"><path style="stroke:none" d="M 3.96875 -3.6875 L 3.96875 -0.46875 C 3.96875 0.175781 3.789062 0.660156 3.4375 0.984375 C 3.082031 1.316406 2.628906 1.484375 2.078125 1.484375 C 1.523438 1.484375 1.023438 1.3125 0.578125 0.96875 L 0.9375 0.375 C 1.300781 0.644531 1.664062 0.78125 2.03125 0.78125 C 2.394531 0.78125 2.679688 0.6875 2.890625 0.5 C 3.109375 0.3125 3.21875 0.0078125 3.21875 -0.40625 L 3.21875 -0.875 C 3.101562 -0.65625 2.9375 -0.484375 2.71875 -0.359375 C 2.507812 -0.234375 2.269531 -0.171875 2 -0.171875 C 1.519531 -0.171875 1.117188 -0.335938 0.796875 -0.671875 C 0.484375 -1.015625 0.328125 -1.441406 0.328125 -1.953125 C 0.328125 -2.460938 0.484375 -2.882812 0.796875 -3.21875 C 1.117188 -3.5625 1.519531 -3.734375 2 -3.734375 C 2.488281 -3.734375 2.882812 -3.535156 3.1875 -3.140625 L 3.1875 -3.6875 Z M 1.09375 -1.984375 C 1.09375 -1.679688 1.1875 -1.421875 1.375 -1.203125 C 1.5625 -0.984375 1.8125 -0.875 2.125 -0.875 C 2.445312 -0.875 2.703125 -0.976562 2.890625 -1.1875 C 3.085938 -1.40625 3.1875 -1.671875 3.1875 -1.984375 C 3.1875 -2.296875 3.085938 -2.5625 2.890625 -2.78125 C 2.691406 -3 2.4375 -3.109375 2.125 -3.109375 C 1.8125 -3.109375 1.5625 -2.992188 1.375 -2.765625 C 1.1875 -2.546875 1.09375 -2.285156 1.09375 -1.984375 Z M 1.09375 -1.984375 "/></g></g><g style="fill:#000000;fill-opacity:1;"><g transform="translate(29.381716, 32.788196)"><path style="stroke:none" d="M 3.1875 -1.09375 C 3.1875 -0.75 3.054688 -0.46875 2.796875 -0.25 C 2.546875 -0.0390625 2.222656 0.0625 1.828125 0.0625 C 1.554688 0.0625 1.273438 0.015625 0.984375 -0.078125 C 0.703125 -0.179688 0.453125 -0.320312 0.234375 -0.5 L 0.609375 -1.09375 C 1.035156 -0.769531 1.445312 -0.609375 1.84375 -0.609375 C 2.019531 -0.609375 2.160156 -0.648438 2.265625 -0.734375 C 2.367188 -0.816406 2.421875 -0.921875 2.421875 -1.046875 C 2.421875 -1.234375 2.175781 -1.398438 1.6875 -1.546875 C 1.644531 -1.554688 1.613281 -1.566406 1.59375 -1.578125 C 0.832031 -1.773438 0.453125 -2.117188 0.453125 -2.609375 C 0.453125 -2.953125 0.582031 -3.222656 0.84375 -3.421875 C 1.113281 -3.628906 1.457031 -3.734375 1.875 -3.734375 C 2.300781 -3.734375 2.707031 -3.609375 3.09375 -3.359375 L 2.796875 -2.796875 C 2.492188 -2.992188 2.171875 -3.09375 1.828125 -3.09375 C 1.640625 -3.09375 1.488281 -3.054688 1.375 -2.984375 C 1.257812 -2.921875 1.203125 -2.820312 1.203125 -2.6875 C 1.203125 -2.5625 1.257812 -2.472656 1.375 -2.421875 C 1.457031 -2.378906 1.570312 -2.335938 1.71875 -2.296875 C 1.875 -2.265625 2.007812 -2.226562 2.125 -2.1875 C 2.238281 -2.15625 2.347656 -2.113281 2.453125 -2.0625 C 2.566406 -2.019531 2.6875 -1.957031 2.8125 -1.875 C 3.0625 -1.707031 3.1875 -1.445312 3.1875 -1.09375 Z M 3.1875 -1.09375 "/></g></g></g></svg>