<svg xmlns="http://www.w3.org/2000/svg" xmlns:xlink="http://www.w3.org/1999/xlink" width="50" zoomAndPan="magnify" viewBox="0 0 37.5 37.499999" height="50" preserveAspectRatio="xMidYMid meet" version="1.0"><defs><clipPath id="a64919d2eb"><path d="M 6.644531 6 L 28 6 L 28 33.765625 L 6.644531 33.765625 Z M 6.644531 6 " clip-rule="nonzero"/></clipPath><clipPath id="a2b9a01c87"><path d="M 9 3.421875 L 30.328125 3.421875 L 30.328125 31 L 9 31 Z M 9 3.421875 " clip-rule="nonzero"/></clipPath></defs><g clip-path="url(#a64919d2eb)"><path fill="#ffffff" d="M 6.652344 6.878906 L 6.652344 33.582031 L 27.308594 33.582031 L 27.308594 11.445312 L 23.71875 11.445312 C 23.40625 11.445312 23.15625 11.191406 23.15625 10.878906 L 23.15625 6.878906 Z M 19.089844 25.628906 L 9.792969 25.628906 C 9.480469 25.628906 9.230469 25.375 9.230469 25.0625 C 9.230469 24.753906 9.480469 24.5 9.792969 24.5 L 19.089844 24.5 C 19.398438 24.5 19.652344 24.753906 19.652344 25.0625 C 19.652344 25.375 19.398438 25.628906 19.089844 25.628906 Z M 24.160156 21.992188 L 9.792969 21.992188 C 9.480469 21.992188 9.230469 21.738281 9.230469 21.425781 C 9.230469 21.117188 9.480469 20.863281 9.792969 20.863281 L 24.160156 20.863281 C 24.472656 20.863281 24.722656 21.117188 24.722656 21.425781 C 24.722656 21.738281 24.472656 21.992188 24.160156 21.992188 Z M 24.160156 18.347656 L 9.792969 18.347656 C 9.480469 18.347656 9.230469 18.09375 9.230469 17.785156 C 9.230469 17.472656 9.480469 17.21875 9.792969 17.21875 L 24.160156 17.21875 C 24.472656 17.21875 24.722656 17.472656 24.722656 17.785156 C 24.722656 18.09375 24.472656 18.347656 24.160156 18.347656 Z M 24.160156 13.578125 C 24.472656 13.578125 24.722656 13.828125 24.722656 14.140625 C 24.722656 14.449219 24.472656 14.703125 24.160156 14.703125 L 9.792969 14.703125 C 9.480469 14.703125 9.230469 14.449219 9.230469 14.140625 C 9.230469 13.828125 9.480469 13.578125 9.792969 13.578125 Z M 24.160156 13.578125 " fill-opacity="1" fill-rule="nonzero"/></g><path fill="#ffffff" d="M 26.597656 10.316406 L 24.28125 7.769531 L 24.28125 10.316406 Z M 26.597656 10.316406 " fill-opacity="1" fill-rule="nonzero"/><g clip-path="url(#a2b9a01c87)"><path fill="#ffffff" d="M 9.679688 3.421875 L 9.679688 5.753906 L 23.71875 5.753906 C 23.726562 5.753906 23.726562 5.753906 23.730469 5.753906 C 23.769531 5.753906 23.804688 5.769531 23.84375 5.777344 C 23.878906 5.785156 23.917969 5.785156 23.945312 5.800781 C 23.96875 5.8125 23.992188 5.828125 24.019531 5.84375 C 24.058594 5.867188 24.09375 5.886719 24.125 5.925781 C 24.125 5.925781 24.132812 5.933594 24.132812 5.933594 L 28.289062 10.496094 C 28.308594 10.515625 28.316406 10.539062 28.332031 10.570312 C 28.355469 10.605469 28.375 10.636719 28.398438 10.671875 C 28.414062 10.710938 28.421875 10.753906 28.421875 10.800781 C 28.429688 10.828125 28.433594 10.851562 28.433594 10.878906 L 28.433594 30.125 L 30.347656 30.125 L 30.347656 3.421875 Z M 9.679688 3.421875 " fill-opacity="1" fill-rule="nonzero"/></g></svg>