<svg xmlns="http://www.w3.org/2000/svg" xmlns:xlink="http://www.w3.org/1999/xlink" width="50" zoomAndPan="magnify" viewBox="0 0 37.5 37.499999" height="50" preserveAspectRatio="xMidYMid meet" version="1.0"><defs><g/><clipPath id="03a0d7c219"><path d="M 8.140625 1.628906 L 33 1.628906 L 33 25.3125 L 8.140625 25.3125 Z M 8.140625 1.628906 " clip-rule="nonzero"/></clipPath></defs><g clip-path="url(#03a0d7c219)"><path fill="#ffffff" d="M 32.8125 10.027344 L 32.5625 10.300781 L 31.761719 11.171875 L 30.925781 12.085938 L 28.957031 14.214844 L 27.746094 15.542969 C 27.628906 15.664062 27.488281 15.726562 27.320312 15.726562 L 27.265625 15.726562 C 27.070312 15.703125 26.925781 15.609375 26.828125 15.441406 L 25.191406 12.683594 C 25.113281 12.546875 25.09375 12.402344 25.128906 12.25 C 25.167969 12.09375 25.253906 11.976562 25.386719 11.894531 C 25.523438 11.8125 25.671875 11.796875 25.824219 11.835938 C 25.976562 11.875 26.09375 11.964844 26.175781 12.097656 L 27.425781 14.214844 L 28.957031 12.535156 L 30.296875 11.070312 L 31.851562 9.375 L 31.96875 9.25 C 32.074219 9.132812 32.207031 9.070312 32.367188 9.0625 C 32.523438 9.058594 32.664062 9.109375 32.78125 9.214844 C 32.898438 9.324219 32.957031 9.457031 32.964844 9.613281 C 32.972656 9.773438 32.921875 9.910156 32.8125 10.027344 Z M 32.8125 10.027344 L 32.5625 10.300781 L 31.761719 11.171875 L 30.925781 12.085938 L 28.957031 14.214844 L 27.746094 15.542969 C 27.628906 15.664062 27.488281 15.726562 27.320312 15.726562 L 27.265625 15.726562 C 27.070312 15.703125 26.925781 15.609375 26.828125 15.441406 L 25.191406 12.683594 C 25.113281 12.546875 25.09375 12.402344 25.128906 12.25 C 25.167969 12.09375 25.253906 11.976562 25.386719 11.894531 C 25.523438 11.8125 25.671875 11.796875 25.824219 11.835938 C 25.976562 11.875 26.09375 11.964844 26.175781 12.097656 L 27.425781 14.214844 L 28.957031 12.535156 L 30.296875 11.070312 L 31.851562 9.375 L 31.96875 9.25 C 32.074219 9.132812 32.207031 9.070312 32.367188 9.0625 C 32.523438 9.058594 32.664062 9.109375 32.78125 9.214844 C 32.898438 9.324219 32.957031 9.457031 32.964844 9.613281 C 32.972656 9.773438 32.921875 9.910156 32.8125 10.027344 Z M 32.023438 11.746094 L 28.167969 15.945312 C 27.9375 16.183594 27.652344 16.304688 27.320312 16.308594 L 27.195312 16.308594 C 26.8125 16.265625 26.527344 16.074219 26.335938 15.738281 L 24.699219 12.980469 C 24.605469 12.847656 24.542969 12.703125 24.507812 12.546875 C 24.472656 12.386719 24.472656 12.230469 24.507812 12.070312 C 24.539062 11.914062 24.605469 11.769531 24.699219 11.636719 C 24.792969 11.503906 24.910156 11.398438 25.050781 11.316406 C 25.191406 11.238281 25.339844 11.1875 25.503906 11.167969 C 25.664062 11.152344 25.820312 11.167969 25.976562 11.21875 C 26.128906 11.265625 26.265625 11.34375 26.386719 11.453125 C 26.507812 11.5625 26.601562 11.6875 26.667969 11.835938 L 27.527344 13.265625 L 30.675781 9.832031 C 30.171875 9.375 29.597656 9.03125 28.957031 8.804688 C 28.402344 8.597656 27.832031 8.496094 27.242188 8.496094 C 26.902344 8.496094 26.570312 8.527344 26.238281 8.59375 C 25.90625 8.660156 25.582031 8.757812 25.269531 8.886719 C 24.957031 9.015625 24.660156 9.175781 24.378906 9.363281 C 24.097656 9.550781 23.839844 9.761719 23.601562 10.003906 C 23.359375 10.242188 23.148438 10.5 22.960938 10.78125 C 22.773438 11.0625 22.613281 11.359375 22.484375 11.671875 C 22.355469 11.984375 22.257812 12.308594 22.191406 12.640625 C 22.125 12.972656 22.09375 13.304688 22.09375 13.644531 C 22.09375 13.980469 22.125 14.316406 22.191406 14.648438 C 22.257812 14.980469 22.355469 15.300781 22.484375 15.613281 C 22.613281 15.925781 22.773438 16.222656 22.960938 16.503906 C 23.148438 16.785156 23.359375 17.046875 23.601562 17.285156 C 23.839844 17.523438 24.097656 17.738281 24.378906 17.925781 C 24.660156 18.113281 24.957031 18.273438 25.269531 18.402344 C 25.582031 18.53125 25.90625 18.628906 26.238281 18.695312 C 26.570312 18.761719 26.902344 18.792969 27.242188 18.792969 C 27.832031 18.796875 28.402344 18.695312 28.957031 18.496094 C 29.460938 18.316406 29.921875 18.066406 30.347656 17.746094 C 30.769531 17.425781 31.136719 17.046875 31.441406 16.613281 C 31.75 16.179688 31.984375 15.707031 32.148438 15.203125 C 32.308594 14.695312 32.390625 14.175781 32.390625 13.644531 C 32.394531 12.988281 32.269531 12.351562 32.023438 11.746094 Z M 20.949219 13.644531 C 20.949219 14.058594 20.988281 14.464844 21.070312 14.871094 C 21.152344 15.277344 21.269531 15.667969 21.429688 16.050781 C 21.589844 16.433594 21.78125 16.792969 22.011719 17.136719 C 22.242188 17.480469 22.503906 17.800781 22.792969 18.089844 C 23.085938 18.382812 23.402344 18.644531 23.746094 18.875 C 24.089844 19.101562 24.453125 19.296875 24.835938 19.457031 C 25.214844 19.613281 25.609375 19.734375 26.015625 19.816406 C 26.417969 19.894531 26.828125 19.9375 27.242188 19.9375 C 27.824219 19.941406 28.398438 19.859375 28.957031 19.699219 L 28.957031 22.796875 C 28.957031 23.179688 28.886719 23.542969 28.738281 23.894531 C 28.59375 24.242188 28.386719 24.554688 28.121094 24.820312 C 27.851562 25.089844 27.542969 25.296875 27.191406 25.441406 C 26.839844 25.585938 26.476562 25.660156 26.097656 25.660156 L 11.21875 25.660156 C 10.839844 25.660156 10.476562 25.585938 10.125 25.441406 C 9.777344 25.296875 9.464844 25.089844 9.199219 24.820312 C 8.929688 24.554688 8.722656 24.242188 8.578125 23.894531 C 8.433594 23.542969 8.359375 23.179688 8.359375 22.796875 L 8.359375 4.488281 C 8.359375 4.109375 8.433594 3.746094 8.578125 3.394531 C 8.722656 3.042969 8.929688 2.734375 9.199219 2.464844 C 9.464844 2.199219 9.777344 1.992188 10.125 1.847656 C 10.476562 1.699219 10.839844 1.628906 11.21875 1.628906 L 26.097656 1.628906 C 26.476562 1.628906 26.839844 1.699219 27.191406 1.847656 C 27.542969 1.992188 27.851562 2.199219 28.121094 2.464844 C 28.386719 2.734375 28.59375 3.042969 28.738281 3.394531 C 28.886719 3.746094 28.957031 4.109375 28.957031 4.488281 L 28.957031 7.589844 C 28.398438 7.429688 27.824219 7.347656 27.242188 7.351562 C 26.828125 7.351562 26.417969 7.390625 26.015625 7.472656 C 25.609375 7.554688 25.214844 7.671875 24.835938 7.832031 C 24.453125 7.992188 24.089844 8.183594 23.746094 8.414062 C 23.402344 8.644531 23.085938 8.90625 22.792969 9.195312 C 22.503906 9.488281 22.242188 9.804688 22.011719 10.148438 C 21.78125 10.492188 21.589844 10.855469 21.429688 11.238281 C 21.269531 11.617188 21.152344 12.011719 21.070312 12.417969 C 20.988281 12.820312 20.949219 13.230469 20.949219 13.644531 Z M 12.9375 15.933594 C 12.9375 16.089844 12.992188 16.226562 13.105469 16.335938 C 13.214844 16.449219 13.351562 16.503906 13.507812 16.503906 L 19.230469 16.503906 C 19.390625 16.503906 19.523438 16.449219 19.636719 16.335938 C 19.746094 16.226562 19.804688 16.089844 19.804688 15.933594 C 19.804688 15.773438 19.746094 15.640625 19.636719 15.527344 C 19.523438 15.417969 19.390625 15.359375 19.230469 15.359375 L 13.507812 15.359375 C 13.351562 15.359375 13.214844 15.417969 13.105469 15.527344 C 12.992188 15.640625 12.9375 15.773438 12.9375 15.933594 Z M 13.507812 11.925781 L 18.085938 11.925781 C 18.246094 11.925781 18.378906 11.871094 18.492188 11.757812 C 18.601562 11.648438 18.660156 11.511719 18.660156 11.355469 C 18.660156 11.195312 18.601562 11.0625 18.492188 10.949219 C 18.378906 10.839844 18.246094 10.78125 18.085938 10.78125 L 13.507812 10.78125 C 13.351562 10.78125 13.214844 10.839844 13.105469 10.949219 C 12.992188 11.0625 12.9375 11.195312 12.9375 11.355469 C 12.9375 11.511719 12.992188 11.648438 13.105469 11.757812 C 13.214844 11.871094 13.351562 11.925781 13.507812 11.925781 Z M 13.507812 19.9375 C 13.351562 19.9375 13.214844 19.992188 13.105469 20.105469 C 12.992188 20.21875 12.9375 20.351562 12.9375 20.511719 C 12.9375 20.667969 12.992188 20.804688 13.105469 20.914062 C 13.214844 21.027344 13.351562 21.082031 13.507812 21.082031 L 23.808594 21.082031 C 23.964844 21.082031 24.101562 21.027344 24.214844 20.914062 C 24.324219 20.804688 24.378906 20.667969 24.378906 20.511719 C 24.378906 20.351562 24.324219 20.21875 24.214844 20.105469 C 24.101562 19.992188 23.964844 19.9375 23.808594 19.9375 Z M 23.808594 7.351562 C 23.964844 7.351562 24.101562 7.292969 24.214844 7.183594 C 24.324219 7.070312 24.378906 6.9375 24.378906 6.777344 C 24.378906 6.621094 24.324219 6.484375 24.214844 6.375 C 24.101562 6.261719 23.964844 6.207031 23.808594 6.207031 L 13.507812 6.207031 C 13.351562 6.207031 13.214844 6.261719 13.105469 6.375 C 12.992188 6.484375 12.9375 6.621094 12.9375 6.777344 C 12.9375 6.9375 12.992188 7.070312 13.105469 7.183594 C 13.214844 7.292969 13.351562 7.351562 13.507812 7.351562 Z M 23.808594 7.351562 " fill-opacity="1" fill-rule="nonzero"/></g><g fill="#ffffff" fill-opacity="1"><g transform="translate(5.151981, 34.293604)"><g><path d="M 3.5625 -5.84375 L 3.5625 0 L 2.40625 0 L 2.40625 -5.84375 L 0.3125 -5.84375 L 0.3125 -6.90625 L 5.65625 -6.90625 L 5.65625 -5.84375 Z M 3.5625 -5.84375 "/></g></g></g><g fill="#ffffff" fill-opacity="1"><g transform="translate(10.389404, 34.293604)"><g><path d="M 5.0625 0 L 4.046875 0 L 4.046875 -0.703125 C 3.609375 -0.179688 3.023438 0.078125 2.296875 0.078125 C 1.753906 0.078125 1.300781 -0.0703125 0.9375 -0.375 C 0.582031 -0.6875 0.40625 -1.101562 0.40625 -1.625 C 0.40625 -2.144531 0.59375 -2.53125 0.96875 -2.78125 C 1.351562 -3.039062 1.875 -3.171875 2.53125 -3.171875 L 3.953125 -3.171875 L 3.953125 -3.375 C 3.953125 -4.070312 3.566406 -4.421875 2.796875 -4.421875 C 2.304688 -4.421875 1.800781 -4.238281 1.28125 -3.875 L 0.78125 -4.578125 C 1.414062 -5.078125 2.140625 -5.328125 2.953125 -5.328125 C 3.566406 -5.328125 4.070312 -5.171875 4.46875 -4.859375 C 4.863281 -4.546875 5.0625 -4.054688 5.0625 -3.390625 Z M 3.953125 -1.953125 L 3.953125 -2.40625 L 2.703125 -2.40625 C 1.910156 -2.40625 1.515625 -2.15625 1.515625 -1.65625 C 1.515625 -1.394531 1.613281 -1.195312 1.8125 -1.0625 C 2.007812 -0.925781 2.28125 -0.859375 2.625 -0.859375 C 2.976562 -0.859375 3.285156 -0.957031 3.546875 -1.15625 C 3.816406 -1.351562 3.953125 -1.617188 3.953125 -1.953125 Z M 3.953125 -1.953125 "/></g></g></g><g fill="#ffffff" fill-opacity="1"><g transform="translate(16.17988, 34.293604)"><g><path d="M 4.546875 -1.5625 C 4.546875 -1.0625 4.363281 -0.660156 4 -0.359375 C 3.632812 -0.0664062 3.171875 0.078125 2.609375 0.078125 C 2.222656 0.078125 1.820312 0.0078125 1.40625 -0.125 C 1 -0.257812 0.640625 -0.457031 0.328125 -0.71875 L 0.859375 -1.5625 C 1.472656 -1.101562 2.066406 -0.875 2.640625 -0.875 C 2.890625 -0.875 3.085938 -0.929688 3.234375 -1.046875 C 3.378906 -1.160156 3.453125 -1.304688 3.453125 -1.484375 C 3.453125 -1.753906 3.101562 -1.992188 2.40625 -2.203125 C 2.351562 -2.222656 2.3125 -2.234375 2.28125 -2.234375 C 1.1875 -2.535156 0.640625 -3.03125 0.640625 -3.71875 C 0.640625 -4.207031 0.828125 -4.597656 1.203125 -4.890625 C 1.585938 -5.179688 2.082031 -5.328125 2.6875 -5.328125 C 3.289062 -5.328125 3.863281 -5.148438 4.40625 -4.796875 L 3.984375 -3.984375 C 3.554688 -4.265625 3.09375 -4.40625 2.59375 -4.40625 C 2.332031 -4.40625 2.117188 -4.359375 1.953125 -4.265625 C 1.785156 -4.171875 1.703125 -4.023438 1.703125 -3.828125 C 1.703125 -3.660156 1.789062 -3.535156 1.96875 -3.453125 C 2.082031 -3.398438 2.242188 -3.34375 2.453125 -3.28125 C 2.671875 -3.226562 2.863281 -3.175781 3.03125 -3.125 C 3.195312 -3.070312 3.359375 -3.015625 3.515625 -2.953125 C 3.671875 -2.890625 3.835938 -2.796875 4.015625 -2.671875 C 4.367188 -2.441406 4.546875 -2.070312 4.546875 -1.5625 Z M 4.546875 -1.5625 "/></g></g></g><g fill="#ffffff" fill-opacity="1"><g transform="translate(21.17133, 34.293604)"><g><path d="M 1.90625 0 L 0.796875 0 L 0.796875 -7.328125 L 1.90625 -7.328125 L 1.90625 -3.015625 L 4.03125 -5.25 L 5.453125 -5.25 L 3.46875 -3.171875 L 5.609375 0 L 4.265625 0 L 2.703125 -2.296875 L 1.90625 -1.484375 Z M 1.90625 0 "/></g></g></g><g fill="#ffffff" fill-opacity="1"><g transform="translate(26.853253, 34.293604)"><g><path d="M 4.546875 -1.5625 C 4.546875 -1.0625 4.363281 -0.660156 4 -0.359375 C 3.632812 -0.0664062 3.171875 0.078125 2.609375 0.078125 C 2.222656 0.078125 1.820312 0.0078125 1.40625 -0.125 C 1 -0.257812 0.640625 -0.457031 0.328125 -0.71875 L 0.859375 -1.5625 C 1.472656 -1.101562 2.066406 -0.875 2.640625 -0.875 C 2.890625 -0.875 3.085938 -0.929688 3.234375 -1.046875 C 3.378906 -1.160156 3.453125 -1.304688 3.453125 -1.484375 C 3.453125 -1.753906 3.101562 -1.992188 2.40625 -2.203125 C 2.351562 -2.222656 2.3125 -2.234375 2.28125 -2.234375 C 1.1875 -2.535156 0.640625 -3.03125 0.640625 -3.71875 C 0.640625 -4.207031 0.828125 -4.597656 1.203125 -4.890625 C 1.585938 -5.179688 2.082031 -5.328125 2.6875 -5.328125 C 3.289062 -5.328125 3.863281 -5.148438 4.40625 -4.796875 L 3.984375 -3.984375 C 3.554688 -4.265625 3.09375 -4.40625 2.59375 -4.40625 C 2.332031 -4.40625 2.117188 -4.359375 1.953125 -4.265625 C 1.785156 -4.171875 1.703125 -4.023438 1.703125 -3.828125 C 1.703125 -3.660156 1.789062 -3.535156 1.96875 -3.453125 C 2.082031 -3.398438 2.242188 -3.34375 2.453125 -3.28125 C 2.671875 -3.226562 2.863281 -3.175781 3.03125 -3.125 C 3.195312 -3.070312 3.359375 -3.015625 3.515625 -2.953125 C 3.671875 -2.890625 3.835938 -2.796875 4.015625 -2.671875 C 4.367188 -2.441406 4.546875 -2.070312 4.546875 -1.5625 Z M 4.546875 -1.5625 "/></g></g></g></svg>