<svg xmlns="http://www.w3.org/2000/svg" xmlns:xlink="http://www.w3.org/1999/xlink" width="50" zoomAndPan="magnify" viewBox="0 0 37.5 37.499999" height="50" preserveAspectRatio="xMidYMid meet" version="1.0"><defs><clipPath id="5a8c8af7c7"><path d="M 3.875 20 L 33 20 L 33 31.746094 L 3.875 31.746094 Z M 3.875 20 " clip-rule="nonzero"/></clipPath><clipPath id="78ee0c697b"><path d="M 3.875 11 L 11 11 L 11 22 L 3.875 22 Z M 3.875 11 " clip-rule="nonzero"/></clipPath><clipPath id="15f5b21a2e"><path d="M 9 5.101562 L 13 5.101562 L 13 17 L 9 17 Z M 9 5.101562 " clip-rule="nonzero"/></clipPath><clipPath id="10b4fc7c32"><path d="M 20 5.101562 L 33.480469 5.101562 L 33.480469 11 L 20 11 Z M 20 5.101562 " clip-rule="nonzero"/></clipPath></defs><g clip-path="url(#5a8c8af7c7)"><path fill="#ffffff" d="M 32.398438 31.902344 L 4.207031 31.902344 C 4.023438 31.902344 3.875 31.753906 3.875 31.570312 L 3.875 21.027344 C 3.875 20.84375 4.023438 20.695312 4.207031 20.695312 L 32.398438 20.695312 C 32.582031 20.695312 32.730469 20.84375 32.730469 21.027344 L 32.730469 31.570312 C 32.730469 31.753906 32.582031 31.902344 32.398438 31.902344 Z M 4.539062 31.238281 L 32.066406 31.238281 L 32.066406 21.359375 L 4.539062 21.359375 Z M 4.539062 31.238281 " fill-opacity="1" fill-rule="nonzero"/></g><path fill="#ffffff" d="M 14.792969 11.960938 L 11.617188 11.960938 C 11.433594 11.960938 11.285156 11.8125 11.285156 11.628906 C 11.285156 11.449219 11.433594 11.300781 11.617188 11.300781 L 14.792969 11.300781 C 14.976562 11.300781 15.125 11.449219 15.125 11.628906 C 15.125 11.8125 14.976562 11.960938 14.792969 11.960938 Z M 14.792969 11.960938 " fill-opacity="1" fill-rule="nonzero"/><g clip-path="url(#78ee0c697b)"><path fill="#ffffff" d="M 4.207031 21.359375 C 4.023438 21.359375 3.875 21.210938 3.875 21.027344 L 3.875 11.628906 C 3.875 11.449219 4.023438 11.300781 4.207031 11.300781 L 10.25 11.300781 C 10.433594 11.300781 10.582031 11.449219 10.582031 11.628906 C 10.582031 11.8125 10.433594 11.960938 10.25 11.960938 L 4.539062 11.960938 L 4.539062 21.027344 C 4.539062 21.210938 4.390625 21.359375 4.207031 21.359375 Z M 4.207031 21.359375 " fill-opacity="1" fill-rule="nonzero"/></g><path fill="#ffffff" d="M 32.398438 21.359375 C 32.214844 21.359375 32.066406 21.210938 32.066406 21.027344 L 32.066406 11.960938 L 27.238281 11.960938 C 27.054688 11.960938 26.90625 11.8125 26.90625 11.628906 C 26.90625 11.449219 27.054688 11.300781 27.238281 11.300781 L 32.398438 11.300781 C 32.582031 11.300781 32.730469 11.449219 32.730469 11.628906 L 32.730469 21.027344 C 32.730469 21.210938 32.582031 21.359375 32.398438 21.359375 Z M 32.398438 21.359375 " fill-opacity="1" fill-rule="nonzero"/><path fill="#ffffff" d="M 25.867188 11.960938 L 19.921875 11.960938 C 19.738281 11.960938 19.589844 11.8125 19.589844 11.628906 C 19.589844 11.449219 19.738281 11.300781 19.921875 11.300781 L 25.867188 11.300781 C 26.050781 11.300781 26.199219 11.449219 26.199219 11.628906 C 26.199219 11.8125 26.050781 11.960938 25.867188 11.960938 Z M 25.867188 11.960938 " fill-opacity="1" fill-rule="nonzero"/><path fill="#ffffff" d="M 16.578125 14.613281 L 11.617188 14.613281 C 11.433594 14.613281 11.285156 14.464844 11.285156 14.285156 C 11.285156 14.101562 11.433594 13.953125 11.617188 13.953125 L 16.578125 13.953125 C 16.761719 13.953125 16.910156 14.101562 16.910156 14.285156 C 16.910156 14.464844 16.761719 14.613281 16.578125 14.613281 Z M 16.578125 14.613281 " fill-opacity="1" fill-rule="nonzero"/><path fill="#ffffff" d="M 10.25 14.613281 L 6.859375 14.613281 C 6.675781 14.613281 6.527344 14.464844 6.527344 14.285156 C 6.527344 14.101562 6.675781 13.953125 6.859375 13.953125 L 10.25 13.953125 C 10.433594 13.953125 10.582031 14.101562 10.582031 14.285156 C 10.582031 14.464844 10.433594 14.613281 10.25 14.613281 Z M 10.25 14.613281 " fill-opacity="1" fill-rule="nonzero"/><path fill="#ffffff" d="M 29.746094 14.613281 L 26.691406 14.613281 C 26.507812 14.613281 26.359375 14.464844 26.359375 14.285156 C 26.359375 14.101562 26.507812 13.953125 26.691406 13.953125 L 29.746094 13.953125 C 29.929688 13.953125 30.078125 14.101562 30.078125 14.285156 C 30.078125 14.464844 29.929688 14.613281 29.746094 14.613281 Z M 29.746094 14.613281 " fill-opacity="1" fill-rule="nonzero"/><path fill="#ffffff" d="M 25.324219 14.613281 L 18.136719 14.613281 C 17.953125 14.613281 17.804688 14.464844 17.804688 14.285156 C 17.804688 14.101562 17.953125 13.953125 18.136719 13.953125 L 25.324219 13.953125 C 25.503906 13.953125 25.652344 14.101562 25.652344 14.285156 C 25.652344 14.464844 25.503906 14.613281 25.324219 14.613281 Z M 25.324219 14.613281 " fill-opacity="1" fill-rule="nonzero"/><path fill="#ffffff" d="M 21.167969 26.632812 L 15.09375 26.632812 C 14.910156 26.632812 14.761719 26.484375 14.761719 26.300781 L 14.761719 23.664062 C 14.761719 23.480469 14.910156 23.332031 15.09375 23.332031 L 21.167969 23.332031 C 21.351562 23.332031 21.5 23.480469 21.5 23.664062 L 21.5 26.300781 C 21.5 26.484375 21.351562 26.632812 21.167969 26.632812 Z M 15.425781 25.96875 L 20.835938 25.96875 L 20.835938 23.996094 L 15.425781 23.996094 Z M 15.425781 25.96875 " fill-opacity="1" fill-rule="nonzero"/><path fill="#ffffff" d="M 6.859375 21.359375 C 6.675781 21.359375 6.527344 21.210938 6.527344 21.027344 L 6.527344 11.628906 C 6.527344 11.449219 6.675781 11.300781 6.859375 11.300781 C 7.042969 11.300781 7.191406 11.449219 7.191406 11.628906 L 7.191406 21.027344 C 7.191406 21.210938 7.042969 21.359375 6.859375 21.359375 Z M 6.859375 21.359375 " fill-opacity="1" fill-rule="nonzero"/><path fill="#ffffff" d="M 29.746094 21.359375 C 29.5625 21.359375 29.414062 21.210938 29.414062 21.027344 L 29.414062 11.628906 C 29.414062 11.449219 29.5625 11.300781 29.746094 11.300781 C 29.929688 11.300781 30.078125 11.449219 30.078125 11.628906 L 30.078125 21.027344 C 30.078125 21.210938 29.929688 21.359375 29.746094 21.359375 Z M 29.746094 21.359375 " fill-opacity="1" fill-rule="nonzero"/><path fill="#ffffff" d="M 19.621094 21.359375 C 19.503906 21.359375 19.390625 21.296875 19.332031 21.1875 C 19.054688 20.679688 18.585938 20.289062 18.035156 20.117188 C 17.898438 20.074219 17.804688 19.945312 17.804688 19.800781 L 17.804688 13.816406 C 17.804688 13.671875 17.898438 13.542969 18.035156 13.5 C 18.582031 13.328125 19.054688 12.9375 19.332031 12.433594 C 19.507812 12.105469 19.601562 11.734375 19.601562 11.359375 C 19.601562 10.535156 19.160156 9.796875 18.46875 9.40625 L 18.46875 11.359375 C 18.46875 11.542969 18.320312 11.691406 18.136719 11.691406 L 16.578125 11.691406 C 16.394531 11.691406 16.246094 11.542969 16.246094 11.359375 L 16.246094 9.40625 C 15.550781 9.796875 15.109375 10.535156 15.109375 11.359375 C 15.109375 11.734375 15.203125 12.105469 15.382812 12.429688 C 15.664062 12.945312 16.121094 13.324219 16.675781 13.5 C 16.816406 13.542969 16.910156 13.671875 16.910156 13.816406 L 16.910156 19.800781 C 16.910156 19.945312 16.816406 20.074219 16.675781 20.117188 C 16.121094 20.292969 15.664062 20.671875 15.382812 21.1875 C 15.296875 21.347656 15.09375 21.40625 14.933594 21.320312 C 14.773438 21.230469 14.714844 21.03125 14.800781 20.871094 C 15.121094 20.277344 15.628906 19.824219 16.246094 19.570312 L 16.246094 14.050781 C 15.628906 13.796875 15.121094 13.339844 14.800781 12.75 C 14.570312 12.324219 14.449219 11.84375 14.449219 11.359375 C 14.449219 10.085938 15.261719 8.96875 16.476562 8.585938 C 16.578125 8.554688 16.6875 8.570312 16.773438 8.632812 C 16.859375 8.695312 16.910156 8.796875 16.910156 8.902344 L 16.910156 11.027344 L 17.804688 11.027344 L 17.804688 8.902344 C 17.804688 8.796875 17.855469 8.695312 17.941406 8.632812 C 18.027344 8.570312 18.136719 8.554688 18.238281 8.585938 C 19.449219 8.96875 20.265625 10.085938 20.265625 11.359375 C 20.265625 11.84375 20.144531 12.324219 19.914062 12.75 C 19.589844 13.339844 19.085938 13.796875 18.46875 14.050781 L 18.46875 19.570312 C 19.085938 19.824219 19.589844 20.277344 19.914062 20.871094 C 20 21.03125 19.941406 21.230469 19.78125 21.320312 C 19.730469 21.347656 19.675781 21.359375 19.621094 21.359375 Z M 19.621094 21.359375 " fill-opacity="1" fill-rule="nonzero"/><path fill="#ffffff" d="M 12.910156 21.359375 C 12.726562 21.359375 12.578125 21.210938 12.578125 21.027344 L 12.578125 19.382812 L 9.289062 19.382812 L 9.289062 21.027344 C 9.289062 21.210938 9.140625 21.359375 8.957031 21.359375 C 8.773438 21.359375 8.625 21.210938 8.625 21.027344 L 8.625 19.050781 C 8.625 18.867188 8.773438 18.71875 8.957031 18.71875 L 12.910156 18.71875 C 13.09375 18.71875 13.242188 18.867188 13.242188 19.050781 L 13.242188 21.027344 C 13.242188 21.210938 13.09375 21.359375 12.910156 21.359375 Z M 12.910156 21.359375 " fill-opacity="1" fill-rule="nonzero"/><path fill="#ffffff" d="M 12.230469 19.382812 L 9.636719 19.382812 C 9.453125 19.382812 9.304688 19.234375 9.304688 19.050781 L 9.304688 17.816406 C 9.304688 17.632812 9.453125 17.484375 9.636719 17.484375 L 12.230469 17.484375 C 12.414062 17.484375 12.5625 17.632812 12.5625 17.816406 L 12.5625 19.050781 C 12.5625 19.234375 12.414062 19.382812 12.230469 19.382812 Z M 9.96875 18.71875 L 11.898438 18.71875 L 11.898438 18.144531 L 9.96875 18.144531 Z M 9.96875 18.71875 " fill-opacity="1" fill-rule="nonzero"/><path fill="#ffffff" d="M 12.910156 18.144531 L 8.957031 18.144531 C 8.773438 18.144531 8.625 17.996094 8.625 17.816406 L 8.625 16.417969 C 8.625 16.238281 8.773438 16.085938 8.957031 16.085938 L 12.910156 16.085938 C 13.09375 16.085938 13.242188 16.238281 13.242188 16.417969 L 13.242188 17.816406 C 13.242188 17.996094 13.09375 18.144531 12.910156 18.144531 Z M 9.289062 17.484375 L 12.578125 17.484375 L 12.578125 16.75 L 9.289062 16.75 Z M 9.289062 17.484375 " fill-opacity="1" fill-rule="nonzero"/><path fill="#ffffff" d="M 10.277344 21.359375 C 10.09375 21.359375 9.945312 21.210938 9.945312 21.027344 L 9.945312 19.050781 C 9.945312 18.867188 10.09375 18.71875 10.277344 18.71875 C 10.457031 18.71875 10.609375 18.867188 10.609375 19.050781 L 10.609375 21.027344 C 10.609375 21.210938 10.457031 21.359375 10.277344 21.359375 Z M 10.277344 21.359375 " fill-opacity="1" fill-rule="nonzero"/><path fill="#ffffff" d="M 11.589844 21.359375 C 11.40625 21.359375 11.257812 21.210938 11.257812 21.027344 L 11.257812 19.050781 C 11.257812 18.867188 11.40625 18.71875 11.589844 18.71875 C 11.773438 18.71875 11.921875 18.867188 11.921875 19.050781 L 11.921875 21.027344 C 11.921875 21.210938 11.773438 21.359375 11.589844 21.359375 Z M 11.589844 21.359375 " fill-opacity="1" fill-rule="nonzero"/><g clip-path="url(#15f5b21a2e)"><path fill="#ffffff" d="M 11.617188 16.75 C 11.433594 16.75 11.285156 16.601562 11.285156 16.417969 L 11.285156 8.132812 C 11.285156 8.085938 11.296875 8.039062 11.3125 7.996094 L 11.703125 7.128906 L 11.351562 5.886719 L 10.515625 5.886719 L 10.164062 7.128906 L 10.550781 7.996094 C 10.570312 8.039062 10.582031 8.085938 10.582031 8.132812 L 10.582031 16.417969 C 10.582031 16.601562 10.433594 16.75 10.25 16.75 C 10.066406 16.75 9.917969 16.601562 9.917969 16.417969 L 9.917969 8.203125 L 9.507812 7.292969 C 9.476562 7.222656 9.472656 7.140625 9.492188 7.066406 L 9.945312 5.464844 C 9.984375 5.320312 10.117188 5.222656 10.265625 5.222656 L 11.601562 5.222656 C 11.75 5.222656 11.882812 5.320312 11.921875 5.464844 L 12.375 7.066406 C 12.394531 7.140625 12.390625 7.222656 12.359375 7.292969 L 11.949219 8.203125 L 11.949219 16.417969 C 11.949219 16.601562 11.800781 16.75 11.617188 16.75 Z M 11.617188 16.75 " fill-opacity="1" fill-rule="nonzero"/></g><path fill="#ffffff" d="M 25.308594 21.359375 C 25.285156 21.359375 25.265625 21.355469 25.242188 21.351562 C 25.0625 21.316406 24.945312 21.140625 24.984375 20.960938 L 27.183594 10.253906 L 26.515625 10.121094 L 24.261719 21.09375 C 24.226562 21.273438 24.050781 21.390625 23.871094 21.351562 C 23.691406 21.316406 23.574219 21.140625 23.613281 20.960938 L 25.933594 9.660156 C 25.96875 9.480469 26.144531 9.367188 26.324219 9.402344 L 27.640625 9.671875 C 27.726562 9.691406 27.800781 9.742188 27.851562 9.816406 C 27.898438 9.886719 27.914062 9.976562 27.898438 10.0625 L 25.632812 21.09375 C 25.601562 21.25 25.460938 21.359375 25.308594 21.359375 Z M 25.308594 21.359375 " fill-opacity="1" fill-rule="nonzero"/><g clip-path="url(#10b4fc7c32)"><path fill="#ffffff" d="M 28.25 10.46875 C 28.230469 10.46875 28.207031 10.464844 28.183594 10.460938 L 25.515625 9.914062 C 25.359375 9.882812 25.246094 9.742188 25.25 9.582031 L 25.277344 8.046875 C 24.796875 7.851562 23.304688 7.414062 21 8.171875 C 20.828125 8.230469 20.640625 8.132812 20.582031 7.960938 C 20.558594 7.894531 20.558594 7.828125 20.578125 7.765625 C 20.585938 7.707031 20.605469 7.652344 20.644531 7.605469 C 21.304688 6.722656 22.199219 6.0625 23.300781 5.648438 C 24.496094 5.203125 25.796875 5.101562 27.070312 5.363281 L 30.519531 6.074219 C 30.648438 5.808594 30.941406 5.652344 31.238281 5.714844 L 32.539062 5.984375 C 32.894531 6.054688 33.121094 6.398438 33.046875 6.753906 L 32.5 9.425781 C 32.464844 9.597656 32.363281 9.742188 32.21875 9.839844 C 32.074219 9.933594 31.898438 9.96875 31.730469 9.933594 L 30.429688 9.667969 C 30.257812 9.632812 30.109375 9.53125 30.015625 9.386719 C 29.949219 9.285156 29.914062 9.171875 29.90625 9.054688 L 28.855469 8.839844 L 28.578125 10.203125 C 28.558594 10.289062 28.507812 10.367188 28.433594 10.414062 C 28.378906 10.449219 28.316406 10.46875 28.25 10.46875 Z M 25.917969 9.320312 L 27.992188 9.746094 L 28.273438 8.378906 C 28.292969 8.292969 28.34375 8.21875 28.417969 8.171875 C 28.488281 8.121094 28.578125 8.105469 28.664062 8.121094 L 30.347656 8.46875 C 30.527344 8.503906 30.644531 8.679688 30.605469 8.859375 L 30.574219 9.019531 L 31.851562 9.28125 L 32.394531 6.628906 L 31.117188 6.367188 L 31.085938 6.527344 C 31.066406 6.613281 31.015625 6.6875 30.941406 6.738281 C 30.871094 6.785156 30.78125 6.804688 30.695312 6.785156 L 26.9375 6.015625 C 25.789062 5.777344 24.609375 5.867188 23.535156 6.269531 C 22.898438 6.507812 22.34375 6.839844 21.867188 7.253906 C 24.332031 6.738281 25.714844 7.507812 25.78125 7.546875 C 25.882812 7.605469 25.949219 7.71875 25.945312 7.839844 Z M 25.917969 9.320312 " fill-opacity="1" fill-rule="nonzero"/></g><path fill="#ffffff" d="M 19.933594 11.960938 L 19.921875 11.960938 C 19.738281 11.960938 19.589844 11.8125 19.589844 11.628906 C 19.589844 11.449219 19.738281 11.300781 19.921875 11.300781 L 19.933594 11.300781 C 20.117188 11.300781 20.265625 11.449219 20.265625 11.628906 C 20.265625 11.8125 20.117188 11.960938 19.933594 11.960938 Z M 19.933594 11.960938 " fill-opacity="1" fill-rule="nonzero"/></svg>