<svg xmlns="http://www.w3.org/2000/svg" xmlns:xlink="http://www.w3.org/1999/xlink" width="50" zoomAndPan="magnify" viewBox="0 0 37.5 37.499999" height="50" preserveAspectRatio="xMidYMid meet" version="1.0"><defs><clipPath id="37c3c42ecb"><path d="M 3.429688 14 L 12 14 L 12 23 L 3.429688 23 Z M 3.429688 14 " clip-rule="nonzero"/></clipPath><clipPath id="8bad6d673b"><path d="M 28 20 L 33.777344 20 L 33.777344 26 L 28 26 Z M 28 20 " clip-rule="nonzero"/></clipPath><clipPath id="c7cbb308fb"><path d="M 7 8.460938 L 19 8.460938 L 19 14 L 7 14 Z M 7 8.460938 " clip-rule="nonzero"/></clipPath><clipPath id="57be0884db"><path d="M 16 23 L 28 23 L 28 28.445312 L 16 28.445312 Z M 16 23 " clip-rule="nonzero"/></clipPath></defs><g clip-path="url(#37c3c42ecb)"><path fill="#000000" d="M 7.566406 22.640625 C 5.285156 22.640625 3.429688 20.804688 3.429688 18.554688 C 3.429688 16.300781 5.285156 14.46875 7.566406 14.46875 C 9.84375 14.46875 11.699219 16.300781 11.699219 18.554688 C 11.699219 20.804688 9.84375 22.640625 7.566406 22.640625 Z M 7.566406 15.464844 C 5.839844 15.464844 4.441406 16.847656 4.441406 18.554688 C 4.441406 20.257812 5.839844 21.644531 7.566406 21.644531 C 9.289062 21.644531 10.691406 20.257812 10.691406 18.554688 C 10.691406 16.847656 9.289062 15.464844 7.566406 15.464844 Z M 7.566406 15.464844 " fill-opacity="1" fill-rule="nonzero"/></g><path fill="#000000" d="M 17.644531 22.640625 C 15.367188 22.640625 13.511719 20.804688 13.511719 18.554688 C 13.511719 16.300781 15.367188 14.46875 17.644531 14.46875 C 19.925781 14.46875 21.78125 16.300781 21.78125 18.554688 C 21.78125 20.804688 19.925781 22.640625 17.644531 22.640625 Z M 17.644531 15.464844 C 15.921875 15.464844 14.519531 16.847656 14.519531 18.554688 C 14.519531 20.257812 15.921875 21.644531 17.644531 21.644531 C 19.371094 21.644531 20.773438 20.257812 20.773438 18.554688 C 20.773438 16.847656 19.371094 15.464844 17.644531 15.464844 Z M 17.644531 15.464844 " fill-opacity="1" fill-rule="nonzero"/><path fill="#000000" d="M 27.726562 22.640625 C 25.449219 22.640625 23.59375 20.804688 23.59375 18.554688 C 23.59375 16.300781 25.449219 14.46875 27.726562 14.46875 C 30.007812 14.46875 31.863281 16.300781 31.863281 18.554688 C 31.863281 20.804688 30.007812 22.640625 27.726562 22.640625 Z M 27.726562 15.464844 C 26.003906 15.464844 24.601562 16.847656 24.601562 18.554688 C 24.601562 20.257812 26.003906 21.644531 27.726562 21.644531 C 29.453125 21.644531 30.851562 20.257812 30.851562 18.554688 C 30.851562 16.847656 29.453125 15.464844 27.726562 15.464844 Z M 27.726562 15.464844 " fill-opacity="1" fill-rule="nonzero"/><g clip-path="url(#8bad6d673b)"><path fill="#000000" d="M 31.992188 25.40625 C 31.921875 25.40625 31.855469 25.402344 31.785156 25.390625 C 31.300781 25.332031 30.875 25.0625 30.617188 24.652344 L 28.976562 22.074219 C 28.832031 21.839844 28.902344 21.53125 29.136719 21.386719 C 29.371094 21.238281 29.683594 21.308594 29.832031 21.542969 L 31.46875 24.125 C 31.570312 24.277344 31.730469 24.378906 31.914062 24.402344 C 32.09375 24.425781 32.277344 24.367188 32.410156 24.242188 C 32.648438 24.019531 32.667969 23.65625 32.457031 23.410156 L 30.386719 20.996094 C 30.207031 20.785156 30.230469 20.472656 30.445312 20.292969 C 30.65625 20.117188 30.976562 20.144531 31.152344 20.351562 L 33.226562 22.765625 C 33.78125 23.414062 33.730469 24.382812 33.101562 24.964844 C 32.800781 25.25 32.402344 25.40625 31.992188 25.40625 Z M 31.992188 25.40625 " fill-opacity="1" fill-rule="nonzero"/></g><g clip-path="url(#c7cbb308fb)"><path fill="#000000" d="M 7.566406 13.605469 C 7.285156 13.605469 7.0625 13.382812 7.0625 13.105469 L 7.0625 12.574219 C 7.0625 10.375 8.871094 8.585938 11.09375 8.585938 L 14.117188 8.585938 C 16.339844 8.585938 18.152344 10.375 18.152344 12.574219 C 18.152344 12.847656 17.925781 13.070312 17.644531 13.070312 C 17.367188 13.070312 17.140625 12.847656 17.140625 12.574219 C 17.140625 10.925781 15.785156 9.582031 14.117188 9.582031 L 11.09375 9.582031 C 9.425781 9.582031 8.070312 10.925781 8.070312 12.574219 L 8.070312 13.105469 C 8.070312 13.382812 7.84375 13.605469 7.566406 13.605469 Z M 7.566406 13.605469 " fill-opacity="1" fill-rule="nonzero"/></g><path fill="#000000" d="M 17.644531 13.859375 C 17.523438 13.859375 17.398438 13.8125 17.300781 13.722656 L 15.417969 11.957031 C 15.214844 11.765625 15.207031 11.449219 15.398438 11.25 C 15.59375 11.050781 15.910156 11.042969 16.113281 11.234375 L 17.636719 12.664062 L 19.066406 11.242188 C 19.261719 11.046875 19.582031 11.046875 19.777344 11.242188 C 19.976562 11.433594 19.976562 11.75 19.78125 11.945312 L 18.003906 13.710938 C 17.90625 13.808594 17.777344 13.859375 17.644531 13.859375 Z M 17.644531 13.859375 " fill-opacity="1" fill-rule="nonzero"/><g clip-path="url(#57be0884db)"><path fill="#000000" d="M 23.933594 28.308594 L 20.910156 28.308594 C 18.6875 28.308594 16.878906 26.523438 16.878906 24.324219 L 16.878906 23.789062 C 16.878906 23.515625 17.105469 23.292969 17.382812 23.292969 C 17.660156 23.292969 17.886719 23.515625 17.886719 23.789062 L 17.886719 24.324219 C 17.886719 25.972656 19.242188 27.3125 20.910156 27.3125 L 23.933594 27.3125 C 25.601562 27.3125 26.960938 25.972656 26.960938 24.324219 C 26.960938 24.046875 27.183594 23.824219 27.464844 23.824219 C 27.742188 23.824219 27.96875 24.046875 27.96875 24.324219 C 27.96875 26.523438 26.160156 28.308594 23.933594 28.308594 Z M 23.933594 28.308594 " fill-opacity="1" fill-rule="nonzero"/></g><path fill="#000000" d="M 25.582031 25.800781 C 25.449219 25.800781 25.316406 25.75 25.21875 25.644531 C 25.027344 25.445312 25.035156 25.132812 25.234375 24.941406 L 27.117188 23.175781 C 27.316406 22.988281 27.628906 22.992188 27.820312 23.183594 L 29.597656 24.953125 C 29.792969 25.148438 29.792969 25.460938 29.59375 25.65625 C 29.398438 25.851562 29.078125 25.847656 28.882812 25.652344 L 27.453125 24.234375 L 25.929688 25.664062 C 25.832031 25.753906 25.707031 25.800781 25.582031 25.800781 Z M 25.582031 25.800781 " fill-opacity="1" fill-rule="nonzero"/><path fill="#000000" d="M 7.0625 20.046875 C 6.933594 20.046875 6.804688 20 6.703125 19.902344 L 5.695312 18.90625 C 5.5 18.710938 5.5 18.394531 5.695312 18.199219 C 5.894531 18.007812 6.210938 18.007812 6.410156 18.199219 L 7.0625 18.84375 L 8.71875 17.203125 C 8.917969 17.007812 9.238281 17.007812 9.433594 17.203125 C 9.628906 17.398438 9.628906 17.714844 9.433594 17.910156 L 7.417969 19.902344 C 7.320312 20 7.191406 20.046875 7.0625 20.046875 Z M 7.0625 20.046875 " fill-opacity="1" fill-rule="nonzero"/><path fill="#000000" d="M 17.140625 20.046875 C 17.011719 20.046875 16.882812 20 16.785156 19.902344 L 15.777344 18.90625 C 15.582031 18.710938 15.582031 18.394531 15.777344 18.199219 C 15.976562 18.007812 16.292969 18.007812 16.492188 18.199219 L 17.140625 18.84375 L 18.800781 17.203125 C 19 17.007812 19.316406 17.007812 19.515625 17.203125 C 19.710938 17.398438 19.710938 17.714844 19.515625 17.910156 L 17.5 19.902344 C 17.398438 20 17.269531 20.046875 17.140625 20.046875 Z M 17.140625 20.046875 " fill-opacity="1" fill-rule="nonzero"/></svg>