<svg xmlns="http://www.w3.org/2000/svg" xmlns:xlink="http://www.w3.org/1999/xlink" width="50" zoomAndPan="magnify" viewBox="0 0 37.5 37.499999" height="50" preserveAspectRatio="xMidYMid meet" version="1.0"><defs><g/><clipPath id="44ed051d08"><path d="M 3.699219 8 L 12 8 L 12 17 L 3.699219 17 Z M 3.699219 8 " clip-rule="nonzero"/></clipPath><clipPath id="62fe5f8b03"><path d="M 7 2.394531 L 19 2.394531 L 19 8 L 7 8 Z M 7 2.394531 " clip-rule="nonzero"/></clipPath><clipPath id="408bdf65b5"><path d="M 17 17 L 29 17 L 29 22.375 L 17 22.375 Z M 17 17 " clip-rule="nonzero"/></clipPath></defs><g clip-path="url(#44ed051d08)"><path fill="#000000" d="M 7.835938 16.570312 C 5.554688 16.570312 3.699219 14.738281 3.699219 12.484375 C 3.699219 10.230469 5.554688 8.398438 7.835938 8.398438 C 10.113281 8.398438 11.96875 10.230469 11.96875 12.484375 C 11.96875 14.738281 10.113281 16.570312 7.835938 16.570312 Z M 7.835938 9.394531 C 6.109375 9.394531 4.707031 10.78125 4.707031 12.484375 C 4.707031 14.1875 6.109375 15.574219 7.835938 15.574219 C 9.558594 15.574219 10.960938 14.1875 10.960938 12.484375 C 10.960938 10.78125 9.558594 9.394531 7.835938 9.394531 Z M 7.835938 9.394531 " fill-opacity="1" fill-rule="nonzero"/></g><path fill="#000000" d="M 17.914062 16.570312 C 15.636719 16.570312 13.78125 14.738281 13.78125 12.484375 C 13.78125 10.230469 15.636719 8.398438 17.914062 8.398438 C 20.195312 8.398438 22.050781 10.230469 22.050781 12.484375 C 22.050781 14.738281 20.195312 16.570312 17.914062 16.570312 Z M 17.914062 9.394531 C 16.191406 9.394531 14.789062 10.78125 14.789062 12.484375 C 14.789062 14.1875 16.191406 15.574219 17.914062 15.574219 C 19.640625 15.574219 21.039062 14.1875 21.039062 12.484375 C 21.039062 10.78125 19.640625 9.394531 17.914062 9.394531 Z M 17.914062 9.394531 " fill-opacity="1" fill-rule="nonzero"/><path fill="#000000" d="M 27.996094 16.570312 C 25.71875 16.570312 23.863281 14.738281 23.863281 12.484375 C 23.863281 10.230469 25.71875 8.398438 27.996094 8.398438 C 30.277344 8.398438 32.128906 10.230469 32.128906 12.484375 C 32.128906 14.738281 30.277344 16.570312 27.996094 16.570312 Z M 27.996094 9.394531 C 26.273438 9.394531 24.871094 10.78125 24.871094 12.484375 C 24.871094 14.1875 26.273438 15.574219 27.996094 15.574219 C 29.71875 15.574219 31.121094 14.1875 31.121094 12.484375 C 31.121094 10.78125 29.71875 9.394531 27.996094 9.394531 Z M 27.996094 9.394531 " fill-opacity="1" fill-rule="nonzero"/><path fill="#000000" d="M 32.261719 19.335938 C 32.191406 19.335938 32.121094 19.332031 32.054688 19.324219 C 31.570312 19.261719 31.144531 18.992188 30.886719 18.585938 L 29.246094 16.003906 C 29.097656 15.769531 29.171875 15.460938 29.40625 15.316406 C 29.640625 15.171875 29.953125 15.242188 30.101562 15.472656 L 31.738281 18.054688 C 31.835938 18.210938 32 18.3125 32.179688 18.335938 C 32.363281 18.355469 32.546875 18.296875 32.679688 18.171875 C 32.917969 17.953125 32.9375 17.585938 32.726562 17.339844 L 30.65625 14.929688 C 30.476562 14.71875 30.5 14.402344 30.714844 14.226562 C 30.925781 14.046875 31.242188 14.074219 31.421875 14.28125 L 33.496094 16.695312 C 34.050781 17.347656 34 18.3125 33.371094 18.898438 C 33.070312 19.179688 32.671875 19.335938 32.261719 19.335938 Z M 32.261719 19.335938 " fill-opacity="1" fill-rule="nonzero"/><g clip-path="url(#62fe5f8b03)"><path fill="#000000" d="M 7.835938 7.535156 C 7.554688 7.535156 7.328125 7.3125 7.328125 7.039062 L 7.328125 6.503906 C 7.328125 4.304688 9.140625 2.519531 11.363281 2.519531 L 14.386719 2.519531 C 16.609375 2.519531 18.417969 4.304688 18.417969 6.503906 C 18.417969 6.78125 18.195312 7.003906 17.914062 7.003906 C 17.636719 7.003906 17.410156 6.78125 17.410156 6.503906 C 17.410156 4.855469 16.054688 3.515625 14.386719 3.515625 L 11.363281 3.515625 C 9.695312 3.515625 8.339844 4.855469 8.339844 6.503906 L 8.339844 7.039062 C 8.339844 7.3125 8.113281 7.535156 7.835938 7.535156 Z M 7.835938 7.535156 " fill-opacity="1" fill-rule="nonzero"/></g><path fill="#000000" d="M 17.914062 7.789062 C 17.789062 7.789062 17.664062 7.746094 17.566406 7.652344 L 15.6875 5.886719 C 15.484375 5.695312 15.476562 5.382812 15.667969 5.179688 C 15.863281 4.980469 16.179688 4.976562 16.382812 5.164062 L 17.90625 6.59375 L 19.335938 5.171875 C 19.53125 4.980469 19.851562 4.976562 20.046875 5.171875 C 20.246094 5.367188 20.246094 5.679688 20.050781 5.875 L 18.273438 7.644531 C 18.175781 7.742188 18.046875 7.789062 17.914062 7.789062 Z M 17.914062 7.789062 " fill-opacity="1" fill-rule="nonzero"/><g clip-path="url(#408bdf65b5)"><path fill="#000000" d="M 24.203125 22.242188 L 21.179688 22.242188 C 18.957031 22.242188 17.148438 20.453125 17.148438 18.253906 L 17.148438 17.722656 C 17.148438 17.445312 17.375 17.222656 17.652344 17.222656 C 17.929688 17.222656 18.15625 17.445312 18.15625 17.722656 L 18.15625 18.253906 C 18.15625 19.902344 19.511719 21.246094 21.179688 21.246094 L 24.203125 21.246094 C 25.871094 21.246094 27.230469 19.902344 27.230469 18.253906 C 27.230469 17.980469 27.453125 17.757812 27.734375 17.757812 C 28.011719 17.757812 28.238281 17.980469 28.238281 18.253906 C 28.238281 20.453125 26.429688 22.242188 24.203125 22.242188 Z M 24.203125 22.242188 " fill-opacity="1" fill-rule="nonzero"/></g><path fill="#000000" d="M 25.851562 19.730469 C 25.71875 19.730469 25.585938 19.679688 25.488281 19.578125 C 25.292969 19.378906 25.304688 19.0625 25.503906 18.871094 L 27.386719 17.105469 C 27.585938 16.917969 27.898438 16.925781 28.089844 17.117188 L 29.867188 18.882812 C 30.0625 19.078125 30.0625 19.394531 29.863281 19.585938 C 29.667969 19.78125 29.347656 19.78125 29.152344 19.585938 L 27.722656 18.164062 L 26.199219 19.59375 C 26.101562 19.6875 25.976562 19.730469 25.851562 19.730469 Z M 25.851562 19.730469 " fill-opacity="1" fill-rule="nonzero"/><path fill="#000000" d="M 7.328125 13.980469 C 7.199219 13.980469 7.070312 13.929688 6.972656 13.832031 L 5.964844 12.835938 C 5.769531 12.640625 5.769531 12.328125 5.964844 12.132812 C 6.164062 11.9375 6.480469 11.9375 6.679688 12.132812 L 7.328125 12.777344 L 8.988281 11.136719 C 9.1875 10.941406 9.503906 10.941406 9.703125 11.136719 C 9.898438 11.328125 9.898438 11.644531 9.703125 11.839844 L 7.6875 13.832031 C 7.589844 13.929688 7.457031 13.980469 7.328125 13.980469 Z M 7.328125 13.980469 " fill-opacity="1" fill-rule="nonzero"/><path fill="#000000" d="M 17.410156 13.980469 C 17.28125 13.980469 17.152344 13.929688 17.054688 13.832031 L 16.046875 12.835938 C 15.851562 12.640625 15.851562 12.328125 16.046875 12.132812 C 16.242188 11.9375 16.5625 11.9375 16.761719 12.132812 L 17.410156 12.777344 L 19.070312 11.136719 C 19.269531 10.941406 19.585938 10.941406 19.785156 11.136719 C 19.980469 11.328125 19.980469 11.644531 19.785156 11.839844 L 17.769531 13.832031 C 17.667969 13.929688 17.539062 13.980469 17.410156 13.980469 Z M 17.410156 13.980469 " fill-opacity="1" fill-rule="nonzero"/><g fill="#000000" fill-opacity="1"><g transform="translate(3.659704, 32.113857)"><g><path d="M 2.859375 -4.671875 L 2.859375 0 L 1.921875 0 L 1.921875 -4.671875 L 0.25 -4.671875 L 0.25 -5.53125 L 4.53125 -5.53125 L 4.53125 -4.671875 Z M 2.859375 -4.671875 "/></g></g></g><g fill="#000000" fill-opacity="1"><g transform="translate(8.433267, 32.113857)"><g><path d="M 2.84375 -3.375 C 2.40625 -3.375 2.078125 -3.226562 1.859375 -2.9375 C 1.640625 -2.65625 1.53125 -2.273438 1.53125 -1.796875 L 1.53125 0 L 0.640625 0 L 0.640625 -4.203125 L 1.53125 -4.203125 L 1.53125 -3.359375 C 1.664062 -3.617188 1.851562 -3.832031 2.09375 -4 C 2.34375 -4.175781 2.609375 -4.265625 2.890625 -4.265625 L 2.890625 -3.375 C 2.878906 -3.375 2.863281 -3.375 2.84375 -3.375 Z M 2.84375 -3.375 "/></g></g></g><g fill="#000000" fill-opacity="1"><g transform="translate(11.531347, 32.113857)"><g><path d="M 4.046875 0 L 3.234375 0 L 3.234375 -0.5625 C 2.890625 -0.144531 2.425781 0.0625 1.84375 0.0625 C 1.40625 0.0625 1.039062 -0.0625 0.75 -0.3125 C 0.46875 -0.5625 0.328125 -0.890625 0.328125 -1.296875 C 0.328125 -1.710938 0.476562 -2.019531 0.78125 -2.21875 C 1.082031 -2.425781 1.5 -2.53125 2.03125 -2.53125 L 3.171875 -2.53125 L 3.171875 -2.703125 C 3.171875 -3.253906 2.859375 -3.53125 2.234375 -3.53125 C 1.847656 -3.53125 1.441406 -3.390625 1.015625 -3.109375 L 0.625 -3.65625 C 1.132812 -4.0625 1.710938 -4.265625 2.359375 -4.265625 C 2.859375 -4.265625 3.265625 -4.140625 3.578125 -3.890625 C 3.890625 -3.640625 4.046875 -3.25 4.046875 -2.71875 Z M 3.15625 -1.5625 L 3.15625 -1.921875 L 2.171875 -1.921875 C 1.523438 -1.921875 1.203125 -1.722656 1.203125 -1.328125 C 1.203125 -1.117188 1.28125 -0.957031 1.4375 -0.84375 C 1.601562 -0.738281 1.828125 -0.6875 2.109375 -0.6875 C 2.390625 -0.6875 2.632812 -0.765625 2.84375 -0.921875 C 3.050781 -1.078125 3.15625 -1.289062 3.15625 -1.5625 Z M 3.15625 -1.5625 "/></g></g></g><g fill="#000000" fill-opacity="1"><g transform="translate(16.170559, 32.113857)"><g><path d="M 2.5 0.0625 C 1.914062 0.0625 1.410156 -0.132812 0.984375 -0.53125 C 0.566406 -0.925781 0.359375 -1.445312 0.359375 -2.09375 C 0.359375 -2.738281 0.578125 -3.257812 1.015625 -3.65625 C 1.460938 -4.0625 2 -4.265625 2.625 -4.265625 C 3.257812 -4.265625 3.796875 -4.046875 4.234375 -3.609375 L 3.71875 -2.96875 C 3.351562 -3.289062 2.984375 -3.453125 2.609375 -3.453125 C 2.242188 -3.453125 1.925781 -3.328125 1.65625 -3.078125 C 1.382812 -2.835938 1.25 -2.519531 1.25 -2.125 C 1.25 -1.738281 1.382812 -1.410156 1.65625 -1.140625 C 1.925781 -0.878906 2.253906 -0.75 2.640625 -0.75 C 3.035156 -0.75 3.40625 -0.925781 3.75 -1.28125 L 4.28125 -0.71875 C 3.769531 -0.195312 3.175781 0.0625 2.5 0.0625 Z M 2.5 0.0625 "/></g></g></g><g fill="#000000" fill-opacity="1"><g transform="translate(20.722834, 32.113857)"><g><path d="M 1.53125 0 L 0.640625 0 L 0.640625 -5.859375 L 1.53125 -5.859375 L 1.53125 -2.421875 L 3.234375 -4.203125 L 4.375 -4.203125 L 2.78125 -2.53125 L 4.484375 0 L 3.421875 0 L 2.171875 -1.84375 L 1.53125 -1.1875 Z M 1.53125 0 "/></g></g></g><g fill="#000000" fill-opacity="1"><g transform="translate(25.314622, 32.113857)"><g><path d="M 4.546875 -1.71875 L 1.25 -1.71875 C 1.269531 -1.40625 1.410156 -1.15625 1.671875 -0.96875 C 1.929688 -0.789062 2.226562 -0.703125 2.5625 -0.703125 C 3.09375 -0.703125 3.492188 -0.863281 3.765625 -1.1875 L 4.265625 -0.640625 C 3.816406 -0.171875 3.226562 0.0625 2.5 0.0625 C 1.90625 0.0625 1.398438 -0.128906 0.984375 -0.515625 C 0.578125 -0.910156 0.375 -1.4375 0.375 -2.09375 C 0.375 -2.757812 0.582031 -3.285156 1 -3.671875 C 1.425781 -4.066406 1.925781 -4.265625 2.5 -4.265625 C 3.070312 -4.265625 3.554688 -4.09375 3.953125 -3.75 C 4.347656 -3.40625 4.546875 -2.929688 4.546875 -2.328125 Z M 1.25 -2.40625 L 3.671875 -2.40625 C 3.671875 -2.757812 3.554688 -3.03125 3.328125 -3.21875 C 3.109375 -3.414062 2.835938 -3.515625 2.515625 -3.515625 C 2.191406 -3.515625 1.898438 -3.414062 1.640625 -3.21875 C 1.378906 -3.019531 1.25 -2.75 1.25 -2.40625 Z M 1.25 -2.40625 "/></g></g></g><g fill="#000000" fill-opacity="1"><g transform="translate(30.198829, 32.113857)"><g><path d="M 2.84375 -3.375 C 2.40625 -3.375 2.078125 -3.226562 1.859375 -2.9375 C 1.640625 -2.65625 1.53125 -2.273438 1.53125 -1.796875 L 1.53125 0 L 0.640625 0 L 0.640625 -4.203125 L 1.53125 -4.203125 L 1.53125 -3.359375 C 1.664062 -3.617188 1.851562 -3.832031 2.09375 -4 C 2.34375 -4.175781 2.609375 -4.265625 2.890625 -4.265625 L 2.890625 -3.375 C 2.878906 -3.375 2.863281 -3.375 2.84375 -3.375 Z M 2.84375 -3.375 "/></g></g></g></svg>