<svg xmlns="http://www.w3.org/2000/svg" xmlns:xlink="http://www.w3.org/1999/xlink" width="50" zoomAndPan="magnify" viewBox="0 0 37.5 37.499999" height="50" preserveAspectRatio="xMidYMid meet" version="1.0"><defs><clipPath id="9db4693480"><path d="M 11.722656 3.699219 L 25.042969 3.699219 L 25.042969 18.503906 L 11.722656 18.503906 Z M 11.722656 3.699219 " clip-rule="nonzero"/></clipPath><clipPath id="78a9cf53fd"><path d="M 11.722656 5 L 19 5 L 19 16 L 11.722656 16 Z M 11.722656 5 " clip-rule="nonzero"/></clipPath><clipPath id="b017b05ceb"><path d="M 13 6 L 25.042969 6 L 25.042969 18.503906 L 13 18.503906 Z M 13 6 " clip-rule="nonzero"/></clipPath><clipPath id="37eb76f8c3"><path d="M 13 7 L 25.042969 7 L 25.042969 18.503906 L 13 18.503906 Z M 13 7 " clip-rule="nonzero"/></clipPath><clipPath id="cee56d02a8"><path d="M 18 11 L 25.042969 11 L 25.042969 18.503906 L 18 18.503906 Z M 18 11 " clip-rule="nonzero"/></clipPath><clipPath id="5d8231bf7b"><path d="M 17 11 L 25.042969 11 L 25.042969 18.503906 L 17 18.503906 Z M 17 11 " clip-rule="nonzero"/></clipPath><clipPath id="bb3ce5ec6f"><path d="M 13 23 L 35 23 L 35 32.019531 L 13 32.019531 Z M 13 23 " clip-rule="nonzero"/></clipPath><clipPath id="a5e535fde4"><path d="M 1.851562 4.636719 L 35 4.636719 L 35 30 L 1.851562 30 Z M 1.851562 4.636719 " clip-rule="nonzero"/></clipPath></defs><g clip-path="url(#9db4693480)"><path stroke-linecap="butt" transform="matrix(0.131514, 0, 0, 0.133797, 10.446147, 3.034001)" fill="none" stroke-linejoin="miter" d="M 86.219038 93.98831 C 85.892315 96.645082 84.763632 98.83473 82.773587 100.615643 C 80.783542 102.367361 78.466773 103.24322 75.82328 103.272415 L 21.141593 103.272415 C 19.745591 103.272415 18.408994 102.980462 17.131801 102.454947 C 15.824905 101.929431 14.696223 101.170354 13.716052 100.177713 C 12.73588 99.214268 11.993326 98.075652 11.458687 96.791058 C 10.924048 95.506465 10.656728 94.163481 10.656728 92.791302 L 10.656728 17.087887 C 10.656728 15.628122 10.95375 14.197552 11.518091 12.854568 C 12.082432 11.482389 12.884391 10.285382 13.923967 9.234351 C 14.963542 8.212516 16.151629 7.395047 17.517929 6.840336 C 18.884228 6.285626 20.309932 5.993673 21.765338 5.993673 L 75.169833 5.993673 C 76.654941 5.993673 78.050943 6.285626 79.417242 6.840336 C 80.783542 7.395047 81.971629 8.212516 83.011204 9.263546 C 84.05078 10.285382 84.852739 11.482389 85.41708 12.854568 C 85.981421 14.197552 86.278443 15.628122 86.278443 17.087887 L 86.278443 60.99762 " stroke="#000000" stroke-width="2" stroke-opacity="1" stroke-miterlimit="10"/></g><path fill="#000000" d="M 13.253906 7.292969 L 13.480469 7.015625 C 13.554688 7.144531 13.664062 7.207031 13.804688 7.214844 C 13.972656 7.214844 14.054688 7.113281 14.054688 6.917969 L 14.054688 6.066406 L 13.4375 6.066406 L 13.4375 5.730469 L 14.460938 5.730469 L 14.460938 6.894531 C 14.460938 7.335938 14.242188 7.554688 13.828125 7.554688 C 13.59375 7.5625 13.402344 7.476562 13.253906 7.292969 Z M 13.253906 7.292969 " fill-opacity="1" fill-rule="nonzero"/><path fill="#000000" d="M 14.804688 6.628906 C 14.804688 6.09375 15.210938 5.699219 15.765625 5.699219 C 16.320312 5.699219 16.730469 6.09375 16.730469 6.628906 C 16.730469 7.164062 16.320312 7.554688 15.765625 7.554688 C 15.210938 7.554688 14.804688 7.160156 14.804688 6.628906 Z M 16.316406 6.628906 C 16.316406 6.472656 16.261719 6.339844 16.15625 6.230469 C 16.046875 6.121094 15.917969 6.066406 15.765625 6.066406 C 15.613281 6.066406 15.484375 6.121094 15.375 6.230469 C 15.269531 6.339844 15.214844 6.472656 15.214844 6.628906 C 15.214844 6.78125 15.269531 6.914062 15.375 7.023438 C 15.484375 7.132812 15.613281 7.1875 15.765625 7.1875 C 15.917969 7.1875 16.046875 7.132812 16.15625 7.023438 C 16.261719 6.914062 16.316406 6.78125 16.316406 6.628906 Z M 16.316406 6.628906 " fill-opacity="1" fill-rule="nonzero"/><path fill="#000000" d="M 18.703125 7.035156 C 18.703125 7.34375 18.460938 7.523438 17.996094 7.523438 L 17.085938 7.523438 L 17.085938 5.730469 L 17.941406 5.730469 C 18.382812 5.730469 18.609375 5.917969 18.609375 6.199219 C 18.613281 6.378906 18.535156 6.511719 18.375 6.589844 C 18.601562 6.652344 18.710938 6.796875 18.703125 7.035156 Z M 17.492188 6.042969 L 17.492188 6.46875 L 17.898438 6.46875 C 18.097656 6.46875 18.203125 6.394531 18.203125 6.253906 C 18.203125 6.113281 18.097656 6.042969 17.898438 6.042969 Z M 18.292969 6.992188 C 18.292969 6.839844 18.179688 6.769531 17.96875 6.769531 L 17.492188 6.769531 L 17.492188 7.210938 L 17.96875 7.210938 C 18.179688 7.210938 18.292969 7.144531 18.292969 6.992188 Z M 18.292969 6.992188 " fill-opacity="1" fill-rule="nonzero"/><path fill="#000000" d="M 18.921875 7.347656 L 19.0625 7.035156 C 19.238281 7.15625 19.429688 7.21875 19.644531 7.222656 C 19.886719 7.222656 19.980469 7.140625 19.980469 7.027344 C 19.980469 6.695312 18.957031 6.925781 18.957031 6.261719 C 18.957031 5.953125 19.199219 5.699219 19.699219 5.699219 C 19.917969 5.695312 20.121094 5.75 20.308594 5.859375 L 20.179688 6.175781 C 20.027344 6.085938 19.863281 6.042969 19.691406 6.039062 C 19.449219 6.039062 19.355469 6.132812 19.355469 6.246094 C 19.355469 6.574219 20.378906 6.347656 20.378906 7.007812 C 20.378906 7.304688 20.136719 7.5625 19.632812 7.5625 C 19.375 7.566406 19.136719 7.492188 18.921875 7.347656 Z M 18.921875 7.347656 " fill-opacity="1" fill-rule="nonzero"/><g clip-path="url(#78a9cf53fd)"><path stroke-linecap="butt" transform="matrix(0.131514, 0, 0, 0.133797, 10.446147, 3.034001)" fill="none" stroke-linejoin="miter" d="M 21.468317 44.998595 L 33.408587 44.998595 C 34.596674 44.998595 35.161015 45.582501 35.161015 46.779508 L 35.161015 64.793009 C 35.161015 65.960821 34.596674 66.544727 33.408587 66.544727 L 21.468317 66.544727 C 20.309932 66.544727 19.715889 65.960821 19.715889 64.793009 L 19.715889 46.779508 C 19.715889 45.582501 20.309932 44.998595 21.468317 44.998595 Z M 21.468317 44.998595 " stroke="#000000" stroke-width="2" stroke-opacity="1" stroke-miterlimit="10"/></g><path stroke-linecap="butt" transform="matrix(0.131514, 0, 0, 0.133797, 10.446147, 3.034001)" fill="none" stroke-linejoin="miter" d="M 51.734824 45.115376 L 75.585663 45.115376 " stroke="#000000" stroke-width="2" stroke-opacity="1" stroke-miterlimit="10"/><path stroke-linecap="butt" transform="matrix(0.131514, 0, 0, 0.133797, 10.446147, 3.034001)" fill="none" stroke-linejoin="miter" d="M 63.556286 55.800856 L 44.636006 55.800856 " stroke="#000000" stroke-width="2" stroke-opacity="1" stroke-miterlimit="10"/><path stroke-linecap="butt" transform="matrix(0.131514, 0, 0, 0.133797, 10.446147, 3.034001)" fill="none" stroke-linejoin="miter" d="M 51.021972 66.457141 L 44.636006 66.457141 " stroke="#000000" stroke-width="2" stroke-opacity="1" stroke-miterlimit="10"/><path stroke-linecap="butt" transform="matrix(0.131514, 0, 0, 0.133797, 10.446147, 3.034001)" fill="none" stroke-linejoin="miter" d="M 19.715889 77.230207 L 43.566728 77.230207 " stroke="#000000" stroke-width="2" stroke-opacity="1" stroke-miterlimit="10"/><path stroke-linecap="butt" transform="matrix(0.131514, 0, 0, 0.133797, 10.446147, 3.034001)" fill="none" stroke-linejoin="miter" d="M 19.715889 88.003273 L 43.566728 88.003273 " stroke="#000000" stroke-width="2" stroke-opacity="1" stroke-miterlimit="10"/><g clip-path="url(#b017b05ceb)"><path stroke-linecap="butt" transform="matrix(0.131514, 0, 0, 0.133797, 10.446147, 3.034001)" fill="none" stroke-linejoin="miter" d="M 92.842621 76.821473 C 92.842621 79.770198 92.27828 82.602142 91.149598 85.317305 C 90.020916 88.032468 88.416999 90.426483 86.337847 92.499349 C 84.258695 94.601411 81.882522 96.207152 79.149923 97.316574 C 76.447026 98.455191 73.595618 99.009901 70.655103 99.009901 C 67.714589 99.009901 64.892883 98.455191 62.160284 97.316574 C 59.457387 96.207152 57.051512 94.601411 54.97236 92.499349 C 52.893208 90.426483 51.289291 88.032468 50.160609 85.317305 C 49.031927 82.602142 48.467586 79.770198 48.467586 76.821473 C 48.467586 73.872747 49.031927 71.040803 50.160609 68.32564 C 51.289291 65.610477 52.893208 63.216462 54.97236 61.143596 C 57.051512 59.041534 59.457387 57.435793 62.160284 56.326371 C 64.892883 55.187755 67.714589 54.633044 70.655103 54.633044 C 73.595618 54.633044 76.447026 55.187755 79.149923 56.326371 C 81.882522 57.435793 84.258695 59.041534 86.337847 61.143596 C 88.416999 63.216462 90.020916 65.610477 91.149598 68.32564 C 92.27828 71.040803 92.842621 73.872747 92.842621 76.821473 Z M 92.842621 76.821473 " stroke="#000000" stroke-width="2" stroke-opacity="1" stroke-miterlimit="10"/></g><g clip-path="url(#37eb76f8c3)"><path stroke-linecap="butt" transform="matrix(0.131514, 0, 0, 0.133797, 10.446147, 3.034001)" fill="none" stroke-linejoin="miter" d="M 87.228912 76.821473 C 87.228912 79.01112 86.813082 81.142377 85.951719 83.156853 C 85.120058 85.200524 83.931972 86.981437 82.357757 88.528788 C 80.813244 90.076139 79.031114 91.273147 77.011367 92.11981 C 74.961918 92.966474 72.853064 93.375208 70.655103 93.375208 C 68.457143 93.375208 66.348289 92.966474 64.328542 92.11981 C 62.279093 91.273147 60.496963 90.076139 58.95245 88.528788 C 57.407938 86.981437 56.190149 85.200524 55.358488 83.156853 C 54.526827 81.142377 54.110997 79.01112 54.110997 76.821473 C 54.110997 74.631825 54.526827 72.500568 55.358488 70.486092 C 56.190149 68.442421 57.407938 66.661508 58.95245 65.114157 C 60.496963 63.566806 62.279093 62.369799 64.328542 61.523135 C 66.348289 60.676471 68.457143 60.267737 70.655103 60.267737 C 72.853064 60.267737 74.961918 60.676471 77.011367 61.523135 C 79.031114 62.369799 80.813244 63.566806 82.357757 65.114157 C 83.931972 66.661508 85.120058 68.442421 85.951719 70.486092 C 86.813082 72.500568 87.228912 74.631825 87.228912 76.821473 Z M 87.228912 76.821473 " stroke="#000000" stroke-width="2" stroke-opacity="1" stroke-miterlimit="10"/></g><g clip-path="url(#cee56d02a8)"><path stroke-linecap="butt" transform="matrix(0.131514, 0, 0, 0.133797, 10.446147, 3.034001)" fill="none" stroke-linejoin="miter" d="M 107.871917 105.462063 L 95.01088 92.586935 C 94.387134 91.973834 93.733686 91.973834 93.109941 92.586935 L 87.941764 97.783699 C 87.318019 98.3968 87.318019 99.039097 87.941764 99.681393 L 100.802802 112.527326 C 101.782973 113.519966 102.941358 114.016286 104.33736 114.016286 C 105.703659 114.016286 106.891746 113.519966 107.871917 112.527326 C 108.852089 111.563881 109.327323 110.396069 109.327323 108.994694 C 109.327323 107.622515 108.852089 106.454703 107.871917 105.462063 Z M 107.871917 105.462063 " stroke="#000000" stroke-width="2" stroke-opacity="1" stroke-miterlimit="10"/></g><g clip-path="url(#5d8231bf7b)"><path stroke-linecap="butt" transform="matrix(0.131514, 0, 0, 0.133797, 10.446147, 3.034001)" fill="none" stroke-linejoin="miter" d="M 88.476403 90.046944 L 92.070365 93.637966 L 88.951638 96.732668 L 85.506186 93.287622 " stroke="#000000" stroke-width="2" stroke-opacity="1" stroke-miterlimit="10"/></g><g clip-path="url(#bb3ce5ec6f)"><path fill="#ffffff" d="M 32.945312 28.003906 C 33.289062 27.589844 33.496094 27.035156 33.496094 26.414062 C 33.496094 25.03125 32.390625 23.925781 31.011719 23.925781 C 29.628906 23.925781 28.523438 25.03125 28.523438 26.414062 C 28.523438 27.035156 28.730469 27.519531 29.074219 28.003906 C 28.453125 28.347656 27.96875 28.761719 27.554688 29.316406 C 27.210938 28.761719 26.65625 28.28125 26.035156 28.003906 C 26.378906 27.589844 26.589844 27.035156 26.589844 26.414062 C 26.589844 25.03125 25.480469 23.925781 24.101562 23.925781 C 22.71875 23.925781 21.613281 25.03125 21.613281 26.414062 C 21.613281 27.035156 21.820312 27.519531 22.164062 28.003906 C 21.542969 28.347656 21.058594 28.761719 20.644531 29.316406 C 20.300781 28.761719 19.746094 28.28125 19.125 28.003906 C 19.46875 27.589844 19.679688 27.035156 19.679688 26.414062 C 19.679688 25.03125 18.574219 23.925781 17.191406 23.925781 C 15.808594 23.925781 14.703125 25.03125 14.703125 26.414062 C 14.703125 27.035156 14.910156 27.519531 15.253906 28.003906 C 13.941406 28.695312 13.042969 30.074219 13.042969 31.597656 C 13.042969 32.011719 13.320312 32.289062 13.734375 32.289062 L 34.050781 32.289062 C 34.464844 32.289062 34.742188 32.011719 34.742188 31.597656 C 35.15625 30.074219 34.257812 28.695312 32.945312 28.003906 Z M 17.535156 25.378906 C 18.15625 25.378906 18.640625 25.859375 18.640625 26.484375 C 18.640625 27.105469 18.15625 27.589844 17.535156 27.589844 C 16.914062 27.589844 16.429688 27.105469 16.429688 26.484375 C 16.429688 25.859375 16.914062 25.378906 17.535156 25.378906 Z M 14.910156 30.90625 C 15.1875 29.730469 16.292969 28.902344 17.535156 28.902344 C 18.78125 28.902344 19.816406 29.730469 20.160156 30.90625 Z M 24.308594 25.378906 C 24.929688 25.378906 25.414062 25.859375 25.414062 26.484375 C 25.414062 27.105469 24.929688 27.589844 24.308594 27.589844 C 23.6875 27.589844 23.203125 27.105469 23.203125 26.484375 C 23.203125 25.859375 23.6875 25.378906 24.308594 25.378906 Z M 21.683594 30.90625 C 21.957031 29.730469 23.0625 28.902344 24.308594 28.902344 C 25.550781 28.902344 26.589844 29.730469 26.933594 30.90625 Z M 31.078125 25.378906 C 31.703125 25.378906 32.183594 25.859375 32.183594 26.484375 C 32.183594 27.105469 31.703125 27.589844 31.078125 27.589844 C 30.457031 27.589844 29.972656 27.105469 29.972656 26.484375 C 29.972656 25.859375 30.457031 25.378906 31.078125 25.378906 Z M 28.453125 30.90625 C 28.730469 29.730469 29.835938 28.902344 31.078125 28.902344 C 32.324219 28.902344 33.359375 29.730469 33.707031 30.90625 Z M 28.453125 30.90625 " fill-opacity="1" fill-rule="nonzero"/></g><g clip-path="url(#a5e535fde4)"><path fill="#ffffff" d="M 13.804688 27.3125 C 13.804688 27.242188 13.804688 27.242188 13.804688 27.171875 L 13.804688 19.574219 L 34.257812 19.574219 C 34.671875 19.574219 34.949219 19.296875 34.949219 18.882812 L 34.949219 6.304688 C 34.949219 5.890625 34.671875 5.613281 34.257812 5.613281 L 13.527344 5.613281 C 13.113281 5.613281 12.835938 5.890625 12.835938 6.304688 L 12.835938 12.523438 C 12.421875 11.972656 11.871094 11.488281 11.246094 11.144531 C 12.078125 10.453125 12.5625 9.484375 12.5625 8.378906 C 12.5625 6.375 10.902344 4.714844 8.898438 4.714844 C 6.894531 4.714844 5.234375 6.375 5.234375 8.378906 C 5.234375 9.554688 5.789062 10.519531 6.617188 11.210938 C 5.582031 11.765625 4.753906 12.730469 4.339844 13.90625 C 3.714844 14.390625 1.851562 16.046875 1.851562 18.328125 L 1.851562 22.058594 C 1.851562 22.128906 1.851562 22.199219 1.917969 22.269531 C 1.988281 22.40625 2.335938 23.375 3.230469 23.648438 C 3.371094 23.71875 3.648438 23.789062 3.855469 23.789062 C 3.921875 23.789062 3.992188 23.789062 4.0625 23.789062 L 4.0625 27.171875 C 4.0625 27.242188 4.0625 27.242188 4.0625 27.3125 C 4.0625 27.382812 4.0625 27.382812 4.0625 27.449219 C 4.0625 28.625 5.027344 29.59375 6.203125 29.59375 C 7.378906 29.59375 8.277344 28.695312 8.34375 27.589844 L 8.898438 24.6875 L 9.519531 27.519531 C 9.589844 28.625 10.488281 29.523438 11.664062 29.523438 C 12.835938 29.523438 13.804688 28.554688 13.804688 27.382812 C 13.804688 27.382812 13.804688 27.3125 13.804688 27.3125 Z M 4.128906 22.335938 C 3.992188 22.40625 3.855469 22.40625 3.785156 22.335938 C 3.578125 22.269531 3.371094 21.992188 3.300781 21.851562 L 3.300781 18.261719 C 3.300781 17.429688 3.714844 16.671875 4.128906 16.117188 Z M 14.21875 6.996094 L 33.566406 6.996094 L 33.566406 18.121094 L 13.804688 18.121094 L 13.804688 17.707031 L 17.675781 13.421875 C 17.8125 13.285156 17.8125 13.148438 17.882812 13.007812 C 17.949219 12.042969 17.675781 11.351562 17.191406 10.867188 C 16.359375 10.175781 15.253906 10.382812 15.1875 10.382812 C 15.046875 10.382812 14.910156 10.519531 14.773438 10.589844 L 14.289062 11.210938 L 14.289062 6.996094 Z M 8.96875 6.167969 C 10.210938 6.167969 11.246094 7.203125 11.246094 8.449219 C 11.246094 9.691406 10.210938 10.726562 8.96875 10.726562 C 7.722656 10.726562 6.6875 9.691406 6.6875 8.449219 C 6.6875 7.203125 7.722656 6.167969 8.96875 6.167969 Z M 12.628906 17.015625 C 12.628906 17.015625 12.628906 17.085938 12.5625 17.085938 C 12.5625 17.15625 12.492188 17.15625 12.492188 17.222656 C 12.492188 17.292969 12.492188 17.292969 12.492188 17.363281 C 12.492188 17.363281 12.492188 17.429688 12.492188 17.429688 L 12.492188 27.105469 C 12.492188 27.171875 12.492188 27.171875 12.492188 27.242188 C 12.492188 27.3125 12.492188 27.3125 12.492188 27.382812 C 12.492188 27.796875 12.144531 28.140625 11.730469 28.140625 C 11.316406 28.140625 10.902344 27.863281 10.902344 27.382812 C 10.902344 27.382812 10.902344 27.3125 10.902344 27.3125 C 10.902344 27.3125 10.902344 27.242188 10.902344 27.242188 L 9.660156 20.816406 C 9.589844 20.472656 9.3125 20.265625 8.96875 20.265625 C 8.621094 20.265625 8.34375 20.472656 8.277344 20.816406 L 7.03125 27.242188 C 7.03125 27.242188 7.03125 27.3125 7.03125 27.3125 C 7.03125 27.3125 7.03125 27.382812 7.03125 27.382812 C 7.03125 27.796875 6.6875 28.140625 6.273438 28.140625 C 5.859375 28.140625 5.511719 27.796875 5.511719 27.382812 C 5.511719 27.3125 5.511719 27.3125 5.511719 27.242188 C 5.511719 27.171875 5.511719 27.171875 5.511719 27.105469 L 5.511719 15.496094 C 5.511719 15.082031 5.582031 14.734375 5.71875 14.320312 C 6.203125 12.9375 7.515625 11.972656 8.96875 11.972656 C 10.417969 11.972656 11.664062 12.800781 12.144531 14.113281 C 12.144531 14.183594 12.214844 14.183594 12.214844 14.253906 C 12.214844 14.320312 12.285156 14.320312 12.285156 14.390625 C 12.285156 14.390625 12.351562 14.390625 12.351562 14.460938 C 12.421875 14.460938 12.421875 14.527344 12.492188 14.527344 C 12.5625 14.527344 12.5625 14.527344 12.628906 14.527344 C 12.699219 14.527344 12.699219 14.527344 12.769531 14.527344 C 12.835938 14.527344 12.835938 14.527344 12.90625 14.527344 C 12.90625 14.527344 12.976562 14.527344 12.976562 14.527344 C 13.042969 14.527344 13.042969 14.460938 13.113281 14.460938 C 13.183594 14.460938 13.183594 14.390625 13.25 14.390625 L 15.53125 11.765625 C 15.738281 11.765625 16.015625 11.765625 16.152344 11.972656 C 16.359375 12.109375 16.429688 12.457031 16.429688 12.730469 Z M 12.628906 17.015625 " fill-opacity="1" fill-rule="nonzero"/></g><path fill="#ffffff" d="M 22.027344 10.105469 L 28.730469 10.105469 C 29.144531 10.105469 29.421875 9.828125 29.421875 9.414062 C 29.421875 9 29.144531 8.722656 28.730469 8.722656 L 22.027344 8.722656 C 21.613281 8.722656 21.335938 9 21.335938 9.414062 C 21.335938 9.828125 21.683594 10.105469 22.027344 10.105469 Z M 22.027344 10.105469 " fill-opacity="1" fill-rule="nonzero"/><path fill="#ffffff" d="M 22.027344 13.214844 L 28.730469 13.214844 C 29.144531 13.214844 29.421875 12.9375 29.421875 12.523438 C 29.421875 12.109375 29.144531 11.832031 28.730469 11.832031 L 22.027344 11.832031 C 21.613281 11.832031 21.335938 12.109375 21.335938 12.523438 C 21.335938 12.9375 21.683594 13.214844 22.027344 13.214844 Z M 22.027344 13.214844 " fill-opacity="1" fill-rule="nonzero"/><path fill="#ffffff" d="M 22.027344 16.324219 L 28.730469 16.324219 C 29.144531 16.324219 29.421875 16.046875 29.421875 15.632812 C 29.421875 15.21875 29.144531 14.941406 28.730469 14.941406 L 22.027344 14.941406 C 21.613281 14.941406 21.335938 15.21875 21.335938 15.632812 C 21.335938 16.046875 21.683594 16.324219 22.027344 16.324219 Z M 22.027344 16.324219 " fill-opacity="1" fill-rule="nonzero"/></svg>